<svg width="291" height="74" viewBox="0 0 291 74" fill="none" xmlns="http://www.w3.org/2000/svg">
<path fill-rule="evenodd" clip-rule="evenodd" d="M6.77177 24.9166C7.84778 19.2684 13.156 11.5998 19.9427 12.0164C20.9974 12.0811 22.4209 12.5683 23.1662 13.3848C22.9523 12.9191 22.4823 12.474 22.2079 12.3213C24.0294 11.3634 24.1543 10.34 23.4226 8.75935C22.4808 7.13415 21.5456 4.23564 22.4059 2.45209C22.7885 1.6587 23.7932 0 23.7932 0C23.7932 0 27.7207 1.1048 28.4286 3.08989C30.6804 5.23719 33.7579 8.43639 37.6606 12.6871C37.861 12.905 37.8823 13.2629 37.7245 13.7608C37.7025 13.6033 37.585 13.4512 37.3716 13.3043C36.2195 12.8713 34.9432 11.555 33.4436 10.0084C31.3603 7.85976 28.8461 5.26664 25.6351 3.98032C25.4069 4.34822 24.9966 4.38568 24.4036 4.09248C24.1244 4.00737 23.9237 4.03858 23.7932 4.17759C23.7076 4.26852 23.6562 4.41231 23.6387 4.60979C23.6005 5.042 23.7016 5.32292 23.8801 5.71018C24.2127 6.43209 24.6817 6.95504 25.1643 7.49317L25.1644 7.49321L25.1645 7.49331L25.1645 7.49333C25.4136 7.77107 25.6663 8.05286 25.9058 8.36814C27.6259 10.6559 26.6617 14.31 23.9469 18.7147C22.7191 20.7544 20.7162 22.333 17.9388 23.4512C17.9557 23.5312 17.972 23.6059 17.9877 23.6756C18.2522 23.8449 18.5234 23.9616 18.7525 23.9616C19.1152 23.9616 19.5339 23.9055 19.9827 23.8454C20.5009 23.7759 21.0592 23.7011 21.6175 23.7011C22.0858 23.7011 22.1331 23.9642 22.1852 24.2539C22.249 24.6087 22.3199 25.0034 23.1802 25.0034C23.6889 25.0034 24.1143 24.9603 24.4457 24.9267L24.4457 24.9266C24.9288 24.8777 25.2123 24.8489 25.2638 25.0034C24.8298 25.4375 23.649 26.2536 22.3989 26.0452C21.544 25.9027 21.4685 25.4485 21.405 25.0662C21.3524 24.7497 21.3081 24.4825 20.8362 24.4825C20.0027 24.4825 18.7525 24.8298 18.2316 25.0034L17.0376 23.9586L16.8761 23.8437C16.4982 23.9717 16.091 24.0865 15.688 24.1995L16.1695 26.8265H25.0034V29.4311H30.7333H38.026L40.1096 29.4311V30.9938L39.5887 30.9938V31.5467C39.5887 31.9259 39.4106 32.283 39.1079 32.5112L38.8196 32.7285C38.6983 32.8198 38.627 32.9628 38.627 33.1147C38.627 33.1418 38.6248 33.1685 38.6205 33.1944C39.1887 33.4284 39.5887 33.9875 39.5887 34.6401V44.0164C39.5887 44.6624 39.1967 45.2168 38.6377 45.4548C38.6618 45.6 38.7262 45.7365 38.8249 45.8481L39.1079 46.1679C39.4177 46.5182 39.5887 46.9696 39.5887 47.4372V47.6627H40.1096V50.7881H38.026H30.7333H26.5661V51.8299H14.0644V50.7881H9.37627H2.08362H0V47.6627H0.520904V47.4372C0.520904 46.9696 0.691925 46.5182 1.00174 46.1679L1.28468 45.8481C1.38335 45.7365 1.44782 45.6 1.47193 45.4548C0.912862 45.2168 0.520904 44.6624 0.520904 44.0164V34.6401C0.520904 33.9875 0.920915 33.4284 1.48912 33.1944C1.48481 33.1685 1.48257 33.1418 1.48257 33.1147C1.48257 32.9628 1.41127 32.8198 1.29002 32.7285L1.00174 32.5112C0.698954 32.283 0.520904 31.9259 0.520904 31.5467L0.520904 30.9938L0 30.9938V29.4311L2.08362 29.4311H9.37627H15.6271V27.8135L15.5974 27.8141C15.3773 26.7724 15.1251 25.6545 14.8139 24.4376C14.0067 24.6336 13.1535 24.7909 12.2541 24.932C11.6946 25.0198 11.206 25.0805 10.7647 25.1354L10.7645 25.1354C9.25481 25.3231 8.29893 25.4419 6.9501 26.3389C7.41201 25.1723 8.81718 23.1223 10.0027 21.3928C10.1731 21.1442 10.3389 20.9023 10.4968 20.6705C9.13176 22 7.89017 23.4152 6.77177 24.9166ZM25.4341 6.65065C25.3022 6.47913 25.2203 6.46169 25.1599 6.48271C25.0163 6.53289 25.1509 6.80644 25.2098 6.92606L25.2201 6.94702C25.3267 7.16667 25.4197 7.35963 25.4993 7.52652C25.4386 7.45703 25.378 7.38838 25.3175 7.31974L25.3173 7.31948C24.7492 6.67587 23.5919 5.3296 23.8751 4.39824C23.9441 4.17123 24.1109 4.187 24.303 4.2427C24.6303 4.40391 24.916 4.47307 25.1595 4.45079C25.3743 4.43103 25.5518 4.34506 25.6918 4.1933C28.7876 5.49586 31.2379 8.04611 33.2741 10.1653C34.5099 11.4514 35.5961 12.5818 36.6039 13.2042C33.3307 12.3956 27.3072 9.08572 25.4341 6.65065ZM29.1706 34.6401C29.1706 33.9875 29.5706 33.4284 30.1388 33.1944C30.1345 33.1685 30.1323 33.1418 30.1323 33.1147C30.1323 32.9628 30.061 32.8198 29.9397 32.7285L29.6514 32.5112C29.3487 32.283 29.1706 31.9259 29.1706 31.5467V30.9938L27.087 30.9938L27.083 30.9938C25.8362 30.9956 25.5243 31.8624 25.5243 32.296V46.3953L25.5386 46.3738C25.5386 46.7871 25.8239 47.5966 26.9415 47.6627H29.1706V47.4372C29.1706 46.9696 29.3416 46.5182 29.6514 46.1679L29.9344 45.8481C30.0331 45.7365 30.0975 45.6 30.1216 45.4548C29.5626 45.2168 29.1706 44.6624 29.1706 44.0164V34.6401ZM15.1062 46.5552C15.0382 46.9678 14.726 47.5527 13.8589 47.6627H10.939V47.4372C10.939 46.9696 10.768 46.5182 10.4581 46.1679L10.1752 45.8481C10.0765 45.7365 10.0121 45.6 9.98796 45.4548C10.547 45.2168 10.939 44.6624 10.939 44.0164V34.6401C10.939 33.9875 10.539 33.4284 9.97076 33.1944C9.97507 33.1685 9.97731 33.1418 9.97731 33.1147C9.97731 32.9628 10.0486 32.8198 10.1699 32.7285L10.4581 32.5112C10.7609 32.283 10.939 31.9259 10.939 31.5467V30.9938H13.2975C13.3661 31.0028 13.4514 31.0077 13.5552 31.0077C14.7592 31.0077 15.0875 31.8185 15.1062 32.2606V46.5552ZM36.4633 47.6627H32.296V47.4372C32.296 46.9696 32.125 46.5182 31.8152 46.1679L31.5323 45.8481C31.4336 45.7365 31.3691 45.6 31.345 45.4548C31.9041 45.2168 32.296 44.6624 32.296 44.0164V34.6401C32.296 33.9875 31.896 33.4284 31.3278 33.1944C31.3321 33.1685 31.3344 33.1418 31.3344 33.1147C31.3344 32.9628 31.4057 32.8198 31.5269 32.7285L31.8152 32.5112C32.118 32.283 32.296 31.9259 32.296 31.5467V30.9938H36.4633V31.5467C36.4633 31.9259 36.6413 32.283 36.9441 32.5112L37.2324 32.7285C37.3536 32.8198 37.4249 32.9628 37.4249 33.1147C37.4249 33.1418 37.4272 33.1685 37.4315 33.1944C36.8633 33.4284 36.4633 33.9875 36.4633 34.6401V44.0164C36.4633 44.6624 36.8552 45.2168 37.4143 45.4548C37.3902 45.6 37.3257 45.7365 37.227 45.8481L36.9441 46.1679C36.6343 46.5182 36.4633 46.9696 36.4633 47.4372V47.6627ZM3.64633 47.6627V47.4372C3.64633 46.9696 3.47531 46.5182 3.16549 46.1679L2.88256 45.8481C2.78388 45.7365 2.71941 45.6 2.6953 45.4548C3.25437 45.2168 3.64633 44.6624 3.64633 44.0164V34.6401C3.64633 33.9875 3.24632 33.4284 2.67811 33.1944C2.68242 33.1685 2.68466 33.1418 2.68466 33.1147C2.68466 32.9628 2.75596 32.8198 2.87721 32.7285L3.16549 32.5112C3.46828 32.283 3.64633 31.9259 3.64633 31.5467L3.64633 30.9938H7.81356V31.5467C7.81356 31.9259 7.99161 32.283 8.29439 32.5112L8.58267 32.7285C8.70392 32.8198 8.77523 32.9628 8.77523 33.1147C8.77523 33.1418 8.77747 33.1685 8.78177 33.1944C8.21357 33.4284 7.81356 33.9875 7.81356 34.6401V44.0164C7.81356 44.6624 8.20552 45.2168 8.76458 45.4548C8.74047 45.6 8.676 45.7365 8.57733 45.8481L8.29439 46.1679C7.98458 46.5182 7.81356 46.9696 7.81356 47.4372V47.6627H3.64633ZM26.5661 3.38587C26.8538 3.38587 27.087 3.15266 27.087 2.86497C27.087 2.57728 26.8538 2.34407 26.5661 2.34407C26.2784 2.34407 26.0452 2.57728 26.0452 2.86497C26.0452 3.15266 26.2784 3.38587 26.5661 3.38587ZM30.2124 34.6401C30.2124 34.3524 30.4456 34.1192 30.7333 34.1192C31.021 34.1192 31.2542 34.3524 31.2542 34.6401V43.4955C31.2542 43.7832 31.021 44.0164 30.7333 44.0164C30.4456 44.0164 30.2124 43.7832 30.2124 43.4955V34.6401ZM2.08362 34.1192C1.79593 34.1192 1.56271 34.3524 1.56271 34.6401V43.4955C1.56271 43.7832 1.79593 44.0164 2.08362 44.0164C2.3713 44.0164 2.60452 43.7832 2.60452 43.4955V34.6401C2.60452 34.3524 2.3713 34.1192 2.08362 34.1192ZM37.5051 34.6401C37.5051 34.3524 37.7383 34.1192 38.026 34.1192C38.3137 34.1192 38.5469 34.3524 38.5469 34.6401V43.4955C38.5469 43.7832 38.3137 44.0164 38.026 44.0164C37.7383 44.0164 37.5051 43.7832 37.5051 43.4955V34.6401ZM9.37627 34.1192C9.08858 34.1192 8.85537 34.3524 8.85537 34.6401V43.4955C8.85537 43.7832 9.08858 44.0164 9.37627 44.0164C9.66396 44.0164 9.89717 43.7832 9.89717 43.4955V34.6401C9.89717 34.3524 9.66396 34.1192 9.37627 34.1192Z" fill="#F8F8F8"/>
<path d="M52.4955 35.9645H51.8778L52.528 29H53.1457C53.1674 29.0434 53.1891 29.0868 53.2108 29.1302C53.2541 29.1736 53.2975 29.2278 53.3408 29.2929C53.4275 29.3797 53.5467 29.4665 53.6984 29.5533C53.8502 29.6183 54.0344 29.6509 54.2511 29.6509C54.6846 29.6509 54.9989 29.6292 55.194 29.5858C55.4107 29.5424 55.5949 29.4882 55.7467 29.4231C55.79 29.4014 55.8334 29.3905 55.8767 29.3905C55.9201 29.3688 55.9634 29.3471 56.0067 29.3254C56.2452 29.2387 56.5811 29.1627 57.0146 29.0976C57.4481 29.0325 58.1742 29 59.1929 29C61.1219 29 62.7691 29.4448 64.1346 30.3343C65.5217 31.2022 66.2153 32.4497 66.2153 34.0769C66.2153 34.3807 66.1611 34.7604 66.0528 35.216C65.9444 35.6716 65.6951 36.1381 65.305 36.6154C64.9149 37.0927 64.3297 37.5592 63.5494 38.0148C62.7908 38.4487 61.7504 38.8176 60.4283 39.1213V39.3166C62.1406 39.5986 63.6361 40.2604 64.9149 41.3018C66.1936 42.3432 66.833 43.6341 66.833 45.1746C66.833 46.8235 66.1178 48.212 64.6873 49.3402C63.2568 50.4467 61.0243 51 57.9899 51C56.2343 51 54.6304 50.5878 53.1783 49.7633C51.7261 48.9389 51 47.7673 51 46.2485C51 45.3807 51.2059 44.7189 51.6177 44.2633C52.0295 43.786 52.5497 43.5473 53.1783 43.5473C53.7635 43.5473 54.2403 43.7209 54.6088 44.068C54.9772 44.3935 55.194 44.7623 55.259 45.1746C55.2807 45.1963 55.2915 45.2288 55.2915 45.2722C55.2915 45.3156 55.2915 45.359 55.2915 45.4024C55.2915 45.5325 55.2807 45.6844 55.259 45.858C55.2373 46.0099 55.1831 46.1617 55.0964 46.3136C55.0314 46.4655 54.9339 46.6065 54.8038 46.7367C54.6738 46.8669 54.5004 46.997 54.2836 47.1272C54.2403 47.1489 54.1753 47.1815 54.0886 47.2249C54.0236 47.2682 53.9585 47.3008 53.8935 47.3225C53.7418 47.4093 53.6009 47.5178 53.4709 47.6479C53.3625 47.7564 53.3083 47.9083 53.3083 48.1035C53.3083 48.1903 53.3191 48.288 53.3408 48.3965C53.3842 48.4832 53.4384 48.5809 53.5034 48.6894C53.7635 49.1233 54.2836 49.5247 55.0639 49.8935C55.8659 50.2406 56.8412 50.4142 57.9899 50.4142C59.2904 50.4142 60.4066 50.0454 61.3386 49.3077C62.2706 48.5483 62.7366 47.1815 62.7366 45.2071C62.7366 43.645 62.4982 42.4734 62.0213 41.6923C61.5445 40.9112 61.0243 40.358 60.4608 40.0325C60.0923 39.8373 59.7347 39.7071 59.3879 39.642C59.0628 39.5769 58.7919 39.5444 58.5751 39.5444L55.7467 39.5769V38.926L58.4451 38.8935C59.5288 38.8935 60.3199 38.6223 60.8184 38.0799C61.3169 37.5375 61.6529 36.9408 61.8263 36.2899C61.9563 35.856 62.0322 35.4438 62.0539 35.0533C62.0755 34.641 62.0864 34.3156 62.0864 34.0769C62.0864 33.86 62.0755 33.6322 62.0539 33.3935C62.0539 33.1548 62.043 32.9053 62.0213 32.645C61.913 31.9073 61.6312 31.2347 61.1761 30.6272C60.7209 29.998 59.8756 29.6834 58.6402 29.6834C56.6678 29.6834 55.2265 30.2584 54.3162 31.4083C53.4058 32.5365 52.799 34.0552 52.4955 35.9645Z" fill="#F8F8F8"/>
<path d="M69.2701 43.7426C69.2701 41.7899 69.9312 40.0868 71.2533 38.6331C72.5971 37.1795 74.2769 36.4527 76.2926 36.4527C78.3516 36.4527 80.0422 37.2012 81.3643 38.6982C82.6865 40.1736 83.3475 41.855 83.3475 43.7426C83.3475 45.6302 82.6865 47.3116 81.3643 48.787C80.0422 50.2623 78.3516 51 76.2926 51C74.2335 51 72.5429 50.2732 71.2208 48.8195C69.9203 47.3442 69.2701 45.6519 69.2701 43.7426ZM72.9439 41.3994C72.9222 41.8116 72.9114 42.2239 72.9114 42.6361C72.9114 43.0266 72.9114 43.428 72.9114 43.8402C72.9114 46.0533 73.1173 47.713 73.5291 48.8195C73.9409 49.926 74.8729 50.4793 76.3251 50.4793C77.6255 50.4793 78.5142 49.9694 78.991 48.9497C79.4678 47.93 79.7062 46.216 79.7062 43.8077C79.7062 43.786 79.7062 43.7751 79.7062 43.7751C79.7062 43.7535 79.7062 43.7318 79.7062 43.7101C79.7062 42.0394 79.5329 40.5099 79.1861 39.1213C78.861 37.711 77.9073 37.0059 76.3251 37.0059C76.26 37.0059 76.195 37.0059 76.13 37.0059C76.0866 37.0059 76.0325 37.0168 75.9674 37.0385C75.2305 37.1036 74.5586 37.4724 73.9517 38.145C73.3449 38.7959 73.0089 39.8807 72.9439 41.3994Z" fill="#F8F8F8"/>
<path d="M94.1921 37.3639H92.7616C91.3311 37.3639 90.4858 37.5483 90.2257 37.9172C89.9873 38.2643 89.8572 38.7199 89.8356 39.284L89.5755 47.6479C89.5538 48.5809 89.3696 49.3728 89.0228 50.0237C88.676 50.6746 87.9174 51 86.747 51C86.0751 51 85.4682 50.8156 84.9263 50.4467C84.4062 50.0779 84.1461 49.5464 84.1461 48.8521C84.1461 48.2663 84.3195 47.8107 84.6663 47.4852C85.0347 47.1381 85.4249 46.9645 85.8367 46.9645C86.2702 46.9645 86.6494 47.073 86.9746 47.2899C87.3214 47.5069 87.4947 47.854 87.4947 48.3314C87.4947 48.4181 87.4947 48.5049 87.4947 48.5917C87.4947 48.6568 87.4731 48.7327 87.4297 48.8195C87.4297 48.8412 87.4189 48.8629 87.3972 48.8846C87.3972 48.8846 87.3864 48.8955 87.3647 48.9172C87.3647 48.9389 87.3539 48.9606 87.3322 48.9823C87.3105 49.0256 87.2888 49.0582 87.2672 49.0799C87.2672 49.1016 87.2672 49.1341 87.2672 49.1775C87.2672 49.2209 87.2672 49.2643 87.2672 49.3077C87.2672 49.3294 87.2672 49.3619 87.2672 49.4053C87.2888 49.5355 87.3214 49.644 87.3647 49.7308C87.408 49.8176 87.4947 49.8609 87.6248 49.8609C88.3184 49.8609 88.7193 49.6114 88.8277 49.1124C88.9578 48.5917 89.0336 47.9625 89.0553 47.2249L89.2829 39.284C89.2829 39.1972 89.2829 39.1105 89.2829 39.0237C89.2829 38.9369 89.2829 38.8501 89.2829 38.7633C89.2612 38.4162 89.1311 38.1016 88.8927 37.8195C88.676 37.5158 88.21 37.3639 87.4947 37.3639H86.812V36.8107H99.4264V37.3639H97.3782V50.1213H99.4264V50.6746H92.1439V50.1213H94.1921V37.3639Z" fill="#F8F8F8"/>
<path d="M100.797 43.7426C100.797 41.7899 101.458 40.0868 102.78 38.6331C104.124 37.1795 105.804 36.4527 107.82 36.4527C109.879 36.4527 111.569 37.2012 112.891 38.6982C114.214 40.1736 114.875 41.855 114.875 43.7426C114.875 45.6302 114.214 47.3116 112.891 48.787C111.569 50.2623 109.879 51 107.82 51C105.761 51 104.07 50.2732 102.748 48.8195C101.447 47.3442 100.797 45.6519 100.797 43.7426ZM104.471 41.3994C104.449 41.8116 104.438 42.2239 104.438 42.6361C104.438 43.0266 104.438 43.428 104.438 43.8402C104.438 46.0533 104.644 47.713 105.056 48.8195C105.468 49.926 106.4 50.4793 107.852 50.4793C109.153 50.4793 110.041 49.9694 110.518 48.9497C110.995 47.93 111.233 46.216 111.233 43.8077C111.233 43.786 111.233 43.7751 111.233 43.7751C111.233 43.7535 111.233 43.7318 111.233 43.7101C111.233 42.0394 111.06 40.5099 110.713 39.1213C110.388 37.711 109.434 37.0059 107.852 37.0059C107.787 37.0059 107.722 37.0059 107.657 37.0059C107.614 37.0059 107.56 37.0168 107.495 37.0385C106.758 37.1036 106.086 37.4724 105.479 38.145C104.872 38.7959 104.536 39.8807 104.471 41.3994Z" fill="#F8F8F8"/>
<path d="M129.198 36.8107L129.491 42.0828H128.808C128.504 40.5641 127.995 39.3817 127.28 38.5355C126.586 37.6677 125.578 37.2771 124.256 37.3639V50.1213H126.304V50.6746H119.022V50.1213H121.07V37.3639C119.553 37.2771 118.523 37.6677 117.981 38.5355C117.44 39.4034 116.984 40.4556 116.616 41.6923C116.594 41.7574 116.573 41.8225 116.551 41.8876C116.551 41.9527 116.54 42.0178 116.518 42.0828H115.836L116.128 36.8107H129.198Z" fill="#F8F8F8"/>
<path d="M130.451 43.7426C130.451 41.7899 131.112 40.0868 132.434 38.6331C133.778 37.1795 135.458 36.4527 137.474 36.4527C139.533 36.4527 141.223 37.2012 142.545 38.6982C143.867 40.1736 144.529 41.855 144.529 43.7426C144.529 45.6302 143.867 47.3116 142.545 48.787C141.223 50.2623 139.533 51 137.474 51C135.415 51 133.724 50.2732 132.402 48.8195C131.101 47.3442 130.451 45.6519 130.451 43.7426ZM134.125 41.3994C134.103 41.8116 134.092 42.2239 134.092 42.6361C134.092 43.0266 134.092 43.428 134.092 43.8402C134.092 46.0533 134.298 47.713 134.71 48.8195C135.122 49.926 136.054 50.4793 137.506 50.4793C138.807 50.4793 139.695 49.9694 140.172 48.9497C140.649 47.93 140.887 46.216 140.887 43.8077C140.887 43.786 140.887 43.7751 140.887 43.7751C140.887 43.7535 140.887 43.7318 140.887 43.7101C140.887 42.0394 140.714 40.5099 140.367 39.1213C140.042 37.711 139.088 37.0059 137.506 37.0059C137.441 37.0059 137.376 37.0059 137.311 37.0059C137.268 37.0059 137.213 37.0168 137.148 37.0385C136.412 37.1036 135.74 37.4724 135.133 38.145C134.526 38.7959 134.19 39.8807 134.125 41.3994Z" fill="#F8F8F8"/>
<path d="M151.114 47.713L156.641 38.3728V37.3639H154.82V36.8107H161.875V37.3639H159.827V50.1213H161.875V50.6746H154.82V50.1213H156.641V39.4793L151.114 48.8195V50.1213H152.935V50.6746H145.88V50.1213H147.928V37.3639H145.88V36.8107H152.935V37.3639H151.114V47.713ZM153.91 34.9556C152.393 34.9556 151.19 34.6193 150.301 33.9467C149.413 33.2525 148.968 32.3955 148.968 31.3757C148.968 30.8767 149.131 30.497 149.456 30.2367C149.781 29.9763 150.128 29.8136 150.496 29.7485C150.561 29.7485 150.626 29.7485 150.691 29.7485C150.778 29.7268 150.854 29.716 150.919 29.716C151.439 29.716 151.84 29.8895 152.122 30.2367C152.404 30.5621 152.545 30.9418 152.545 31.3757C152.545 31.4408 152.534 31.5385 152.512 31.6686C152.49 31.7771 152.447 31.8964 152.382 32.0266C152.317 32.1785 152.198 32.3195 152.024 32.4497C151.873 32.5799 151.645 32.6667 151.342 32.7101C151.32 32.7101 151.298 32.7101 151.277 32.7101C151.255 32.7101 151.233 32.7209 151.212 32.7426C151.103 32.7426 150.995 32.786 150.887 32.8728C150.8 32.9379 150.756 33.0897 150.756 33.3284C150.756 33.6105 151.017 33.86 151.537 34.0769C152.079 34.2722 152.685 34.3807 153.357 34.4024C153.444 34.4024 153.531 34.4024 153.617 34.4024C153.704 34.4024 153.791 34.4024 153.878 34.4024C153.964 34.4024 154.051 34.4024 154.138 34.4024C154.224 34.4024 154.311 34.4024 154.398 34.4024C154.506 34.4024 154.615 34.4024 154.723 34.4024C154.831 34.3807 154.94 34.359 155.048 34.3373C155.525 34.2939 155.969 34.1854 156.381 34.0118C156.793 33.8383 156.999 33.6105 156.999 33.3284C156.999 33.068 156.944 32.9162 156.836 32.8728C156.749 32.8077 156.652 32.7643 156.544 32.7426C156.522 32.7426 156.5 32.7426 156.478 32.7426C156.457 32.7209 156.435 32.7101 156.413 32.7101C156.348 32.6884 156.273 32.6667 156.186 32.645C156.099 32.6233 156.012 32.5907 155.926 32.5473C155.752 32.4606 155.59 32.3304 155.438 32.1568C155.286 31.9615 155.211 31.7012 155.211 31.3757C155.211 30.9418 155.351 30.5621 155.633 30.2367C155.937 29.8895 156.348 29.716 156.869 29.716C156.912 29.716 156.955 29.716 156.999 29.716C157.042 29.716 157.075 29.716 157.096 29.716C157.53 29.7594 157.92 29.9112 158.267 30.1716C158.613 30.432 158.787 30.8333 158.787 31.3757C158.787 32.5473 158.342 33.4152 157.454 33.9793C156.587 34.5217 155.622 34.8363 154.56 34.9231C154.452 34.9448 154.344 34.9556 154.235 34.9556C154.127 34.9556 154.018 34.9556 153.91 34.9556Z" fill="#F8F8F8"/>
<path d="M177.568 29.9763V50.0237H179.843V50.6746H171.423V50.0237H173.926V29.9763H171.423V29.358H193.303V29.9763H190.8V50.0237H193.303V50.6746H184.883V50.0237H187.159V29.9763H177.568Z" fill="#F8F8F8"/>
<path d="M207.7 46.8018L208.253 47.1598C207.451 48.4181 206.584 49.3728 205.652 50.0237C204.72 50.6746 203.626 51 202.368 51C200.57 51 198.955 50.3708 197.524 49.1124C196.094 47.854 195.379 46.0641 195.379 43.7426C195.379 41.7899 195.996 40.0868 197.232 38.6331C198.489 37.1795 200.049 36.4527 201.913 36.4527C202.26 36.4527 202.65 36.4852 203.084 36.5503C203.517 36.6154 203.951 36.7347 204.384 36.9083C205.251 37.2554 206.064 37.8955 206.823 38.8284C207.581 39.7396 208.015 41.1174 208.123 42.9615H199.02L199.052 45.2071C199.052 45.4024 199.052 45.6085 199.052 45.8254C199.074 46.0424 199.096 46.2594 199.117 46.4763C199.204 47.4527 199.453 48.3422 199.865 49.145C200.277 49.9477 201.068 50.3491 202.238 50.3491C202.997 50.3491 203.842 50.1322 204.774 49.6982C205.706 49.2426 206.682 48.2771 207.7 46.8018ZM199.02 42.4408H204.742C204.785 40.9655 204.666 39.6963 204.384 38.6331C204.124 37.5483 203.355 37.0059 202.076 37.0059C201.252 37.0059 200.635 37.2012 200.223 37.5917C199.811 37.9606 199.518 38.3728 199.345 38.8284C199.215 39.1322 199.128 39.425 199.085 39.7071C199.063 39.9892 199.052 40.217 199.052 40.3905L199.02 42.4408Z" fill="#F8F8F8"/>
<path d="M219.126 37.3639H217.695C216.265 37.3639 215.42 37.5483 215.159 37.9172C214.921 38.2643 214.791 38.7199 214.769 39.284L214.509 47.6479C214.488 48.5809 214.303 49.3728 213.956 50.0237C213.61 50.6746 212.851 51 211.681 51C211.009 51 210.402 50.8156 209.86 50.4467C209.34 50.0779 209.08 49.5464 209.08 48.8521C209.08 48.2663 209.253 47.8107 209.6 47.4852C209.968 47.1381 210.359 46.9645 210.77 46.9645C211.204 46.9645 211.583 47.073 211.908 47.2899C212.255 47.5069 212.428 47.854 212.428 48.3314C212.428 48.4181 212.428 48.5049 212.428 48.5917C212.428 48.6568 212.407 48.7327 212.363 48.8195C212.363 48.8412 212.353 48.8629 212.331 48.8846C212.331 48.8846 212.32 48.8955 212.298 48.9172C212.298 48.9389 212.288 48.9606 212.266 48.9823C212.244 49.0256 212.223 49.0582 212.201 49.0799C212.201 49.1016 212.201 49.1341 212.201 49.1775C212.201 49.2209 212.201 49.2643 212.201 49.3077C212.201 49.3294 212.201 49.3619 212.201 49.4053C212.223 49.5355 212.255 49.644 212.298 49.7308C212.342 49.8176 212.428 49.8609 212.559 49.8609C213.252 49.8609 213.653 49.6114 213.761 49.1124C213.891 48.5917 213.967 47.9625 213.989 47.2249L214.217 39.284C214.217 39.1972 214.217 39.1105 214.217 39.0237C214.217 38.9369 214.217 38.8501 214.217 38.7633C214.195 38.4162 214.065 38.1016 213.826 37.8195C213.61 37.5158 213.144 37.3639 212.428 37.3639H211.746V36.8107H224.36V37.3639H222.312V50.1213H224.36V50.6746H217.078V50.1213H219.126V37.3639Z" fill="#F8F8F8"/>
<path d="M230.9 47.713L236.427 38.3728V37.3639H234.607V36.8107H241.661V37.3639H239.613V50.1213H241.661V50.6746H234.607V50.1213H236.427V39.4793L230.9 48.8195V50.1213H232.721V50.6746H225.666V50.1213H227.714V37.3639H225.666V36.8107H232.721V37.3639H230.9V47.713Z" fill="#F8F8F8"/>
<path d="M248.204 43.0592H249.374C250.219 43.0592 250.815 42.8422 251.162 42.4083C251.509 41.9527 251.758 41.4645 251.91 40.9438C251.932 40.8136 251.953 40.6943 251.975 40.5858C252.018 40.4556 252.051 40.3363 252.072 40.2278C252.311 39.0562 252.604 38.1341 252.95 37.4615C253.319 36.789 254.034 36.4527 255.096 36.4527C255.746 36.4527 256.331 36.6588 256.852 37.071C257.372 37.4615 257.632 38.0148 257.632 38.7308C257.632 39.2515 257.48 39.7179 257.177 40.1302C256.895 40.5424 256.462 40.7485 255.876 40.7485C255.378 40.7485 254.966 40.6183 254.641 40.358C254.337 40.0759 254.186 39.7396 254.186 39.3491C254.186 39.2189 254.197 39.0996 254.218 38.9911C254.24 38.8609 254.262 38.7416 254.283 38.6331C254.283 38.6114 254.283 38.5897 254.283 38.568C254.305 38.5464 254.316 38.5247 254.316 38.503C254.337 38.4596 254.348 38.4162 254.348 38.3728C254.37 38.3294 254.381 38.286 254.381 38.2426C254.381 38.0256 254.316 37.8955 254.186 37.8521C254.056 37.8087 253.904 37.787 253.731 37.787C253.731 37.787 253.72 37.787 253.698 37.787C253.698 37.787 253.687 37.787 253.666 37.787C253.644 37.787 253.622 37.787 253.601 37.787C253.449 37.787 253.319 37.928 253.21 38.2101C253.102 38.4704 253.004 38.7633 252.918 39.0888C252.853 39.3491 252.799 39.5986 252.755 39.8373C252.734 40.0542 252.712 40.217 252.69 40.3254C252.69 40.3688 252.679 40.4122 252.658 40.4556C252.658 40.499 252.647 40.5424 252.625 40.5858C252.452 41.4103 252.246 42.0178 252.007 42.4083C251.769 42.7771 251.422 43.0266 250.967 43.1568V43.2544C252.593 43.3412 253.731 43.6667 254.381 44.2308C255.031 44.7732 255.454 45.3698 255.649 46.0207C255.714 46.2594 255.768 46.498 255.811 46.7367C255.855 46.9536 255.887 47.1706 255.909 47.3876C255.909 47.4093 255.909 47.431 255.909 47.4527C255.909 47.4744 255.909 47.4961 255.909 47.5178C255.974 48.0819 256.061 48.5809 256.169 49.0148C256.299 49.4487 256.57 49.6657 256.982 49.6657C257.263 49.6657 257.524 49.5789 257.762 49.4053C258 49.2101 258.185 49.0039 258.315 48.787L258.737 49.0148C258.456 49.6223 258.022 50.1105 257.437 50.4793C256.852 50.8264 256.169 51 255.389 51C254.283 51 253.579 50.6529 253.275 49.9586C252.972 49.2643 252.755 48.4941 252.625 47.6479C252.625 47.6045 252.625 47.5611 252.625 47.5178C252.625 47.4744 252.614 47.431 252.593 47.3876C252.593 47.3442 252.582 47.3008 252.56 47.2574C252.56 47.1923 252.56 47.1381 252.56 47.0947C252.343 45.5108 251.997 44.5345 251.52 44.1657C251.065 43.7751 250.425 43.5799 249.602 43.5799H248.919L248.204 43.6124V50.1213H250.252V50.6746H242.969V50.1213H245.018V37.3639H242.969V36.8107H250.252V37.3639H248.204V43.0592Z" fill="#F8F8F8"/>
<path d="M273.908 48.9497L274.363 49.3728C274.211 49.5897 274.049 49.785 273.875 49.9586C273.702 50.1322 273.529 50.2732 273.355 50.3817C272.9 50.6854 272.456 50.859 272.022 50.9024C271.61 50.9675 271.307 51 271.112 51C270.44 51 269.909 50.8481 269.519 50.5444C269.15 50.2406 268.869 49.9043 268.674 49.5355C268.609 49.427 268.554 49.3294 268.511 49.2426C268.468 49.1341 268.435 49.0256 268.413 48.9172C267.351 49.8501 266.441 50.4359 265.683 50.6746C264.946 50.8915 264.274 51 263.667 51C262.453 51 261.521 50.6637 260.871 49.9911C260.221 49.2968 259.896 48.4507 259.896 47.4527C259.896 45.8905 260.578 44.7298 261.944 43.9704C263.331 43.211 265.13 42.8314 267.341 42.8314C267.514 42.8314 267.687 42.8314 267.861 42.8314C268.056 42.8314 268.24 42.8422 268.413 42.8639V39.2189C268.413 39.1105 268.413 39.002 268.413 38.8935C268.413 38.7633 268.403 38.644 268.381 38.5355C268.316 38.145 268.143 37.7978 267.861 37.4941C267.579 37.1903 267.037 37.0385 266.235 37.0385C265.715 37.0385 265.238 37.1035 264.805 37.2337C264.371 37.3422 264.155 37.5158 264.155 37.7544C264.155 37.8195 264.155 37.8955 264.155 37.9822C264.176 38.0473 264.198 38.1124 264.22 38.1775C264.241 38.2643 264.263 38.3511 264.285 38.4379C264.306 38.503 264.339 38.568 264.382 38.6331C264.404 38.6765 264.415 38.7199 264.415 38.7633C264.436 38.785 264.458 38.8176 264.48 38.8609C264.501 38.9043 264.523 38.9477 264.545 38.9911C264.566 39.0345 264.599 39.0779 264.642 39.1213C264.707 39.2298 264.761 39.3491 264.805 39.4793C264.87 39.6095 264.902 39.7613 264.902 39.9349C264.902 40.4556 264.729 40.9221 264.382 41.3343C264.057 41.7465 263.569 41.9527 262.919 41.9527C262.312 41.9527 261.825 41.7574 261.456 41.3669C261.088 40.9546 260.903 40.4014 260.903 39.7071C260.903 38.7308 261.445 37.9497 262.529 37.3639C263.634 36.7564 264.881 36.4527 266.268 36.4527C268.24 36.4527 269.573 36.7456 270.267 37.3314C270.96 37.9172 271.372 38.5572 271.502 39.2515C271.545 39.4684 271.567 39.6746 271.567 39.8698C271.589 40.0651 271.6 40.2604 271.6 40.4556V48.9172C271.6 48.9823 271.6 49.0582 271.6 49.145C271.6 49.2101 271.61 49.286 271.632 49.3728C271.675 49.5247 271.74 49.6657 271.827 49.7959C271.936 49.926 272.109 49.9911 272.347 49.9911C272.434 49.9911 272.521 49.9803 272.607 49.9586C272.694 49.9369 272.781 49.9043 272.868 49.8609C272.998 49.7959 273.128 49.7091 273.258 49.6006C273.409 49.4921 273.539 49.3836 273.648 49.2752C273.691 49.2101 273.735 49.1558 273.778 49.1124C273.843 49.0473 273.886 48.9931 273.908 48.9497ZM268.413 47.9083V43.3846C266.745 43.3412 265.509 43.569 264.707 44.068C263.927 44.5671 263.537 45.6844 263.537 47.4201C263.537 48.3097 263.764 48.9063 264.22 49.2101C264.696 49.5138 265.217 49.6657 265.78 49.6657C265.932 49.6657 266.105 49.644 266.3 49.6006C266.495 49.5355 266.69 49.4487 266.885 49.3402C267.124 49.2318 267.351 49.1016 267.568 48.9497C267.807 48.7761 268.002 48.6134 268.153 48.4615C268.24 48.3531 268.305 48.2554 268.348 48.1686C268.392 48.0819 268.413 47.9951 268.413 47.9083Z" fill="#F8F8F8"/>
<path d="M280.239 43.4497V50.1213H282.059V50.6746H275.004V50.1213H277.053V37.3639H275.004V36.8107H282.059V37.3639H280.239V42.929H285.766V37.3639H283.945V36.8107H291V37.3639H288.952V50.1213H291V50.6746H283.945V50.1213H285.766V43.4497H280.239Z" fill="#F8F8F8"/>
<path d="M2.80637 72.3825H0V65.1244H4.69037V65.8191H0.726124V67.8721H2.80637C3.57174 67.8721 4.16703 68.0795 4.59224 68.4942C5.02399 68.909 5.23987 69.4551 5.23987 70.1325C5.23987 70.8168 5.02399 71.3629 4.59224 71.7707C4.16049 72.1786 3.5652 72.3825 2.80637 72.3825ZM0.726124 68.5668V71.6878H2.73768C3.30027 71.6878 3.73529 71.553 4.04274 71.2834C4.35674 71.0069 4.51374 70.6198 4.51374 70.1221C4.51374 69.6313 4.35674 69.2512 4.04274 68.9816C3.73529 68.7051 3.30027 68.5668 2.73768 68.5668H0.726124Z" fill="#F8F8F8"/>
<path d="M5.99803 72.3825V71.6774C6.06345 71.6912 6.15503 71.6982 6.27278 71.6982C6.5737 71.6982 6.81247 71.5876 6.98909 71.3664C7.17226 71.1452 7.31945 70.8237 7.43066 70.4021C7.50916 70.1187 7.56149 69.8076 7.58766 69.4689C7.62691 69.0818 7.65634 68.7154 7.67597 68.3698C7.68905 68.1141 7.70213 67.6924 7.71522 67.1048L7.75447 65.1244H12.0523V72.3825H11.3262V65.8191H8.46097L8.4119 67.4781C8.37265 68.8399 8.27453 69.8629 8.11753 70.5472C7.98015 71.1694 7.76428 71.629 7.46991 71.9263C7.18207 72.2166 6.78303 72.3721 6.27278 72.3929C6.12233 72.3929 6.03074 72.3894 5.99803 72.3825Z" fill="#F8F8F8"/>
<path d="M14.0594 72.3825H13.3038L16.3653 65.0829H17.0424L20.1137 72.3825H19.3483L18.4946 70.3813H14.8934L14.0594 72.3825ZM16.6989 66.0472L15.1387 69.7074H18.2591L16.6989 66.0472Z" fill="#F8F8F8"/>
<path d="M22.0951 72.3825H21.369V65.1244H25.971V65.8191H22.0951V72.3825Z" fill="#F8F8F8"/>
<path d="M27.4223 66.0783C28.083 65.3594 28.9072 65 29.895 65C30.8763 65 31.6973 65.3594 32.358 66.0783C33.0187 66.7972 33.349 67.6889 33.349 68.7535C33.349 69.8249 33.0187 70.72 32.358 71.4389C31.7038 72.1509 30.8828 72.5069 29.895 72.5069C28.9007 72.5069 28.0765 72.1509 27.4223 71.4389C26.7681 70.727 26.441 69.8318 26.441 68.7535C26.441 67.682 26.7681 66.7903 27.4223 66.0783ZM27.962 70.9205C28.4788 71.5012 29.1231 71.7915 29.895 71.7915C30.6669 71.7915 31.3113 71.5012 31.8281 70.9205C32.3514 70.3329 32.6131 69.6106 32.6131 68.7535C32.6131 67.8963 32.3514 67.174 31.8281 66.5864C31.3113 66.0058 30.6669 65.7154 29.895 65.7154C29.1231 65.7154 28.4788 66.0058 27.962 66.5864C27.4386 67.174 27.177 67.8963 27.177 68.7535C27.177 69.6106 27.4386 70.3329 27.962 70.9205Z" fill="#F8F8F8"/>
<path d="M36.9314 72.3825H36.2053V65.8191H33.8405V65.1244H39.3257V65.8191H36.9314V72.3825Z" fill="#F8F8F8"/>
<path d="M43.9168 72.3825H40.6394V65.1244H43.6126C44.221 65.1244 44.7018 65.2834 45.055 65.6014C45.4083 65.9124 45.5849 66.341 45.5849 66.8871C45.5849 67.2604 45.5031 67.5818 45.3396 67.8514C45.1826 68.121 44.9634 68.3111 44.6821 68.4217C45.1401 68.4977 45.5031 68.7085 45.7713 69.0541C46.0395 69.3998 46.1736 69.8353 46.1736 70.3606C46.1736 70.9758 45.9708 71.4666 45.5653 71.8329C45.1597 72.1993 44.6102 72.3825 43.9168 72.3825ZM41.3655 68.8675V71.6878H43.7892C44.2994 71.6878 44.6952 71.5634 44.9765 71.3145C45.2578 71.0657 45.3984 70.7166 45.3984 70.2673C45.3984 69.8249 45.2578 69.4827 44.9765 69.2408C44.6952 68.9919 44.2994 68.8675 43.7892 68.8675H41.3655ZM41.3655 65.8191V68.1935H43.4948C43.9331 68.1935 44.27 68.0933 44.5055 67.8929C44.7476 67.6924 44.8686 67.4021 44.8686 67.0219C44.8686 66.6348 44.7476 66.3376 44.5055 66.1302C44.27 65.9228 43.9331 65.8191 43.4948 65.8191H41.3655Z" fill="#F8F8F8"/>
<path d="M48.3121 66.0783C48.9729 65.3594 49.7971 65 50.7849 65C51.7661 65 52.5871 65.3594 53.2478 66.0783C53.9085 66.7972 54.2389 67.6889 54.2389 68.7535C54.2389 69.8249 53.9085 70.72 53.2478 71.4389C52.5937 72.1509 51.7727 72.5069 50.7849 72.5069C49.7906 72.5069 48.9663 72.1509 48.3121 71.4389C47.658 70.727 47.3309 69.8318 47.3309 68.7535C47.3309 67.682 47.658 66.7903 48.3121 66.0783ZM48.8518 70.9205C49.3686 71.5012 50.013 71.7915 50.7849 71.7915C51.5568 71.7915 52.2012 71.5012 52.7179 70.9205C53.2413 70.3329 53.5029 69.6106 53.5029 68.7535C53.5029 67.8963 53.2413 67.174 52.7179 66.5864C52.2012 66.0058 51.5568 65.7154 50.7849 65.7154C50.013 65.7154 49.3686 66.0058 48.8518 66.5864C48.3285 67.174 48.0668 67.8963 48.0668 68.7535C48.0668 69.6106 48.3285 70.3329 48.8518 70.9205Z" fill="#F8F8F8"/>
<path d="M56.6304 72.3825H55.9043V65.1244H58.7892C59.4695 65.1244 60.0059 65.3076 60.3984 65.674C60.7909 66.0403 60.9872 66.5276 60.9872 67.1359C60.9872 67.7581 60.7909 68.2558 60.3984 68.629C60.0059 68.9954 59.4695 69.1786 58.7892 69.1786H56.6304V72.3825ZM56.6304 65.8191V68.4839H58.7401C59.2242 68.4839 59.6004 68.3698 59.8686 68.1417C60.1368 67.9067 60.2709 67.5783 60.2709 67.1567C60.2709 66.7281 60.1368 66.3998 59.8686 66.1717C59.6069 65.9366 59.2308 65.8191 58.7401 65.8191H56.6304Z" fill="#F8F8F8"/>
<path d="M63.0384 72.3825H62.43V65.1244H63.1463V71.0968L67.4147 65.1244H68.0526V72.3825H67.3363V66.3894L63.0384 72.3825Z" fill="#F8F8F8"/>
<path d="M72.4538 72.3825H71.7276V65.8191H69.3628V65.1244H74.848V65.8191H72.4538V72.3825Z" fill="#F8F8F8"/>
<path d="M81.0189 72.3825H76.1617V65.1244H80.8717V65.8191H76.8879V68.1417H80.1554V68.8364H76.8879V71.6878H81.0189V72.3825Z" fill="#F8F8F8"/>
<path d="M81.5944 72.3825V71.6774C81.6598 71.6912 81.7514 71.6982 81.8691 71.6982C82.1701 71.6982 82.4088 71.5876 82.5855 71.3664C82.7686 71.1452 82.9158 70.8237 83.027 70.4021C83.1055 70.1187 83.1579 69.8076 83.184 69.4689C83.2233 69.0818 83.2527 68.7154 83.2723 68.3698C83.2854 68.1141 83.2985 67.6924 83.3116 67.1048L83.3508 65.1244H87.6487V72.3825H86.9226V65.8191H84.0573L84.0083 67.4781C83.969 68.8399 83.8709 69.8629 83.7139 70.5472C83.5765 71.1694 83.3606 71.629 83.0663 71.9263C82.7784 72.2166 82.3794 72.3721 81.8691 72.3929C81.7187 72.3929 81.6271 72.3894 81.5944 72.3825Z" fill="#F8F8F8"/>
<path d="M92.3542 72.3825H89.5772V65.1244H90.3034V67.8306H92.3542C93.1326 67.8306 93.7345 68.0415 94.1597 68.4631C94.598 68.8848 94.8171 69.4343 94.8171 70.1118C94.8171 70.803 94.598 71.356 94.1597 71.7707C93.7214 72.1786 93.1195 72.3825 92.3542 72.3825ZM90.3034 68.5253V71.6878H92.3051C92.8677 71.6878 93.306 71.553 93.62 71.2834C93.934 71.0069 94.091 70.6164 94.091 70.1118C94.091 69.6071 93.934 69.2166 93.62 68.9401C93.3125 68.6636 92.8742 68.5253 92.3051 68.5253H90.3034Z" fill="#F8F8F8"/>
<path d="M96.9824 72.3825H96.2562V65.1244H96.9824V68.1417H101.064V65.1244H101.79V72.3825H101.064V68.8364H96.9824V72.3825Z" fill="#F8F8F8"/>
<path d="M104.418 66.0783C105.078 65.3594 105.903 65 106.89 65C107.872 65 108.693 65.3594 109.353 66.0783C110.014 66.7972 110.344 67.6889 110.344 68.7535C110.344 69.8249 110.014 70.72 109.353 71.4389C108.699 72.1509 107.878 72.5069 106.89 72.5069C105.896 72.5069 105.072 72.1509 104.418 71.4389C103.764 70.727 103.436 69.8318 103.436 68.7535C103.436 67.682 103.764 66.7903 104.418 66.0783ZM104.957 70.9205C105.474 71.5012 106.119 71.7915 106.89 71.7915C107.662 71.7915 108.307 71.5012 108.824 70.9205C109.347 70.3329 109.609 69.6106 109.609 68.7535C109.609 67.8963 109.347 67.174 108.824 66.5864C108.307 66.0058 107.662 65.7154 106.89 65.7154C106.119 65.7154 105.474 66.0058 104.957 66.5864C104.434 67.174 104.172 67.8963 104.172 68.7535C104.172 69.6106 104.434 70.3329 104.957 70.9205Z" fill="#F8F8F8"/>
<path d="M116.867 72.3825H112.01V65.1244H116.72V65.8191H112.736V68.1417H116.004V68.8364H112.736V71.6878H116.867V72.3825Z" fill="#F8F8F8"/>
<path d="M120.746 74H120.069V71.6878H120.717C121.142 71.0588 121.446 70.3226 121.629 69.4793C121.819 68.6221 121.914 67.4608 121.914 65.9954V65.1244H126.153V71.6878H127.193V74H126.516V72.3825H120.746V74ZM121.531 71.6878H125.427V65.8191H122.63V66.3065C122.63 68.7811 122.264 70.5749 121.531 71.6878Z" fill="#F8F8F8"/>
<path d="M131.769 72.3825H128.492V65.1244H131.465C132.073 65.1244 132.554 65.2834 132.907 65.6014C133.261 65.9124 133.437 66.341 133.437 66.8871C133.437 67.2604 133.355 67.5818 133.192 67.8514C133.035 68.121 132.816 68.3111 132.535 68.4217C132.992 68.4977 133.355 68.7085 133.624 69.0541C133.892 69.3998 134.026 69.8353 134.026 70.3606C134.026 70.9758 133.823 71.4666 133.418 71.8329C133.012 72.1993 132.463 72.3825 131.769 72.3825ZM129.218 68.8675V71.6878H131.642C132.152 71.6878 132.548 71.5634 132.829 71.3145C133.11 71.0657 133.251 70.7166 133.251 70.2673C133.251 69.8249 133.11 69.4827 132.829 69.2408C132.548 68.9919 132.152 68.8675 131.642 68.8675H129.218ZM129.218 65.8191V68.1935H131.347C131.786 68.1935 132.122 68.0933 132.358 67.8929C132.6 67.6924 132.721 67.4021 132.721 67.0219C132.721 66.6348 132.6 66.3376 132.358 66.1302C132.122 65.9228 131.786 65.8191 131.347 65.8191H129.218Z" fill="#F8F8F8"/>
<path d="M136.22 72.3825H135.612V65.1244H136.328V71.0968L140.596 65.1244H141.234V72.3825H140.518V66.3894L136.22 72.3825Z" fill="#F8F8F8"/>
<path d="M142.858 65.1244H143.781L146.656 68.3491V65.1244H147.382V68.3698L150.277 65.1244H151.199L148.118 68.5668L151.592 72.3825H150.62L147.382 68.8157V72.3825H146.656V68.8364L143.437 72.3825H142.476L145.94 68.5668L142.858 65.1244Z" fill="#F8F8F8"/>
<path d="M157.708 72.3825H152.85V65.1244H157.56V65.8191H153.577V68.1417H156.844V68.8364H153.577V71.6878H157.708V72.3825Z" fill="#F8F8F8"/>
<path d="M159.853 72.3825H159.127V65.1244H159.853V68.1417H163.935V65.1244H164.661V72.3825H163.935V68.8364H159.853V72.3825Z" fill="#F8F8F8"/>
<path d="M167.2 72.3825H166.592V65.1244H167.308V71.0968L171.577 65.1244H172.214V72.3825H171.498V66.3894L167.2 72.3825Z" fill="#F8F8F8"/>
<path d="M179 72.3825H174.143V65.1244H178.853V65.8191H174.869V68.1417H178.137V68.8364H174.869V71.6878H179V72.3825Z" fill="#F8F8F8"/>
</svg>
