<svg width="24" height="24" viewBox="0 0 24 24" fill="none" xmlns="http://www.w3.org/2000/svg">
<path fill-rule="evenodd" clip-rule="evenodd" d="M13.7417 2.69486C14.6141 2.56481 15.5074 2.60742 16.3666 2.82286L16.3666 2.82286C17.5025 3.1077 18.5783 3.69457 19.4653 4.58153L18.9758 5.07107L19.4653 4.58153C20.3522 5.46849 20.9392 6.54431 21.224 7.68028C21.4394 8.5395 21.482 9.43267 21.352 10.3051C21.2956 10.6833 20.9433 10.9442 20.5652 10.8878C20.187 10.8314 19.9261 10.4791 19.9825 10.101C20.0858 9.40808 20.0519 8.69872 19.8809 8.01704L19.8809 8.01702C19.6554 7.11742 19.1911 6.26549 18.4862 5.5606C17.7813 4.85573 16.9294 4.39147 16.0298 4.1659C15.3481 3.99497 14.6387 3.96105 13.9458 4.06434C13.5677 4.12071 13.2154 3.85984 13.159 3.48167C13.1027 3.10349 13.3635 2.75123 13.7417 2.69486Z" fill="#1C1B1E"/>
<path fill-rule="evenodd" clip-rule="evenodd" d="M13.9136 5.99832C14.9597 5.84238 16.0666 6.16713 16.8738 6.9742L16.8738 6.97422C17.6809 7.78134 18.0056 8.88838 17.8496 9.93445C17.7933 10.3126 17.441 10.5735 17.0628 10.5171C16.6847 10.4607 16.4238 10.1085 16.4802 9.7303C16.5742 9.09952 16.3784 8.43702 15.8947 7.95331C15.8947 7.9533 15.8947 7.9533 15.8947 7.95329M15.8947 7.95329C15.4109 7.46955 14.7485 7.27378 14.1177 7.36781C13.7395 7.42418 13.3873 7.16331 13.3309 6.78514C13.2745 6.40697 13.5354 6.0547 13.9136 5.99832" fill="#1C1B1E"/>
<path fill-rule="evenodd" clip-rule="evenodd" d="M5.67805 5.44348C4.91839 5.44348 4.44453 6.1242 4.66154 6.76736C5.43966 9.07346 6.88968 12.5426 9.05215 14.705L9.05216 14.705C11.2146 16.8675 14.6837 18.3175 16.9898 19.0957L16.9899 19.0957C17.633 19.3127 18.3137 18.8388 18.3137 18.0791V15.7375C18.3137 15.6537 18.2683 15.5766 18.1951 15.5359L18.1951 15.5358L16.1554 14.4018C16.0888 14.3648 16.0082 14.3631 15.9401 14.3971L15.94 14.3972L13.7649 15.4847C13.6288 15.5527 13.4742 15.5741 13.3248 15.5454L13.4553 14.8655C13.3248 15.5454 13.3246 15.5454 13.3244 15.5453L13.3239 15.5452L13.3229 15.545L13.3203 15.5445L13.3133 15.5431L13.2924 15.5388C13.2755 15.5352 13.2525 15.5301 13.224 15.5234C13.1671 15.5099 13.0879 15.4898 12.9903 15.4616C12.7953 15.4054 12.5252 15.3164 12.2113 15.1826C11.5862 14.9162 10.7702 14.465 10.0312 13.726L10.0312 13.726C9.2923 12.9871 8.83983 12.1699 8.5722 11.5439C8.43779 11.2295 8.34811 10.9589 8.29134 10.7636C8.26291 10.6658 8.24261 10.5865 8.22899 10.5295C8.22219 10.501 8.21704 10.478 8.21338 10.4611L8.20899 10.4402L8.20758 10.4332L8.20707 10.4307L8.20686 10.4296L8.20677 10.4291C8.20672 10.4289 8.20668 10.4287 8.88625 10.2965L8.20668 10.4287C8.17753 10.2788 8.19874 10.1235 8.26703 9.98689L9.35479 7.81138L9.35481 7.81134C9.38885 7.74327 9.38713 7.66275 9.35015 7.59614L8.22108 5.5623C8.18034 5.48893 8.10306 5.44348 8.0193 5.44348H5.67805ZM9.62057 10.3759C9.62068 10.3763 9.62079 10.3767 9.6209 10.3771C9.66446 10.5269 9.73604 10.7439 9.84535 10.9996C10.0652 11.5138 10.4299 12.1666 11.0103 12.7469C11.0103 12.7469 11.0103 12.7469 11.0103 12.7469M11.0103 12.7469C11.5906 13.3272 12.2418 13.6905 12.7541 13.9088C13.009 14.0174 13.2251 14.0883 13.3742 14.1313C13.3745 14.1314 13.3748 14.1315 13.3751 14.1316L15.3208 13.1587C15.3208 13.1587 15.3208 13.1587 15.3208 13.1587C15.7979 12.9201 16.362 12.9325 16.8282 13.1917L16.5153 13.7546L16.8282 13.1917L18.8678 14.3257C19.3805 14.6106 19.6983 15.1511 19.6983 15.7375V18.0791C19.6983 19.7044 18.1638 20.9531 16.5472 20.4076C14.2121 19.6197 10.4769 18.088 8.07308 15.6841C5.66919 13.2803 4.13749 9.54508 3.3496 7.21004L3.96075 7.00382L3.3496 7.21004C2.80412 5.59342 4.05281 4.05887 5.67805 4.05887H8.0193C8.60615 4.05887 9.14678 4.37718 9.43161 4.89015L9.43164 4.8902L10.5607 6.92411L10.5608 6.92412C10.8194 7.39011 10.8317 7.95379 10.5932 8.4306C10.5932 8.43062 10.5932 8.43063 10.5932 8.43064L9.62057 10.3759" fill="#1C1B1E"/>
</svg>
