<svg width="268" height="196" viewBox="0 0 268 196" fill="none" xmlns="http://www.w3.org/2000/svg">

<path d="M176.237 35.2883C127.903 15.3941 62.8565 18.7267 30.5653 54.1528C-14.5965 103.7 34.9137 168.981 93.3321 181.033C161.376 195.076 230.707 170.015 238.746 115.771C243.908 80.8914 202.966 46.288 176.237 35.2883Z" fill="#E7C0FF"/>
<path d="M200.971 136.763L68.7541 154.341L50.2021 13.937L180.323 0L200.971 136.763Z" fill="#FFF1EE"/>
<path d="M152.32 104.679L151.341 103.419C151.341 103.419 148.818 100.735 143.964 100.542C139.105 100.349 136.517 100.363 135.754 99.6639C134.991 98.9607 134.968 99.4479 136.66 101.3C138.351 103.157 140.006 104.472 142.415 105.424C144.823 106.375 150.252 106.83 150.252 106.83L152.32 104.679Z" fill="#BD6BEF"/>
<path d="M172.945 110.498C173.281 108.085 174.269 106.931 175.919 107.032C176.815 107.069 177.523 107.189 178.038 107.396C181.26 108.83 185.586 110.425 191.014 112.19C193.708 113.284 195.841 114.566 197.408 116.037C200.562 118.689 204.087 121.811 207.985 125.4C209.364 126.738 210.325 127.777 210.867 128.526L211.189 128.949C212.021 130.075 212.683 131.211 213.179 132.351L218.424 150.475C219.178 152.773 220.217 155.067 221.536 157.356C224.96 163.079 229.952 168.567 236.507 173.821L212.085 192.796C208.794 184.623 205.875 177.811 203.338 172.355C202.533 170.916 201.527 169.671 200.313 168.618C198.976 167.349 196.245 165.198 192.122 162.16C191.253 161.374 190.527 160.537 189.948 159.641C189.134 158.505 188.1 156.547 186.841 153.762L183.352 142.698C183.154 142.417 182.97 142.311 182.8 142.376C182.065 143.217 181.421 143.667 180.865 143.727C180.12 143.828 179.21 143.663 178.13 143.231C175.082 141.824 173.106 140.179 172.196 138.285C171.607 136.897 171.396 135.775 171.561 134.906C171.483 134.129 172.154 133.219 173.575 132.176C172.596 130.53 172.118 128.581 172.136 126.32C172.357 125.033 173.143 123.81 174.494 122.656C175.772 121.843 179.504 123.64 185.691 128.053C181.536 123.217 179.463 120.974 179.481 121.319C178.801 120.841 176.328 119.632 172.062 117.706C171.653 117.503 171.102 117.113 170.408 116.534C168.928 115.081 168.16 113.675 168.109 112.328C168.229 110.705 169.842 110.098 172.945 110.498Z" fill="#EE8E77"/>
<path d="M255.606 142.937C255.684 143.267 177.606 116.29 155.832 108.761C156.181 107.754 156.632 106.462 156.944 105.529C178.59 113.661 255.528 142.606 255.606 142.937Z" fill="#2B0C0A"/>
<path d="M151.341 103.419C151.341 103.419 153.405 104.192 156.945 105.525C156.627 106.458 156.182 107.749 155.832 108.756C152.307 107.538 150.252 106.825 150.252 106.825L151.341 103.419Z" fill="#F5B166"/>
<path d="M211.392 135.302C210.886 134.626 210.173 133.932 209.259 133.224C206.096 131.422 204.124 130.144 203.343 129.395C202.341 128.43 201.564 127.602 201.012 126.904L195.515 119.416C195.046 118.846 194.297 118.216 193.276 117.517C193.125 117.292 190.95 116.056 186.758 113.808C185.09 112.939 184.023 112.461 183.568 112.378L183.338 112.387L183.334 112.544C182.318 112.847 181.771 113.091 181.693 113.275C181.408 113.514 181.173 113.803 180.994 114.148C180.631 114.833 180.479 115.72 180.534 116.814C180.778 118.299 181.178 119.429 181.739 120.202C182.203 120.992 182.948 121.87 183.973 122.831L188.004 125.718C188.647 126.205 189.052 126.554 189.217 126.766C190.298 127.85 191.433 129.786 192.624 132.567C193.322 134.368 193.759 135.784 193.934 136.809C194.779 143.838 195.542 148.613 196.227 151.137C197.004 154.267 198.089 156.749 199.482 158.588C199.909 159.121 200.277 159.526 200.58 159.792C201.33 160.546 202.097 161.185 202.874 161.709C204.432 162.757 206.05 163.35 207.728 163.488C209.852 163.46 211.139 163.304 211.598 163.028C213.042 162.275 214.094 161.208 214.761 159.829C215.423 157.972 215.703 156.763 215.602 156.207C215.496 152.309 215.299 149.436 215.023 147.579C214.775 145.695 214.407 143.396 213.915 140.689C213.391 138.749 212.674 137.122 211.755 135.798L211.392 135.302Z" fill="#EE8E77"/>
<path opacity="0.9843" d="M190.638 131.532C190.651 131.546 190.665 131.56 190.674 131.574C190.799 131.735 190.789 131.965 190.642 132.112C190.481 132.277 190.013 132.691 189.24 133.362C189.176 133.426 189.079 133.532 188.946 133.684C188.335 134.525 187.889 135.21 187.613 135.734L186.634 137.917L186.193 139.204C186.055 139.544 185.903 140.284 185.733 141.443C185.701 141.668 185.494 141.82 185.269 141.787C185.158 141.774 185.067 141.714 185.007 141.636C184.942 141.553 184.91 141.438 184.924 141.328C185.099 140.128 185.264 139.333 185.42 138.942L185.866 137.637L185.88 137.6L186.878 135.375L186.887 135.352C187.186 134.787 187.659 134.061 188.303 133.173L188.326 133.146C188.486 132.962 188.606 132.833 188.689 132.755C189.461 132.089 189.911 131.689 190.054 131.537C190.215 131.376 190.472 131.372 190.638 131.532Z" fill="#DF6E60"/>
<path opacity="0.9843" d="M173.607 132.231C173.957 132.631 174.55 133.137 175.386 133.757C175.579 133.863 175.74 133.936 175.901 134.01C176.37 134.162 176.724 134.286 177.014 134.391C177.128 134.405 177.23 134.401 177.303 134.378C178.448 134.065 179.027 133.224 179.054 131.85C178.664 129.395 177.919 127.106 176.825 124.996C176.719 124.794 176.798 124.55 177 124.444C177.179 124.352 177.39 124.403 177.51 124.555C177.524 124.573 177.538 124.596 177.551 124.619C178.687 126.807 179.459 129.179 179.868 131.73L179.873 131.799C179.863 133.348 179.289 134.387 178.163 134.925C179.266 135.49 180.043 135.968 180.456 136.345C181.339 137.145 182.024 137.931 182.511 138.708C182.966 139.434 183.251 140.151 183.361 140.859C183.426 141.452 183.389 141.985 183.274 142.477C183.127 142.325 182.989 142.27 182.856 142.321C182.654 142.555 182.456 142.753 182.263 142.927C182.525 142.362 182.626 141.718 182.548 140.988C182.451 140.39 182.208 139.774 181.812 139.14C181.367 138.427 180.728 137.696 179.9 136.947C179.487 136.57 178.632 136.065 177.34 135.426C177.303 135.407 177.266 135.38 177.234 135.352C177.161 135.32 176.991 135.251 176.738 135.159C176.269 135.067 175.69 134.842 174.991 134.483L174.936 134.451C174.021 133.78 173.368 133.219 172.978 132.769C172.95 132.737 172.932 132.714 172.918 132.691C173.111 132.525 173.318 132.351 173.552 132.176C173.566 132.19 173.575 132.208 173.589 132.222L173.607 132.231Z" fill="#DF6E60"/>
<g opacity="0.9843">
<path d="M181.334 113.353L181.279 113.422C180.401 114.879 180.212 116.322 180.718 117.761C181.178 119.089 181.835 120.303 182.69 121.406C182.906 121.682 183.131 121.948 183.37 122.21L183.402 122.243C184.648 123.341 186.169 124.366 187.967 125.322C187.985 125.405 188.008 125.483 188.054 125.548C188.072 125.607 188.128 125.768 188.201 126.016L188.224 126.081L188.587 126.807C189.254 127.979 189.608 128.614 189.658 128.728C189.667 128.761 189.686 128.788 189.704 128.816C189.824 128.986 189.957 129.206 190.113 129.468L190.136 129.505C190.357 129.799 190.509 130.015 190.591 130.144L191.028 130.838L191.046 130.866C191.341 131.261 191.506 131.491 191.543 131.551C191.874 132.107 192.067 132.438 192.127 132.548C192.076 132.424 192.081 132.314 192.15 132.213C192.099 132.332 192.09 132.465 192.145 132.585L192.83 134.106L193.423 135.637C193.529 135.922 193.602 136.207 193.644 136.497C193.653 136.57 193.685 136.635 193.726 136.685C193.749 136.717 193.786 136.731 193.818 136.754C193.998 137.402 194.172 138.106 194.333 138.901C194.388 139.701 194.692 141.507 195.248 144.306L195.597 147.152C195.602 147.175 196.392 151.578 196.392 151.578C196.457 152.364 197.132 153.904 198.41 156.189C198.419 156.207 198.433 156.225 198.442 156.239C198.567 156.395 198.787 156.446 198.966 156.345C199.164 156.235 199.233 155.986 199.123 155.789C197.882 153.569 197.238 152.134 197.201 151.486L197.197 151.436L196.406 147.041L196.057 144.21L196.052 144.182C195.491 141.342 195.183 139.544 195.137 138.8L195.128 138.744C194.912 137.683 194.682 136.745 194.434 135.931C194.42 135.881 194.397 135.839 194.365 135.798C194.351 135.78 194.328 135.775 194.31 135.761C194.273 135.623 194.232 135.485 194.181 135.352C194.181 135.348 193.579 133.808 193.579 133.808C193.57 133.789 192.913 132.328 192.913 132.328C192.894 132.286 192.885 132.259 192.867 132.226C192.821 132.135 192.614 131.776 192.251 131.16C192.246 131.151 192.242 131.146 192.237 131.137C192.186 131.054 192.012 130.811 191.713 130.406C191.704 130.397 191.276 129.717 191.276 129.717C191.184 129.574 191.033 129.354 190.807 129.055C190.656 128.797 190.522 128.591 190.408 128.416C190.329 128.246 189.966 127.593 189.314 126.448C189.309 126.444 188.973 125.773 188.973 125.773C188.941 125.681 188.923 125.626 188.9 125.557C188.95 125.52 188.992 125.474 189.024 125.414C189.038 125.387 189.047 125.359 189.061 125.327C189.093 125.235 189.116 125.088 189.134 124.895C189.134 124.863 189.139 124.844 189.143 124.826C189.134 124.817 189.061 124.895 189.061 124.895L189.157 124.785C189.194 124.725 189.24 124.656 189.3 124.573L189.488 124.334C189.612 124.164 189.695 124.049 189.75 123.985C189.805 123.916 189.865 123.838 189.939 123.759C190.067 123.608 190.072 123.392 189.952 123.24C189.939 123.222 189.92 123.199 189.897 123.18C189.727 123.033 189.47 123.052 189.323 123.222C189.24 123.318 189.166 123.401 189.107 123.479C189.047 123.557 188.96 123.672 188.849 123.824L188.661 124.063C188.569 124.187 188.5 124.283 188.454 124.366C188.445 124.385 188.431 124.403 188.422 124.426C188.399 124.477 188.376 124.545 188.353 124.619C186.602 123.686 185.135 122.698 183.945 121.645C183.724 121.401 183.522 121.158 183.324 120.91C182.52 119.875 181.904 118.74 181.476 117.494C181.063 116.322 181.21 115.136 181.918 113.927C182.648 113.141 183.241 112.865 183.683 113.086C184.354 113.376 185.797 114.258 188.036 115.752L188.072 115.775L193.244 118.492C193.979 118.961 194.402 119.246 194.512 119.342C194.54 119.379 194.586 119.416 194.636 119.443C194.747 119.517 195.087 119.875 195.652 120.51C195.661 120.519 199.918 126.067 199.918 126.067L199.932 126.085C201.633 128.039 202.837 129.262 203.554 129.758C206.284 131.601 208.164 132.3 209.199 131.859C209.405 131.771 209.502 131.528 209.415 131.321C209.401 131.289 209.382 131.257 209.359 131.229C209.249 131.086 209.051 131.031 208.877 131.105C208.114 131.431 206.491 130.756 204.014 129.082C203.352 128.623 202.198 127.446 200.552 125.557L196.287 119.999L196.268 119.976C195.652 119.287 195.257 118.882 195.092 118.768C194.949 118.634 194.48 118.312 193.676 117.798L193.644 117.779L188.445 115.049C186.183 113.541 184.712 112.64 184.018 112.341C183.246 111.955 182.34 112.291 181.334 113.353ZM188.063 125.552C188.082 125.575 188.091 125.584 188.1 125.598C188.095 125.598 188.086 125.584 188.077 125.571C188.072 125.561 188.068 125.557 188.063 125.552Z" fill="#DF6E60"/>
</g>
<path d="M196.563 150.356C196.563 150.356 194.954 138.515 193.957 135.798C192.959 133.081 191.19 130.241 191.19 130.241C191.19 130.241 190.578 130.999 188.593 133.495C186.602 135.991 185.706 139.374 185.706 139.374C185.706 139.374 185.389 138.8 186.639 137.912C187.885 137.025 190.045 136.437 191.217 138.363C192.389 140.289 196.467 151.923 196.467 151.923L196.563 150.356Z" fill="#DF6E60"/>
<path d="M176.319 129.455L173.23 130.379C173.23 130.379 173.81 133.15 175.138 133.84C175.988 134.281 176.71 133.513 176.926 132.98C177.308 132.052 176.319 129.455 176.319 129.455Z" fill="#DF6E60"/>
<path d="M178.341 139.324C178.341 139.324 180.713 140.004 181.141 141.562C181.504 142.895 180.189 143.511 179.146 143.258C178.098 143.006 177.031 142.38 177.031 142.38L178.341 139.324Z" fill="#DF6E60"/>
<path d="M132.274 173.734C130.638 156.474 114.09 156.809 104.083 130.443C92.932 101.057 56.1866 94.7639 41.1557 112.263C20.1537 136.713 42.9713 176.138 76.0762 189.859C109.181 203.575 134.067 192.612 132.274 173.734ZM97.1885 147.142C95.5935 156.156 82.6724 153.573 84.4283 144.807C86.5335 136.901 98.0481 139.062 97.1885 147.142Z" fill="#DFD4D0"/>
<path d="M79.436 126.697C73.4144 131.643 64.3315 125.874 66.2023 118.34C67.7697 111.312 77.5835 109.648 81.3206 115.991C83.4626 119.512 82.6214 124.159 79.436 126.697Z" fill="#CDB0A1"/>
<path d="M57.2395 133.739C48.2485 140.436 38.4256 127.543 47.1362 120.671C55.6951 114.552 65.4675 126.628 57.2395 133.739Z" fill="#CDB0A1"/>
<path d="M60.4479 157.296C51.3328 164.04 41.6937 150.939 50.3445 144.228C59.0275 138.064 68.6391 150.314 60.4479 157.296Z" fill="#CDB0A1"/>
<path d="M77.303 174.704C68.2063 181.498 58.2638 168.154 67.5076 161.415C76.1769 155.775 85.3609 167.832 77.303 174.704Z" fill="#CDB0A1"/>
<path d="M99.0318 185.023C90.0637 191.803 79.9236 178.579 89.2364 171.734C97.8872 166.085 107.099 178.142 99.0318 185.023Z" fill="#CDB0A1"/>
<path d="M121.445 181.714C112.495 188.448 102.318 175.384 111.649 168.425C120.296 162.789 129.517 174.796 121.445 181.714Z" fill="#CDB0A1"/>
<path d="M85.7519 115.72C85.1038 114.704 81.5966 113.362 79.7993 113.9C79.0087 113.697 77.239 115.109 76.6093 115.426C74.6649 116.483 71.5806 115.343 70.5141 117.568C70.3073 118.358 70.5831 120.758 72.1643 120.785L76.0301 121.282C76.7793 121.438 77.4137 122.275 76.5725 122.973C76.3794 123.107 75.5704 123.451 74.1409 124.008C73.2078 124.555 73.9708 125.607 74.504 126.145C75.1981 126.72 75.8738 127.051 76.5311 127.138L80.1441 126.724C84.2902 126.03 84.6166 126.164 86.1518 124.688L87.3516 122.151C87.3929 119.508 87.4757 117.963 85.7519 115.72Z" fill="#2B0C0A"/>
<path d="M92.3756 122.1C92.1596 121.82 91.8148 121.512 91.5206 121.282L91.2402 121.351C91.1115 121.204 90.9874 121.144 90.8449 121.149C88.3352 121.273 88.2294 124.716 90.1187 125.796C90.9966 126.508 91.9895 125.396 92.4354 125.001C93.4512 124.173 93.0881 123.01 92.3756 122.1Z" fill="#2B0C0A"/>
<path d="M89.8936 118.436C90.5877 120.027 93.3411 118.79 91.576 117.149L90.8957 116.979C90.5647 116.612 90.0361 117.062 89.8385 117.306C89.6592 117.655 89.7649 118.101 89.8936 118.436Z" fill="#2B0C0A"/>
<path d="M54.4493 119.742C52.6659 119.494 50.5146 120.767 51.319 122.564C52.1372 123.571 52.5418 124.155 52.5326 124.311C52.6705 125.23 52.4222 126.384 51.3696 126.476C49.793 126.219 48.7128 126.186 48.1244 126.375C46.6948 126.885 45.7296 127.469 46.2076 128.48C47.0074 129.781 47.8992 131.018 49.2322 131.528C49.747 131.937 53.2634 131.61 53.3691 133.27C51.4753 135.927 55.0745 136.639 56.9729 135.835C57.8738 135.531 58.6874 135.007 59.3999 134.359L62.6359 130.48C62.9853 129.377 62.7646 128.499 62.9853 126.995C62.9807 126.835 62.9393 126.651 62.8566 126.435L61.7626 123.709C60.6042 122.086 60.0205 121.512 58.8391 120.703L59.2712 121.144C57.2763 120.202 55.6675 119.737 54.4493 119.742Z" fill="#DA892E"/>
<path d="M68.6201 152.341C68.5098 151.109 66.8182 149.91 66.4735 149.11C65.9449 148.623 65.6277 148.099 65.0439 147.51L61.7114 144.766L61.4034 144.568C60.1761 144.008 57.7859 144.104 56.1403 144.302C54.7061 144.789 53.5156 145.911 52.4768 147.763C51.4149 149.386 52.6376 151.79 53.0835 152.976C53.3961 153.693 54.8027 154.704 56.0116 155.274C56.5356 155.426 58.5995 155.729 59.2476 156.428C60.291 157.444 61.5183 158.05 62.8973 157.103C63.4213 156.878 63.6833 155.104 64.4877 154.594C66.308 153.734 68.8361 155.329 68.6201 152.341Z" fill="#FFF1EE"/>
<path d="M66.06 160.445C66.5334 161.374 66.7265 161.691 67.0069 162.959C67.4665 163.98 68.464 164.656 68.942 165.267C69.9809 166.094 71.4012 165.396 72.4171 164.83C72.9135 164.334 72.8032 164.072 72.7664 163.116C72.6745 161.888 72.27 161.617 71.0335 160.638C71.0243 160.638 71.153 160.896 71.153 160.896C70.5647 160.27 69.7465 158.979 68.8731 158.652C67.8159 158.174 65.6003 159.153 66.06 160.445Z" fill="#BD6BEF"/>
<path d="M83.858 169.491C83.6282 169.009 83.1777 167.763 83.1777 167.763C82.4652 165.979 81.0357 165.184 78.9074 165.065C78.5857 165.019 78.2915 165.336 77.841 166.062C76.5402 168.884 77.0688 168.88 74.9497 169.983C74.1407 170.369 72.9548 169.932 72.1872 169.753C70.7209 169.726 69.967 171.56 68.8546 171.385C67.7239 171.22 67.5722 170.902 66.4874 170.061C66.0323 169.937 65.4026 169.831 65.3106 169.891C64.2948 171.684 65.2647 173.467 67.4664 176.032C71.4333 178.386 75.8599 179.498 80.6174 175.972C82.2446 174.681 83.0214 172.097 83.8948 169.868C83.9223 169.804 83.9086 169.68 83.858 169.491Z" fill="#BD6BEF"/>
<path d="M102.764 176.883C102.497 175.798 101.744 175.232 101.114 174.194C100.346 172.507 97.9376 171.371 96.5035 171.335C94.4534 171.656 91.9022 172.842 91.6816 174.768C91.1116 176.51 92.7756 176.667 92.7204 177.958C91.6356 180.188 94.0121 183.024 96.1403 181.341C96.4805 180.836 96.7471 179.76 96.8206 179.765C97.8227 178.004 100.323 179.59 101.344 179.052C102.337 178.855 103.031 177.88 102.764 176.883Z" fill="#577F67"/>
<path d="M122.691 176.313C122.314 175.145 121.335 173.706 120.052 173.895C119.51 173.541 118.88 173.647 118.356 173.996C117.671 174.764 116.688 176.304 115.534 176.253C113.851 175.95 112.491 175.09 111.673 176.63C111.558 179.163 112.748 180.197 115.221 181.208C117.437 182.201 119.377 180.923 121.339 179.857C122.245 179.383 122.75 176.731 122.691 176.313Z" fill="#F1553C"/>
<path d="M119.496 172.001C119.749 172.7 119.694 172.92 120.37 173.32C120.875 173.559 121.854 173.922 122.172 173.1C122.351 172.249 122.374 171.284 121.491 170.971C121.114 170.434 120.586 170.355 120.034 170.236C118.862 170.287 118.936 171.141 119.496 172.001Z" fill="#F1553C"/>
<path d="M137.019 64.0217L137.915 64.7756C138.223 64.2791 138.499 63.9574 138.751 63.8057C139.046 63.5805 139.395 63.3874 139.804 63.2173L146.028 61.4982C147.333 61.0569 148.441 60.5743 149.356 60.0503C150.726 59.278 151.824 58.5334 152.647 57.8209C152.895 57.66 153.571 57.0165 154.67 55.8949C155.102 55.4307 155.52 54.9388 155.924 54.4194C158.77 50.618 160.512 47.7359 161.151 45.7823C162.488 41.0846 162.636 37.6647 161.601 35.5135C160.903 35.0814 159.914 35.1917 158.636 35.849L158.145 36.1202L153.608 39.1448L146.961 42.698C145.426 43.7047 143.996 45.0285 142.672 46.6649C141.28 48.3289 140.029 50.7881 138.926 54.0333C138.779 54.47 138.623 55.1227 138.457 55.9868L137.019 64.0217Z" fill="#577F67"/>
<path d="M125.651 96.5796L125.71 96.29C125.876 95.3753 125.949 94.672 125.931 94.1802C125.83 93.0586 125.779 91.8175 125.77 90.4477C125.766 89.7215 125.807 88.8619 125.899 87.8736C125.867 87.4369 125.807 87.129 125.729 86.9497C125.007 85.8327 123.591 85.6535 121.486 86.4027C120.263 86.7796 119.137 87.2715 118.108 87.869L114.545 90.2179C113.185 91.2108 112.086 92.1715 111.24 93.1C109.305 94.9708 107.839 98.0276 106.837 102.266C106.469 104.045 106.276 105.741 106.248 107.345C106.216 108.375 106.262 110.88 106.382 114.856C106.446 116.014 106.565 116.887 106.735 117.471C106.818 117.765 106.915 117.986 107.025 118.138C107.324 118.391 107.517 118.455 107.604 118.335C108.046 118.119 108.482 117.77 108.914 117.283C110.854 114.635 112.003 113.183 112.348 112.93C116.375 109.905 119.05 107.685 120.378 106.26C122.134 104.215 123.265 102.689 123.771 101.677C124.152 100.997 124.488 100.284 124.777 99.5398C125.025 99.0066 125.315 98.0184 125.651 96.5796Z" fill="#577F67"/>
<path d="M143.229 79.733L143.155 79.7835C142.962 79.9306 142.852 80.1375 142.824 80.4133L143.946 81.4383C144.589 81.7831 145.017 82.0681 145.233 82.2887C145.32 82.3439 145.532 82.5645 145.876 82.9506C148.069 86.4119 149.549 88.5861 150.321 89.4732C151.562 90.9166 152.992 92.0703 154.61 92.9345C155.727 93.5274 156.977 93.9182 158.365 94.102C158.733 94.2077 160.526 94.1526 163.743 93.9503C164.939 94.2261 166.63 94.718 168.804 95.4258C169.2 95.5086 169.604 95.5775 170.018 95.6235C171.705 95.8212 172.891 95.7246 173.576 95.3339C174.261 94.8926 174.141 94.0974 173.208 92.9529C172.514 92.0795 171.121 90.5167 169.025 88.2643C167.246 85.75 165.651 83.6815 164.24 82.0543C163.298 81.1349 162.181 80.3122 160.889 79.5859C159.372 78.8412 158.457 78.4551 158.149 78.4321C156.977 78.092 155.69 77.9311 154.279 77.9587C153.553 77.9633 152.831 78.0184 152.114 78.1196C149.14 78.9332 146.175 79.471 143.229 79.733Z" fill="#577F67"/>
<path d="M85.3985 62.8496L85.4169 62.8772C85.4721 62.9462 85.5365 63.0151 85.6054 63.0841L88.8782 64.6193L89.2275 64.8492C89.4712 65.0192 89.7378 65.2169 90.0273 65.4513C91.6591 66.913 92.8589 67.9473 93.6173 68.5403C93.9023 68.7839 94.4355 69.1424 95.2123 69.6159C96.8487 70.5903 98.5035 71.2201 100.181 71.5097C101.505 71.7119 102.852 71.6843 104.217 71.4223L104.934 71.2752C108.019 70.3191 109.761 69.8181 110.156 69.7721C111.319 69.6067 112.188 69.6664 112.762 69.9422L113.397 69.5607C112.753 68.4483 112.183 67.5842 111.677 66.9636C110.487 65.2904 108.308 63.3691 105.136 61.2086C103.114 59.9676 101.266 59.2367 99.5883 59.0252C98.2415 58.7908 96.8212 58.7265 95.3318 58.8322L87.5314 60.1652C86.3546 60.51 85.6238 60.9328 85.3388 61.4431C85.017 61.9119 85.0308 62.3808 85.3985 62.8496Z" fill="#577F67"/>
<path d="M130.74 43.1439L131.121 43.9759C132.123 46.1179 133.001 47.6118 133.75 48.4576L134.78 47.9474L135.97 46.7936L137.019 45.5939C137.667 44.7803 138.223 43.9345 138.678 43.0611C139.593 41.3098 140.117 39.4344 140.255 37.4395C140.346 36.5202 140.296 35.4124 140.103 34.1161C139.97 33.0773 139.593 31.8684 138.981 30.4802C139.013 30.448 138.214 29.1426 136.577 26.5777C136.357 26.1961 135.98 25.2952 135.451 23.8748C135.263 23.4749 135.097 23.19 134.964 23.0107C134.66 22.6705 134.44 22.5142 134.302 22.5418C133.999 22.528 133.764 22.6613 133.599 22.9417C133.406 23.2405 133.217 23.7324 133.038 24.4035C132.417 26.7937 131.857 29.2299 131.355 31.7167C130.174 35.0263 129.59 36.966 129.604 37.536C129.379 39.1632 129.756 41.0294 130.74 43.1439Z" fill="#577F67"/>
<path d="M93.4609 42.5601L93.5069 42.6612C93.8102 43.2864 94.8675 44.863 96.6739 47.3912C97.7128 48.8299 98.6873 50.002 99.602 50.9122C100.356 51.7074 101.487 52.4704 102.981 53.1967C103.688 53.5276 104.442 53.7805 105.242 53.9459C107.632 54.4516 110.422 54.2217 113.612 53.2564V52.1073C113.727 51.3534 113.769 50.6502 113.727 49.9974C113.741 49.8182 113.668 49.3585 113.507 48.6185C113.438 48.3473 113.332 48.0577 113.194 47.7497C111.88 45.0423 109.852 43.3323 107.113 42.6245C106.901 42.5693 106.69 42.5187 106.474 42.4728C104.516 42.2246 102.686 41.9488 100.99 41.65C98.1127 41.1076 96.1959 40.6939 95.2444 40.4089L94.8353 40.3905C94.5779 40.3905 94.3527 40.4181 94.1596 40.4732C93.7229 40.6525 93.5023 40.7904 93.4885 40.8869C93.1437 41.3512 93.1391 41.9074 93.4609 42.5601Z" fill="#577F67"/>
<path d="M109.282 38.1152L109.618 38.7909L109.994 39.4207C110.261 39.8252 110.551 40.1929 110.872 40.5284C111.194 40.864 111.539 41.1674 111.916 41.4386C112.293 41.7098 112.697 41.9488 113.125 42.151L113.791 42.436L114.559 42.0315C115.051 41.6776 115.455 41.2639 115.768 40.7996L116.172 40.0642L116.439 39.246L116.572 38.3496V37.3706L116.434 36.3087L116.163 35.1688L115.759 33.9461C115.262 32.9578 114.66 31.9511 113.952 30.9261C113.598 30.4113 113.221 29.8919 112.817 29.3678C111.76 28.0486 111.098 27.2534 110.826 26.9776L110.367 26.5409C110.073 26.2697 109.801 26.0445 109.553 25.8606C109.305 25.6768 109.075 25.5389 108.873 25.4423C108.501 25.2355 108.142 25.2309 107.802 25.4285C107.669 25.5251 107.586 25.8055 107.554 26.2651C107.517 26.6145 107.544 27.3683 107.646 28.5221C107.793 29.5425 108.032 30.9261 108.367 32.6774L108.721 36.3547C108.781 36.8282 108.969 37.4165 109.282 38.1152Z" fill="#577F67"/>
<path opacity="0.9843" d="M111.641 52.3785C111.696 52.498 111.788 52.6037 111.912 52.6681C113.277 53.3944 114.789 54.4378 116.444 55.7984C117.736 57.0073 118.747 58.1656 119.469 59.2734C119.653 59.5538 120.034 59.6366 120.315 59.4481C120.567 59.2826 120.659 58.9563 120.54 58.6851C120.526 58.6575 120.512 58.6253 120.494 58.5977C119.708 57.398 118.628 56.1569 117.249 54.8745L117.221 54.8515C115.502 53.4403 113.925 52.3509 112.487 51.5833C112.188 51.4224 111.82 51.5373 111.659 51.8361C111.567 52.0108 111.563 52.213 111.641 52.3785Z" fill="#2C523B"/>
<path opacity="0.9843" d="M131.852 55.8122C131.953 56.042 132.197 56.1937 132.459 56.1707C132.794 56.1431 133.047 55.849 133.015 55.5088C132.928 54.4838 132.951 53.7161 133.075 53.2105L133.084 53.1645C133.121 52.9393 133.176 52.7095 133.24 52.4659C133.856 50.402 134.187 49.239 134.229 48.9678C134.376 48.43 134.5 47.7038 134.606 46.7936C134.619 46.6787 134.601 46.5684 134.555 46.4719C134.468 46.2834 134.288 46.1409 134.068 46.1133C133.732 46.0765 133.429 46.3156 133.392 46.6511C133.291 47.5199 133.176 48.2002 133.043 48.6828C133.034 48.715 133.029 48.7472 133.024 48.7794C132.992 48.9954 132.675 50.1124 132.068 52.1303C131.995 52.4061 131.935 52.6589 131.894 52.9071C131.737 53.5461 131.705 54.447 131.802 55.6053C131.806 55.6835 131.825 55.7478 131.852 55.8122Z" fill="#2C523B"/>
<path opacity="0.9843" d="M133.139 78.1563C132.96 78.2667 132.84 78.4689 132.845 78.6942C132.854 79.0297 133.134 79.2963 133.475 79.2871C134.559 79.2549 135.989 79.3285 137.772 79.5078C138.131 79.5537 138.724 79.6778 139.551 79.8755C141.247 80.3995 142.309 80.6891 142.737 80.7442C143.785 80.9557 144.654 81.043 145.338 81.0063C145.444 81.0017 145.541 80.9695 145.623 80.9189C145.812 80.804 145.931 80.5926 145.918 80.3627C145.899 80.0272 145.61 79.7698 145.315 79.7882H145.274C144.686 79.8203 143.914 79.7422 142.948 79.5445L142.907 79.5353C142.544 79.4848 141.532 79.209 139.882 78.6988L139.846 78.6896C138.963 78.4781 138.319 78.3494 137.92 78.2988C136.072 78.115 134.587 78.0414 133.452 78.0736C133.327 78.069 133.226 78.1012 133.139 78.1563Z" fill="#2C523B"/>
<path opacity="0.9843" d="M116.512 73.2334C116.706 73.2839 116.917 73.238 117.078 73.0955C117.331 72.8702 117.349 72.4841 117.124 72.2313C116.26 71.2752 115.717 70.7144 115.487 70.5489C114.26 69.5607 113.424 68.9953 112.973 68.8482C112.964 68.8436 112.95 68.8436 112.941 68.839C112.628 68.7562 112.302 68.9309 112.205 69.2435C112.104 69.5653 112.279 69.91 112.601 70.0111C112.909 70.1077 113.612 70.6041 114.715 71.4958C114.734 71.5142 114.757 71.528 114.78 71.5418C114.936 71.6521 115.414 72.1532 116.218 73.0449C116.296 73.1414 116.402 73.2058 116.512 73.2334Z" fill="#2C523B"/>
<path opacity="0.9843" d="M131.484 79.1354C131.526 79.186 131.572 79.2274 131.631 79.2642C131.916 79.448 132.293 79.3607 132.477 79.0757C132.634 78.8321 132.854 78.2759 133.144 77.4025C134.311 73.546 135.088 71.1097 135.488 70.0801C136.895 66.4534 137.851 64.3297 138.361 63.7184C138.549 63.4885 138.545 63.1622 138.366 62.9415C138.343 62.9094 138.315 62.8818 138.283 62.8588C138.025 62.6428 137.639 62.6795 137.423 62.937C136.83 63.6494 135.805 65.8834 134.348 69.6388C133.939 70.696 133.148 73.1552 131.981 77.021C131.723 77.7932 131.549 78.2621 131.443 78.4184C131.3 78.6482 131.323 78.9332 131.484 79.1354Z" fill="#2C523B"/>
<path d="M119.905 89.1285L119.979 89.2847C120.255 90.0386 120.797 90.7189 121.611 91.3256C122.351 91.9646 123.33 92.4058 124.553 92.6403C125.012 92.7184 125.605 92.7138 126.331 92.6311C128.754 91.9278 129.977 91.6244 130 91.7118C130.266 91.6612 131.443 92.0335 133.521 92.8195C134.159 92.9528 134.624 93.0126 134.918 93.0034C136.003 92.9023 136.968 92.5345 137.805 91.9002C139.482 90.5258 140.719 88.7929 141.523 86.7106C141.647 86.0303 141.693 85.5661 141.661 85.3224C141.358 83.5757 141.229 82.2841 141.275 81.4613C141.289 81.089 141.854 79.7146 142.967 77.3335C143.059 77.0485 143.137 76.6165 143.192 76.0327C143.307 74.9341 143.127 73.7849 142.654 72.5898C142.199 71.6107 141.624 70.912 140.93 70.4892C140.889 70.4432 140.576 70.2961 139.988 70.0479C137.874 69.7261 136.389 69.4043 135.543 69.0826C135.497 69.1975 134.311 68.1771 131.994 66.0258C131.185 65.5478 130.482 65.3088 129.885 65.3134C129.282 65.203 128.455 65.4237 127.398 65.9799L124.148 68.4988C121.238 69.2343 119.124 69.9927 117.809 70.7741C117.138 71.4682 116.568 72.314 116.109 73.3161C115.589 74.4055 115.41 75.5822 115.571 76.8509C115.663 77.6921 115.943 78.5424 116.398 79.4112C116.642 79.8525 117.363 80.6523 118.572 81.806C118.862 82.183 119.06 82.5369 119.161 82.8633C119.257 83.1345 119.317 83.4516 119.349 83.824C119.289 84.9685 119.289 86.1223 119.354 87.2852C119.542 88.177 119.726 88.7929 119.905 89.1285Z" fill="#BD6BEF"/>
<path d="M96.164 89.8686L96.2008 89.9421C96.6834 90.8109 97.4786 91.4222 98.591 91.7853C99.7356 92.1255 101.142 92.0428 102.811 91.5371C102.838 91.482 103.27 91.8497 104.107 92.6495C104.277 92.7552 104.498 92.8334 104.769 92.8748C105.031 92.9391 105.426 92.9161 105.95 92.8104C106.401 92.6127 106.948 92.2726 107.596 91.7808C108.249 91.2843 109.149 90.1857 110.303 88.485C110.625 87.7495 111.126 86.32 111.811 84.1963C112.004 83.4563 112.114 82.445 112.137 81.1626C112.036 80.0548 111.733 78.8872 111.227 77.6645C110.248 75.734 109.154 74.1757 107.941 72.9944C107.187 72.167 105.844 71.1879 103.905 70.0571C102.958 69.5607 101.96 69.2343 100.912 69.0688C100.03 69.0872 99.2483 69.1838 98.5588 69.363C97.2534 69.0275 96.3616 68.8712 95.879 68.8942C95.5802 68.9631 95.2539 69.124 94.8999 69.3722C94.6057 69.625 94.3621 69.9836 94.1645 70.4432C94.0679 70.6915 93.93 71.3028 93.76 72.2819C93.737 72.3738 93.6772 72.4933 93.5853 72.645L90.9606 74.4515C90.5147 75.0123 90.3309 75.5547 90.4044 76.0741C90.478 76.8555 90.9284 77.6094 91.7604 78.3402C92.2798 78.7815 92.7855 79.1584 93.2865 79.471C93.6956 79.7422 94.7069 80.2478 96.3249 80.9879C96.6282 81.1534 96.7983 81.3142 96.8305 81.4751C96.9086 81.6682 96.8994 81.8796 96.8075 82.1095C96.1732 82.8771 95.7871 83.5896 95.64 84.2469C95.6262 84.5319 95.64 84.7433 95.6813 84.8812C96.0813 85.6489 96.2697 86.0993 96.2421 86.2418C96.0215 87.676 95.9066 88.5769 95.902 88.94C95.9847 89.3721 96.0721 89.6801 96.164 89.8686Z" fill="#D58FFF"/>
<path d="M112.909 55.6742L113.01 55.8719C113.208 56.2902 113.566 56.7361 114.095 57.2141L115.929 58.423C116.453 59.9721 116.88 61.0155 117.202 61.5487C117.997 62.56 118.655 63.1667 119.183 63.3598C119.772 63.608 120.323 63.7505 120.834 63.7873C121.459 63.7551 122.544 63.5161 124.088 63.0702L127.393 63.3874C127.466 63.4058 127.83 63.3368 128.487 63.1759C129.071 62.9507 129.471 62.6933 129.677 62.3991L129.958 61.944L130.859 59.7606C130.992 59.4894 131.162 59.2412 131.364 59.0114C131.746 58.6391 132.633 57.9358 134.026 56.9107C134.752 56.1707 135.198 55.6651 135.35 55.3893C135.865 54.3918 136.15 53.4587 136.205 52.5899C136.241 52.1394 136.223 51.689 136.159 51.2431C136.191 51.0179 135.979 50.3468 135.529 49.2252C135.157 48.5357 134.908 48.1266 134.775 48.0025C134.283 47.4463 133.254 46.4304 131.695 44.9687C130.174 42.2981 129.245 40.8777 128.91 40.7076C127.683 39.6596 126.377 39.2919 124.994 39.6045C124.414 39.7516 123.854 40.0044 123.316 40.3629C121.62 41.8614 120.751 42.5739 120.7 42.4957C120.604 42.6152 119.275 43.1393 116.72 44.0816C116.421 44.2149 115.929 44.4815 115.244 44.886C114.564 45.3043 113.98 45.8329 113.502 46.4718C112.67 47.6715 112.238 49.1057 112.201 50.7651C112.141 51.6844 112.187 52.6359 112.339 53.6242C112.376 53.9459 112.564 54.6308 112.909 55.6742Z" fill="#D58FFF"/>
<path d="M120.066 52.7784L120.126 52.9025C120.365 53.307 120.65 53.6426 120.981 53.9092C121.312 54.1988 121.753 54.4286 122.295 54.5987C122.502 54.6538 122.7 54.686 122.897 54.6906C123.026 54.6906 123.123 54.64 123.187 54.5343C123.159 54.5481 123.265 54.5665 123.495 54.5803L123.84 54.5435C124.341 54.4102 124.676 54.2631 124.842 54.116C125.233 53.7943 125.435 53.5874 125.458 53.4863C125.816 52.59 126.009 51.9648 126.037 51.6201C126.101 51.2431 126.111 50.8662 126.069 50.4801C125.991 49.9975 125.931 49.7079 125.885 49.6113C125.826 49.4183 125.752 49.2206 125.66 49.023C125.449 48.646 125.21 48.3703 124.943 48.1864C124.814 48.0807 124.543 47.9703 124.125 47.8508C123.458 47.7267 122.87 47.8416 122.373 48.2002C122.13 48.3473 121.905 48.6139 121.698 49.0138C121.56 49.2712 121.417 49.74 121.266 50.4249C121.238 50.5123 121.192 50.6226 121.123 50.7605C121.017 50.8938 120.732 51.1006 120.268 51.3856C120.121 51.5419 120.029 51.6614 119.992 51.7396C119.873 52.0246 119.9 52.3693 120.066 52.7784Z" fill="#FEFEFE"/>
<path d="M125.964 79.2688L125.982 79.3101C126.138 79.6227 126.327 79.8663 126.547 80.041L128.106 81.1166L129.577 82.4588L129.783 82.6059C129.93 82.7024 130.073 82.7852 130.211 82.8587C130.284 82.9093 130.491 82.9874 130.836 83.0886C131.089 83.1529 131.374 83.1621 131.7 83.1115C131.843 83.0932 132.045 83.0334 132.302 82.9323C132.514 82.8174 132.757 82.6473 133.038 82.4266C133.327 82.1371 133.548 81.7739 133.7 81.3372C134.008 80.257 133.911 79.1538 133.406 78.0231C133.309 77.8024 133.203 77.5956 133.079 77.3979C133.038 77.2876 132.817 77.0164 132.422 76.5843C132.086 76.2534 131.691 75.9684 131.236 75.7294C131.075 75.642 130.905 75.5639 130.73 75.5041C130.556 75.4444 130.376 75.3984 130.193 75.3616L129.912 75.3203C129.535 75.2835 129.135 75.2973 128.712 75.3708C128.331 75.4444 127.995 75.5317 127.71 75.6328C127.641 75.6558 127.503 75.7294 127.297 75.8581C127.136 75.9684 126.984 76.0925 126.846 76.2442L126.166 77.0946C125.734 77.8622 125.669 78.5839 125.964 79.2688Z" fill="#FEFEFE"/>
<path opacity="0.9843" d="M106.888 77.8852C106.883 77.876 106.878 77.8622 106.874 77.853C106.865 77.83 106.851 77.8071 106.832 77.7841C106.8 77.7427 106.759 77.7059 106.713 77.6737C106.566 77.5726 106.336 77.5221 106.023 77.5129H105.991C103.477 77.7059 101.666 77.7427 100.558 77.6186C99.5605 77.5404 98.678 77.2646 97.892 76.8004C97.1059 76.3269 96.5589 75.7891 96.251 75.1778C96.2326 75.1456 96.2188 75.1134 96.205 75.0859C96.1498 74.9663 96.1131 74.8376 96.0809 74.6997C96.0257 73.7528 95.9016 72.976 95.7132 72.3646C95.6764 72.2222 95.6212 72.0797 95.5569 71.9372C95.4236 71.643 95.2443 71.3534 95.0099 71.0592C94.8168 70.8202 94.5134 70.5812 94.1871 70.3973C94.1595 70.4616 94.1227 70.5444 94.086 70.6501C94.0538 70.7558 94.0078 70.9673 94.0078 71.0041C94.2376 71.1419 94.3985 71.2798 94.5318 71.4407C94.7341 71.6935 94.8904 71.9418 95.0007 72.1854C95.0512 72.3049 95.0972 72.4198 95.1248 72.5347C95.3041 73.1139 95.419 73.8585 95.4741 74.7779L95.4787 74.8238C95.5155 75.0077 95.5707 75.1778 95.6442 75.3341C95.6626 75.3754 95.681 75.4168 95.704 75.4582C96.0671 76.1707 96.6876 76.7958 97.5748 77.3244C98.4436 77.8392 99.418 78.138 100.498 78.2253C101.647 78.3494 103.491 78.3173 106.037 78.1196C105.867 78.2253 105.61 78.3357 105.27 78.4644C102.654 79.0297 101.206 79.3975 100.921 79.5676C100.163 79.8985 99.7306 80.2846 99.6341 80.7305C99.5789 81.0385 99.6111 81.3097 99.7214 81.5625C99.8133 81.7693 99.9604 81.9578 100.163 82.1325C100.471 82.4496 101.1 82.7438 102.052 83.0288C102.125 83.0978 102.181 83.1667 102.213 83.2449C102.217 83.254 102.217 83.2586 102.222 83.2678C102.259 83.4149 102.259 83.562 102.231 83.7137C101.877 85.2766 101.643 86.4349 101.537 87.1842C101.468 87.6162 101.45 88.1081 101.477 88.6597C101.583 89.6434 101.781 90.4432 102.066 91.0775C102.25 91.4866 102.47 91.8267 102.723 92.0979C102.838 92.2221 103.031 92.2267 103.155 92.1117C103.252 92.0198 103.275 91.8773 103.224 91.7624C103.21 91.7302 103.192 91.7026 103.169 91.6797C102.957 91.4544 102.774 91.1694 102.622 90.8293C102.364 90.2593 102.19 89.5192 102.089 88.6137C102.066 88.1127 102.079 87.6668 102.144 87.2853C102.25 86.5498 102.475 85.4053 102.829 83.8562C102.879 83.6034 102.875 83.3644 102.824 83.1345L102.815 83.107C102.801 83.0702 102.787 83.0334 102.774 83.0012C102.682 82.7944 102.535 82.6243 102.332 82.4956C102.309 82.4818 102.282 82.468 102.254 82.4588C101.362 82.1968 100.806 81.944 100.59 81.705L100.563 81.6774C100.438 81.5717 100.347 81.4522 100.287 81.3281C100.222 81.1856 100.204 81.0293 100.232 80.8592C100.291 80.6248 100.599 80.3904 101.156 80.1559C101.202 80.1375 101.243 80.1054 101.275 80.064C101.615 79.9261 102.985 79.5951 105.394 79.0757L105.435 79.0619C106.198 78.7769 106.653 78.5195 106.809 78.2897C106.906 78.1564 106.929 78.0231 106.888 77.8852Z" fill="#FEFEFE"/>
<g opacity="0.9843">
<path d="M100.788 85.9154C100.838 85.8603 100.87 85.8189 100.889 85.7775C100.903 85.7546 100.916 85.7224 100.93 85.6856C100.935 85.6672 100.939 85.6488 100.944 85.6213C100.972 85.6121 100.99 85.5937 100.995 85.5799C101.004 85.5615 101.013 85.5477 101.022 85.5293C101.031 85.5063 101.036 85.4925 101.036 85.4879C101.05 85.5201 101.054 85.5477 101.059 85.5753C101.059 85.5891 101.059 85.6029 101.059 85.6167C101.054 85.6488 101.05 85.6626 101.045 85.6764C101.045 85.681 101.022 85.7178 101.022 85.7178C101.004 85.7408 100.99 85.7637 100.972 85.7867C100.953 85.8097 100.935 85.8281 100.916 85.8465C100.898 85.8649 100.88 85.8787 100.857 85.8925L100.824 85.9108L100.792 85.9292C100.788 85.9154 100.788 85.9154 100.788 85.9154ZM99.4408 86.1223L99.4592 86.1637C99.5098 86.2694 99.5971 86.3797 99.7258 86.49C99.7948 86.5406 99.8683 86.5865 99.9419 86.6233C100.015 86.6601 100.094 86.6923 100.172 86.7152L100.291 86.7428C100.631 86.798 100.953 86.7428 101.252 86.5819C101.339 86.536 101.417 86.4808 101.491 86.4165L101.592 86.3153C101.721 86.1591 101.804 86.0028 101.849 85.8419C101.891 85.704 101.909 85.5661 101.9 85.4328C101.9 85.3133 101.863 85.1708 101.785 85.0053C101.702 84.8352 101.583 84.6881 101.422 84.5548C101.33 84.4813 101.238 84.4215 101.146 84.3756L101.004 84.3158C100.71 84.2101 100.402 84.2239 100.075 84.3572C99.9787 84.3986 99.8959 84.4537 99.8224 84.5181L99.7212 84.6238C99.6569 84.6973 99.6063 84.7847 99.565 84.8812C99.5236 84.9777 99.4914 85.088 99.473 85.203L99.45 85.3868C99.4179 85.442 99.3903 85.5293 99.3765 85.6626C99.3719 85.7775 99.3719 85.8465 99.3765 85.8695C99.3811 85.9568 99.4041 86.0395 99.4408 86.1223Z" fill="#FEFEFE"/>
</g>
<g opacity="0.9843">
<path d="M100.793 85.2904L100.816 85.3041C100.82 85.3041 100.793 85.2904 100.793 85.2904ZM100.227 85.5661C100.241 85.5983 100.259 85.6259 100.287 85.6535C100.351 85.7178 100.42 85.7776 100.503 85.8236C100.595 85.8833 100.692 85.9201 100.788 85.9431L100.829 85.9477C100.862 85.9523 100.889 85.9523 100.912 85.9523C100.986 85.9523 101.05 85.9339 101.105 85.9017C101.16 85.8879 101.206 85.8557 101.248 85.819C101.294 85.7776 101.33 85.7224 101.358 85.6581C101.367 85.6351 101.372 85.6075 101.376 85.5799C101.386 85.511 101.376 85.4512 101.353 85.4007C101.321 85.3317 101.266 85.2766 101.183 85.2306C101.165 85.2214 101.151 85.2122 101.137 85.2076C101.073 85.18 101.013 85.1662 100.954 85.1662C100.889 85.1662 100.834 85.18 100.779 85.203L100.737 85.226C100.613 85.1065 100.42 85.1019 100.301 85.2214C100.195 85.3133 100.172 85.4512 100.227 85.5661Z" fill="#FEFEFE"/>
</g>
<path opacity="0.9843" d="M98.0388 82.0865L98.0802 82.1738C98.2365 82.4634 98.4525 82.684 98.7375 82.8403C99.0271 82.9966 99.3213 83.0472 99.6292 82.992C100.038 82.9001 100.337 82.73 100.526 82.4864C100.572 82.4312 100.604 82.3806 100.631 82.3301L100.668 82.2519C100.686 82.2014 100.7 82.1508 100.709 82.0957C100.723 81.9945 100.709 81.8888 100.659 81.7739C100.608 81.6728 100.53 81.613 100.42 81.5946C100.305 81.5854 100.213 81.6222 100.144 81.7049C100.139 81.59 100.116 81.4935 100.075 81.4245C100.043 81.351 99.9464 81.2039 99.7855 80.9787C99.8683 80.9327 99.9234 80.8546 99.9418 80.7396C99.951 80.6431 99.9188 80.5512 99.8361 80.4776C99.7074 80.3949 99.6063 80.3397 99.5327 80.3076C99.4454 80.2662 99.3626 80.2386 99.2799 80.2156C99.1144 80.1697 98.9581 80.1559 98.8064 80.1789C98.5996 80.211 98.4111 80.303 98.2319 80.4547L98.1216 80.5742C98.0572 80.6569 98.002 80.7534 97.9653 80.8592C97.9285 80.9649 97.9009 81.0844 97.8871 81.2131L97.8779 81.4383C97.8825 81.5211 97.9009 81.6452 97.9423 81.8153C97.9699 81.9072 98.002 81.9991 98.0388 82.0865Z" fill="#FEFEFE"/>
<path opacity="0.9843" d="M96.858 78.3034L96.9362 78.4597C97.097 78.7539 97.2993 78.9608 97.5475 79.0803C97.8371 79.2136 98.1175 79.2274 98.3933 79.1308C98.4852 79.0987 98.5726 79.0573 98.6553 79.0021L98.784 78.9102C98.8667 78.8412 98.9495 78.7631 99.0276 78.6758L99.115 78.5379C99.1931 78.4 99.2391 78.2713 99.2529 78.1518C99.262 78.092 99.262 78.0322 99.2529 77.9771C99.2529 77.9357 99.2299 77.8668 99.1885 77.7794C99.115 77.6461 99.0092 77.5404 98.8805 77.4669C98.8483 77.4485 98.7932 77.4393 98.7105 77.4439C98.6553 77.4577 98.6231 77.4669 98.6139 77.4761C98.5955 77.4852 98.5726 77.499 98.5588 77.5128C98.499 77.4715 98.3703 77.4025 98.1772 77.3198C98.0256 77.2554 97.8877 77.2232 97.7681 77.214C97.7773 77.0807 97.7498 76.9796 97.6808 76.9015C97.5797 76.8003 97.4786 76.7682 97.3774 76.7958C97.2763 76.8187 97.1568 76.9107 97.0235 77.067L96.9362 77.1819C96.8856 77.26 96.8442 77.3473 96.812 77.4347C96.7201 77.7151 96.7385 78.0047 96.858 78.3034Z" fill="#FEFEFE"/>
<path opacity="0.9843" d="M101.017 85.0007C101.04 85.0513 101.072 85.0927 101.118 85.1249C101.256 85.2214 101.449 85.1892 101.546 85.0513C101.573 85.0099 101.606 84.9686 101.642 84.9272L101.969 84.5641C102.01 84.5181 102.024 84.4997 102.024 84.4997C102.199 84.2929 102.295 84.1734 102.318 84.1458C102.369 84.086 102.465 83.9849 102.621 83.8332C102.713 83.7413 102.736 83.6034 102.686 83.4931C102.672 83.4609 102.649 83.4287 102.621 83.4011C102.502 83.2816 102.309 83.2816 102.189 83.4011C102.029 83.562 101.923 83.6723 101.872 83.7321C101.835 83.7689 101.721 83.9114 101.518 84.155C101.514 84.1642 101.183 84.5319 101.183 84.5319C101.132 84.5916 101.086 84.6468 101.049 84.7066C100.985 84.7939 100.976 84.9088 101.017 85.0007Z" fill="#FEFEFE"/>
<path d="M168.859 68.7057C168.721 68.5448 168.473 68.3471 168.114 68.1081C167.779 67.9702 166.905 67.722 165.499 67.3635C165.356 67.3313 165.016 66.9866 164.464 66.3154C164.35 66.2235 164.161 66.127 163.894 66.0305C163.233 65.9017 162.424 65.9799 161.467 66.2649C161.219 66.2603 161.022 66.1821 160.875 66.0351C160.741 65.9431 160.654 65.7225 160.622 65.3777C160.576 63.5988 160.507 62.4681 160.419 61.9854C160.328 61.4017 160.18 60.7857 159.978 60.1376C159.633 59.0896 159.119 58.3771 158.429 58.0048C157.979 57.7336 157.409 57.6922 156.719 57.8806L154.03 59.586C153.855 59.609 153.722 59.6182 153.626 59.6044C152.66 59.3791 152.044 59.2596 151.778 59.255C151.277 59.255 150.849 59.3378 150.505 59.5079C150.137 59.7331 149.861 59.9721 149.682 60.2203C149.475 60.657 149.268 61.5396 149.061 62.868C148.629 63.4288 148.234 64.1137 147.866 64.9135C147.604 65.9385 147.517 66.9866 147.599 68.053C147.88 70.2777 148.252 71.9003 148.716 72.9162C149.328 74.4974 150.33 76.1154 151.723 77.7748C152.651 78.7171 153.603 79.4526 154.586 79.9858C155.777 80.4684 156.751 80.7626 157.505 80.8775C159.725 81.0844 161.238 81.1809 162.042 81.1763C164.06 80.781 165.425 80.3811 166.138 79.9766C166.841 79.5721 167.374 79.2044 167.728 78.8688C168.031 78.4275 168.206 78.0736 168.252 77.807C168.316 77.5404 168.335 77.3106 168.303 77.1129C167.898 76.0327 167.728 75.4903 167.788 75.4857C168.905 74.1527 169.535 72.8886 169.668 71.7027C169.774 70.5351 169.521 69.5607 168.914 68.7792L168.859 68.7057Z" fill="#D58FFF"/>
<path opacity="0.9843" d="M153.626 73.8631C153.617 73.8539 153.608 73.8493 153.603 73.8401C153.585 73.8217 153.571 73.7987 153.557 73.7758C153.534 73.7298 153.516 73.6792 153.502 73.6241C153.47 73.4494 153.506 73.2196 153.626 72.93L153.64 72.9024C154.807 70.6638 155.547 69.0137 155.874 67.9472C156.191 67.0003 156.287 66.0764 156.168 65.1709C156.044 64.2608 155.759 63.5483 155.322 63.0243C155.299 62.9967 155.276 62.9691 155.253 62.9461C155.166 62.8496 155.065 62.7623 154.945 62.6795C154.099 62.2566 153.428 61.8383 152.941 61.4246C152.826 61.3327 152.716 61.2316 152.61 61.1121C152.394 60.8776 152.196 60.5926 152.017 60.2617C151.875 59.9905 151.774 59.6182 151.728 59.2458C151.796 59.2458 151.888 59.2412 151.999 59.255C152.109 59.2642 152.321 59.3102 152.353 59.324C152.389 59.5906 152.454 59.7882 152.55 59.9767C152.702 60.2617 152.872 60.5007 153.051 60.6984C153.139 60.7949 153.231 60.8776 153.323 60.9512C153.787 61.3419 154.426 61.7418 155.249 62.1555L155.285 62.1785C155.437 62.2842 155.575 62.4037 155.694 62.5324C155.727 62.5646 155.754 62.6014 155.782 62.6335C156.297 63.2449 156.623 64.0631 156.765 65.0881C156.899 66.0902 156.793 67.1015 156.448 68.1311C156.113 69.2343 155.354 70.9213 154.178 73.1874C154.343 73.0725 154.545 72.8794 154.798 72.6174C156.343 70.434 157.248 69.2481 157.519 69.0504C158.126 68.4804 158.645 68.2368 159.091 68.3242C159.395 68.3977 159.634 68.531 159.822 68.7287C159.974 68.8941 160.093 69.1056 160.172 69.3584C160.342 69.7629 160.369 70.4616 160.254 71.4499C160.291 71.5464 160.332 71.6199 160.388 71.6843C160.392 71.6889 160.397 71.6981 160.406 71.7027C160.53 71.7946 160.659 71.8498 160.81 71.882C162.387 72.1669 163.545 72.4106 164.272 72.6082C164.695 72.7139 165.154 72.8886 165.651 73.1322C166.51 73.6149 167.172 74.1113 167.646 74.6215C167.949 74.9479 168.174 75.2834 168.326 75.6282C168.395 75.7845 168.321 75.9638 168.17 76.0327C168.046 76.0879 167.908 76.0511 167.82 75.9592C167.797 75.9362 167.779 75.904 167.765 75.8718C167.641 75.5914 167.453 75.311 167.195 75.0352C166.768 74.5756 166.161 74.1205 165.37 73.6746C164.92 73.454 164.506 73.2977 164.125 73.2012C163.408 73.0081 162.268 72.7691 160.7 72.4841C160.447 72.4289 160.227 72.337 160.038 72.1945L160.015 72.1761C159.988 72.1486 159.96 72.121 159.933 72.0934C159.776 71.9279 159.68 71.7257 159.643 71.4912C159.638 71.4637 159.638 71.4315 159.643 71.4039C159.753 70.48 159.739 69.8732 159.602 69.5744L159.588 69.5377C159.537 69.3768 159.468 69.2481 159.372 69.147C159.266 69.032 159.128 68.9539 158.963 68.9125C158.724 68.8758 158.388 69.0642 157.951 69.4871C157.915 69.5239 157.869 69.5469 157.823 69.5607C157.565 69.8181 156.719 70.9488 155.299 72.9622L155.272 72.9989C154.711 73.5873 154.292 73.9045 154.021 73.9596C153.865 73.9918 153.736 73.9596 153.626 73.8631Z" fill="#FEFEFE"/>
<g opacity="0.9843">
<path d="M163.408 71.4085C163.417 71.4177 163.389 71.4407 163.389 71.4407L163.357 71.4591C163.334 71.4729 163.316 71.4821 163.288 71.4959C163.265 71.5051 163.238 71.5143 163.215 71.5235C163.187 71.5327 163.16 71.5372 163.132 71.5418L163.086 71.551C163.072 71.5464 163.059 71.5464 163.045 71.5418C163.013 71.5327 162.999 71.5281 162.985 71.5189C162.962 71.5051 162.934 71.4867 162.911 71.4637C162.916 71.4637 162.93 71.4683 162.957 71.4683C162.976 71.4683 162.999 71.4683 163.017 71.4637C163.031 71.4637 163.054 71.4545 163.086 71.4453C163.1 71.4407 163.123 71.4499 163.141 71.4499C163.183 71.4499 163.219 71.4499 163.242 71.4499C163.288 71.4453 163.339 71.4361 163.394 71.4131C163.408 71.4085 163.408 71.4085 163.408 71.4085ZM164.125 70.2502C164.065 70.1858 163.996 70.1307 163.918 70.0893C163.9 70.0755 163.84 70.0479 163.73 70.0112C163.601 69.9698 163.509 69.9606 163.458 69.9836C163.449 69.9744 163.27 69.9192 163.27 69.9192C163.155 69.8917 163.04 69.8779 162.934 69.8779C162.829 69.8779 162.728 69.8917 162.636 69.9192L162.498 69.9744C162.41 70.0158 162.328 70.0755 162.25 70.1445C162.001 70.3927 161.868 70.6731 161.85 70.9811V71.1373C161.854 71.2431 161.877 71.3534 161.909 71.4637C161.969 71.6614 162.056 71.836 162.181 71.9739C162.305 72.1072 162.42 72.1992 162.53 72.2451C162.649 72.3049 162.783 72.3417 162.925 72.3554C163.091 72.3784 163.27 72.3646 163.463 72.3049L163.592 72.2543C163.679 72.213 163.757 72.1624 163.835 72.1026C164.102 71.8912 164.277 71.6154 164.359 71.2798L164.378 71.1603C164.387 71.0822 164.392 70.9994 164.382 70.9167C164.378 70.834 164.364 70.7512 164.346 70.6639C164.295 70.503 164.231 70.3789 164.153 70.2916L164.125 70.2502Z" fill="#FEFEFE"/>
</g>
<g opacity="0.9843">
<path d="M162.829 71.1695L162.834 71.1971L162.829 71.1695ZM162.962 70.6777C162.806 70.742 162.732 70.9213 162.801 71.0776C162.797 71.0822 162.76 71.1097 162.76 71.1097C162.714 71.1465 162.682 71.1971 162.659 71.2522C162.636 71.312 162.622 71.3763 162.622 71.4407C162.622 71.4545 162.622 71.4683 162.622 71.4821C162.631 71.5832 162.663 71.6613 162.714 71.7165C162.755 71.7579 162.806 71.79 162.87 71.8084C162.893 71.8176 162.921 71.8222 162.948 71.8222C163.022 71.8268 163.086 71.813 163.141 71.7854C163.192 71.7625 163.238 71.7303 163.279 71.6935C163.325 71.6521 163.367 71.6016 163.399 71.5326C163.408 71.5142 163.417 71.4867 163.426 71.4545L163.436 71.4131C163.454 71.312 163.454 71.2109 163.44 71.1005C163.426 71.004 163.403 70.9167 163.367 70.8339C163.353 70.8018 163.335 70.7696 163.312 70.7466C163.22 70.6593 163.086 70.6271 162.962 70.6777Z" fill="#FEFEFE"/>
</g>
<path opacity="0.9843" d="M160.962 67.3773C160.898 67.3083 160.829 67.244 160.751 67.1842C160.613 67.0831 160.503 67.0141 160.429 66.9774L160.218 66.8946C160.094 66.8533 159.974 66.8303 159.859 66.8257C159.744 66.8211 159.638 66.8303 159.533 66.8579L159.381 66.913C159.17 67.0187 159.013 67.1566 158.903 67.3313C158.825 67.46 158.774 67.6117 158.751 67.7818C158.742 67.8645 158.733 67.9565 158.738 68.053C158.738 68.1311 158.747 68.246 158.774 68.3977C158.816 68.5034 158.88 68.5678 158.977 68.6C159.091 68.6276 159.183 68.6092 159.257 68.5494C159.399 68.7838 159.501 68.9309 159.551 68.9907C159.602 69.055 159.675 69.1148 159.781 69.1608C159.68 69.1929 159.606 69.2619 159.574 69.3722C159.547 69.4779 159.57 69.5745 159.643 69.6618C159.73 69.7491 159.822 69.8089 159.919 69.8319C159.969 69.8457 160.02 69.8549 160.075 69.8549H160.158C160.213 69.8503 160.277 69.8411 160.346 69.8181C160.645 69.7399 160.916 69.5331 161.165 69.1929C161.335 68.9355 161.408 68.6413 161.376 68.315C161.344 67.9932 161.224 67.7082 161.017 67.4508L160.962 67.3773Z" fill="#FEFEFE"/>
<path opacity="0.9843" d="M157.947 64.8078C157.717 64.578 157.46 64.4493 157.17 64.4217C157.078 64.4125 156.986 64.4171 156.89 64.4355L156.747 64.4722C156.55 64.5366 156.421 64.6101 156.357 64.6929C156.288 64.7756 156.279 64.8813 156.334 65.0146C156.375 65.1112 156.462 65.1755 156.587 65.2169C156.545 65.3318 156.527 65.4697 156.522 65.6352C156.522 65.8466 156.536 65.9937 156.559 66.0719C156.527 66.0719 156.508 66.0857 156.49 66.0995C156.481 66.104 156.458 66.1316 156.421 66.1776C156.384 66.2465 156.37 66.3017 156.375 66.3385C156.393 66.4856 156.449 66.6235 156.541 66.743C156.605 66.8165 156.66 66.8625 156.697 66.8809C156.747 66.9085 156.798 66.9314 156.858 66.9498C156.973 66.982 157.111 66.9912 157.267 66.9728L157.428 66.9452C157.543 66.9085 157.648 66.8625 157.74 66.8119L157.874 66.7292C157.956 66.674 158.03 66.6097 158.094 66.5361C158.292 66.3201 158.388 66.0581 158.379 65.7409C158.365 65.4651 158.255 65.1985 158.048 64.9365L157.947 64.8078Z" fill="#FEFEFE"/>
<path opacity="0.9843" d="M162.19 71.1695C162.121 71.1833 162.052 71.2016 161.988 71.2246C161.979 71.2292 161.51 71.3855 161.51 71.3855C161.197 71.4774 161.023 71.528 160.977 71.5464C160.903 71.5694 160.761 71.6245 160.549 71.7119C160.393 71.7762 160.319 71.9555 160.379 72.1118C160.393 72.1486 160.411 72.1761 160.439 72.2037C160.522 72.2956 160.659 72.3278 160.779 72.2773C160.981 72.1945 161.11 72.144 161.165 72.1256C161.216 72.1072 161.363 72.0612 161.625 71.9877C161.625 71.9877 161.648 71.9831 161.694 71.9693C161.708 71.9647 162.167 71.8084 162.167 71.8084C162.218 71.7946 162.268 71.7808 162.319 71.767C162.484 71.7303 162.59 71.5694 162.553 71.4039C162.54 71.3487 162.517 71.2982 162.48 71.2614C162.406 71.1879 162.296 71.1465 162.19 71.1695Z" fill="#FEFEFE"/>
<path d="M207.251 196C207.251 196 203.642 187.317 205.72 184.876C207.798 182.431 216.03 183.083 222.934 177.623C229.843 172.162 227.251 167.239 231.856 166.968C236.462 166.696 253.295 184.876 253.295 184.876C253.295 184.876 241.56 190.581 229.986 193.311C218.411 196.046 207.251 196 207.251 196Z" fill="#2B0C0A"/>
</svg>
