<svg width="268" height="196" viewBox="0 0 268 196" fill="none" xmlns="http://www.w3.org/2000/svg">
<rect width="268" height="196" fill="white"/>
<path d="M39.6278 99.5204C35.9209 72.5381 48.7445 40.607 75.0608 32.4156C90.6752 27.5574 97.2091 36.3697 109.487 41.0772C117.034 43.9734 125.201 42.4244 133.423 37.7409C150.342 28.0999 164.362 10.632 182.523 11.3854C191.637 11.7622 199.867 15.7253 207.107 21.126C231.352 39.2087 234.436 77.8001 224.418 115.078C217.085 142.388 172.994 189.15 146.053 189.15L86.7483 176.908C82.098 175.896 47.0176 153.316 39.6278 99.5204Z" fill="#FFEBDA"/>
<path d="M121.478 9.8936C121.478 9.8936 117.362 8.05218 114.426 10.2161C111.488 12.38 111.614 17.2623 114.426 18.8084C114.426 18.8084 112.479 20.2911 113.652 22.6419C114.824 24.9926 118.968 24.188 118.968 24.188C118.968 24.188 125.707 18.1905 125.83 13.926C125.954 9.65852 121.478 9.8936 121.478 9.8936Z" fill="#260E11"/>
<path d="M98.8751 57.5053C105.43 57.5053 110.743 52.1917 110.743 45.637C110.743 39.0824 105.43 33.7688 98.8751 33.7688C92.3204 33.7688 87.0068 39.0824 87.0068 45.637C87.0068 52.1917 92.3204 57.5053 98.8751 57.5053Z" fill="#FFC6A8"/>
<path d="M93.9932 34.8206C93.9932 34.8206 104.936 29.5043 119.155 28.7629C133.374 28.0215 138.847 30.7821 142.509 37.0658C146.171 43.3526 97.0853 44.7721 97.0853 44.7721L93.9932 34.8206Z" fill="#FFC6A8"/>
<path d="M99.8972 79.0207L93.9932 58.3401C93.9932 58.3401 96.0938 39.2388 108.149 38.4944C120.204 37.75 126.081 37.2316 128.92 44.1512C131.759 51.0709 134.577 65.757 134.854 68.5388C135.134 71.3235 99.8972 79.0207 99.8972 79.0207Z" fill="#FFC6A8"/>
<path d="M68.8306 84.7077L106.66 54.597L90.6715 37.0658L61.251 69.5092L68.8306 84.7077Z" fill="#FFC6A8"/>
<path d="M182.475 47.0264C180.727 44.2115 177.553 43.2411 170.775 49.5308C167.177 52.8671 158.045 59.8771 153.952 63.792L143.362 39.1212C143.323 38.9946 143.28 38.8711 143.238 38.7475C143.238 38.7475 143.187 38.5908 143.184 38.5908C141.538 34.0129 137.159 30.7369 132.012 30.7369C125.457 30.7369 120.144 36.0502 120.144 42.6052C120.144 44.2507 120.478 45.8148 121.081 47.2404C121.081 47.2404 131.653 74.512 142.548 85.877C143.747 87.1277 145.058 88.2278 146.641 88.9631C148.717 89.9275 149.829 90.0511 151.469 90.039C155.194 90.0722 159.166 87.9023 161.625 85.0753C165.335 80.8108 179.503 61.2394 183.451 55.5282C187.797 49.2475 184.223 49.8443 182.475 47.0264Z" fill="#FFC6A8"/>
<path d="M153.572 62.906L153.952 63.792C153.102 64.5937 152.276 65.4285 151.481 66.2965C151.086 66.7275 150.447 66.0855 150.842 65.6576C151.722 64.7052 152.629 63.789 153.572 62.906Z" fill="#D69370"/>
<path d="M137.841 76.9502C138.89 76.8869 139.875 77.4475 140.357 78.3787C143.139 83.7493 152.497 102.242 157.638 117.805C160.51 126.5 162.581 134.881 161.993 144.091C161.201 156.49 160.149 167.104 153 177.686C150.972 180.688 148.624 183.545 147.036 186.818C145.749 189.47 145.264 193.113 142.479 194.702C141.252 195.401 139.791 195.521 138.383 195.597C128.754 196.112 118.306 196.618 109.029 193.819C104.918 192.58 101.061 190.202 97.6521 187.565C95.238 185.699 88.442 182.402 87.4113 179.389C86.923 177.963 85.4915 177.086 86.0852 175.362C89.1803 166.351 97.2422 142.268 99.5025 129.52C100.033 126.524 96.8293 112.697 96.9981 105.316C97.203 96.3861 99.2102 85.5696 100.102 81.1695C100.34 79.9881 101.347 79.1171 102.549 79.0448L137.841 76.9502Z" fill="#FF8F27"/>
<path d="M126.84 81.2509C126.738 81.5613 126.632 81.8717 126.527 82.1821C125.333 85.7685 124.058 89.3308 122.705 92.863C115.37 112.055 105.484 131.599 94.0049 148.627C94.2822 147.678 94.915 145.511 95.1803 144.57V144.567C96.1085 143.166 97.0187 141.756 97.9168 140.336C109.408 122.163 118.691 102.628 125.544 82.2545C125.65 81.9471 125.752 81.6397 125.855 81.3323C126.183 81.3081 126.512 81.281 126.84 81.2509Z" fill="#E0822C"/>
<path d="M118.399 103.444C116.343 110.599 113.972 117.657 111.419 124.649C110.72 126.56 110.008 128.468 109.288 130.369C108.571 132.259 107.845 134.143 107.112 136.023C106.386 137.889 105.651 139.751 104.912 141.611C104.177 143.461 103.438 145.309 102.7 147.156C101.962 149.001 101.223 150.845 100.488 152.69C99.7526 154.537 99.0172 156.384 98.2879 158.235C97.5555 160.094 96.8292 161.957 96.1119 163.819C95.3886 165.7 94.6743 167.584 93.9721 169.47C93.0439 171.969 92.1669 174.464 91.329 176.996C91.0668 177.788 90.6419 178.647 90.2441 179.455C90.0633 179.82 89.8674 180.217 89.566 180.501C89.4032 180.654 89.1893 180.769 88.9632 180.769C88.4931 180.769 88.1344 180.326 87.8059 180.049C87.5015 179.786 87.2182 179.5 86.935 179.214C86.5552 178.825 86.1755 178.433 85.7505 178.093C85.3768 177.794 84.8012 177.607 84.5812 177.158C84.2527 176.489 84.7108 175.263 84.8404 174.573C85.0212 173.629 85.2141 172.689 85.422 171.752C85.8108 169.992 86.2508 168.241 86.7481 166.508C87.6462 163.361 88.7251 160.272 89.9728 157.249C91.1844 154.314 92.5526 151.442 93.9993 148.615C100.973 134.987 109.939 123.613 117.519 103.2C117.73 102.661 118.559 102.884 118.399 103.444Z" fill="#E0822C"/>
<path d="M124.125 112.386C123.158 118.45 122.19 124.514 121.111 130.559C119.237 141.044 117.034 151.49 113.938 161.692C112.38 166.824 110.551 171.848 108.553 176.824C108.297 177.46 102.911 190.341 102.658 190.98L101.935 190.546C102.486 189.129 107.956 175.914 108.514 174.503C116.434 154.537 119.885 133.254 123.254 112.145C123.344 111.573 124.215 111.817 124.125 112.386Z" fill="#E0822C"/>
<path d="M120.732 162.288C119.126 167.77 111.428 188.569 109.825 194.051L109.026 193.819C110.654 188.255 118.233 167.611 119.861 162.047C120.024 161.49 120.895 161.731 120.732 162.288Z" fill="#E0822C"/>
<path d="M140.409 79.5421C136.253 80.8169 131.346 81.7783 126.527 82.1821C126.199 82.2093 125.87 82.2334 125.545 82.2545C121.497 82.5287 117.552 82.3961 114.204 81.712C113.634 81.5945 113.894 80.7295 114.46 80.844C117.802 81.5282 121.781 81.6366 125.855 81.3323C126.184 81.3081 126.512 81.281 126.841 81.2509C131.407 80.835 136.039 79.9188 139.99 78.7223C140.119 78.9725 140.258 79.2467 140.409 79.5421Z" fill="#E0822C"/>
<path d="M139.363 77.5198C135.37 78.6861 130.753 79.5632 126.214 79.9429C125.885 79.97 125.557 79.9941 125.231 80.0152C121.184 80.2895 117.239 80.1569 113.89 79.4727C113.321 79.3552 113.58 78.4903 114.147 78.6048C117.489 79.2889 121.467 79.3974 125.542 79.093C125.87 79.0689 126.199 79.0418 126.527 79.0116C130.807 78.6229 135.144 77.7911 138.926 76.7031H138.935C138.935 76.7031 139.086 76.9894 139.363 77.5198Z" fill="#E0822C"/>
<path d="M106.657 111.793C104.803 117.437 102.477 122.862 99.5354 127.992C99.5022 127.446 99.4419 126.967 99.3877 126.25C101.958 121.575 104.11 116.642 105.783 111.551C105.967 111 106.841 111.238 106.657 111.793Z" fill="#E0822C"/>
<path d="M99.8041 32.4698C99.8041 32.4698 105.102 45.7063 103.978 59.5486C103.33 67.5231 96.7451 67.8938 96.7451 67.8938L99.8975 79.0207C99.8975 79.0207 126.606 80.2262 138.938 76.7031C138.938 76.7031 144.131 66.3176 144.779 56.6735C145.427 47.0294 132.353 29.6881 132.353 29.6881L129.038 28.9437C129.038 28.9437 139.493 45.8239 126.789 58.4335C126.789 58.4335 112.353 52.5928 104.656 31.0775C104.656 31.0775 103.122 31.4753 102.637 31.6139C101.908 31.8249 99.8041 32.4698 99.8041 32.4698Z" fill="#FF8F27"/>
<path d="M107.86 55.8538C107.911 56.4324 107.007 56.4264 106.956 55.8538C106.238 47.6563 103.755 39.8325 101.401 31.9846C101.706 31.8912 102.01 31.7978 102.26 31.7224C104.635 39.6547 107.134 47.5628 107.86 55.8538Z" fill="#E0822C"/>
<path d="M103.378 38.5607C107.715 46.8335 112.368 54.5578 119.354 60.8958C119.785 61.2846 120.424 60.6487 119.993 60.2569C113.061 53.9671 108.459 46.3091 104.158 38.1026C103.887 37.5872 103.106 38.0453 103.378 38.5607Z" fill="#E0822C"/>
<path d="M185.7 38.2955H182.264C182.107 38.1749 181.944 38.0544 181.779 37.9428C176.215 34.1395 168.889 34.1395 168.889 34.1395C168.889 34.1395 165.92 37.7861 160.544 36.9513C155.818 36.219 156.677 32.3704 156.954 31.4482H157.021V25.0378H150.887V30.0467C149.07 29.8328 146.87 29.676 144.317 29.673C139.758 29.667 135.942 31.1076 133.426 33.2504H130.177V39.6637H130.18C130.195 40.387 130.33 41.1164 130.593 41.8367C132.726 47.6774 140.701 50.9232 148.211 50.1818C148.211 50.1818 150.065 44.7118 155.167 44.7118C157.964 44.7118 159.82 45.411 160.667 46.6527V50.7394H160.67C160.67 50.7394 166.098 52.1649 177.047 51.3572C183.213 50.9051 185.7 47.9124 185.703 44.7058V38.2955H185.7Z" fill="#965336"/>
<path d="M157.02 25.0017C157.02 25.0017 152.46 23.4375 144.317 23.4255C134.767 23.4104 128.459 29.7454 130.592 35.5891C132.726 41.4298 140.701 44.6756 148.211 43.9342C148.211 43.9342 150.064 38.4642 155.167 38.4642C160.269 38.4642 162.246 40.7818 160.67 44.4918C160.67 44.4918 166.098 45.9173 177.047 45.1096C187.996 44.3049 187.345 35.4957 181.781 31.6923C176.218 27.8889 168.892 27.8889 168.892 27.8889C168.892 27.8889 165.923 31.5356 160.546 30.7007C155.164 29.872 157.02 25.0017 157.02 25.0017Z" fill="#BA764E"/>
<path d="M145.224 30.3873C144.697 31.4843 144.136 32.5633 143.545 33.6271C143.262 34.1364 144.043 34.5915 144.326 34.0822C144.917 33.0183 145.477 31.9394 146.005 30.8424C146.255 30.321 145.477 29.8629 145.224 30.3873Z" fill="#4F2539"/>
<path d="M169.578 33.0907C168.725 34.8598 167.875 36.6289 167.023 38.3979C166.772 38.9193 167.55 39.3774 167.803 38.853C168.656 37.0839 169.506 35.3148 170.359 33.5458C170.609 33.0244 169.831 32.5663 169.578 33.0907Z" fill="#4F2539"/>
<path d="M152.719 36.0683C152.701 35.8483 152.821 35.3329 153.623 35.342C154.575 35.354 155.088 36.3606 154.057 37.1743C152.4 38.4884 148.222 35.1883 145.447 35.4957C142.972 35.7699 143.289 37.7801 144.16 37.6566C144.16 37.6566 144.298 37.1804 144.802 37.1683C145.341 37.1563 145.631 37.6535 144.85 38.0544C144.069 38.4522 142.385 37.9368 142.737 36.6258C143.021 35.568 144.521 34.0551 147.565 34.8718C150.661 35.7036 151.685 36.6952 152.767 36.7735C153.319 36.7735 153.331 36.3697 153.331 36.3697C153.331 36.3697 152.758 36.5113 152.719 36.0683Z" fill="#4F2539"/>
<path d="M155.375 31.1016C155.203 31.2945 154.959 31.7797 155.734 31.9394C156.65 32.1293 157.843 31.3427 157.43 30.3964C156.761 28.8774 150.463 30.9358 148.024 30.0739C145.851 29.3054 147.554 27.5815 148.299 27.8768C148.299 27.8768 148.1 28.3319 148.57 28.4464C149.076 28.573 149.7 28.1873 149.233 27.6689C148.766 27.1475 146.795 27.253 146.216 28.4947C145.749 29.4982 146.129 31.1619 149.61 31.0775C153.151 30.9901 154.824 30.324 155.911 30.4807C156.439 30.5983 156.168 30.9599 156.168 30.9599C156.168 30.9599 155.722 30.7188 155.375 31.1016Z" fill="#4F2539"/>
<path d="M142.689 33.7688L144.501 30.2125L130.131 29.673L129.676 30.8786L142.689 33.7688Z" fill="#4F2539"/>
<path d="M168.903 39.287L209.228 45.3568L210.71 41.8246L171.317 34.1304L168.903 39.287Z" fill="#4F2539"/>
<path d="M143.506 30.9208C160.034 33.8923 176.585 36.7464 193.122 39.6667C198.948 40.6944 204.77 41.7372 210.59 42.783C211.16 42.8855 211.404 42.0145 210.831 41.912C194.304 38.9404 177.752 36.0864 161.215 33.166C155.39 32.1383 149.567 31.0956 143.747 30.0498C143.178 29.9443 142.934 30.8183 143.506 30.9208Z" fill="#FFE7D9"/>
<path d="M142.729 32.078C159.329 35.0617 175.935 37.9971 192.538 40.9627C198.369 42.0024 204.201 43.0482 210.033 44.097C210.602 44.1995 210.846 43.3285 210.274 43.226C193.674 40.2424 177.068 37.3069 160.465 34.3414C154.633 33.3016 148.802 32.2558 142.97 31.2071C142.4 31.1016 142.156 31.9726 142.729 32.078Z" fill="#FFE7D9"/>
<path d="M142.036 33.5458C158.675 36.5354 175.35 39.3051 192.004 42.2044C197.848 43.22 203.685 44.2597 209.523 45.3085C210.093 45.411 210.337 44.54 209.764 44.4376C193.125 41.4479 176.45 38.6782 159.796 35.779C153.952 34.7633 148.114 33.7236 142.277 32.6748C141.707 32.5723 141.463 33.4433 142.036 33.5458Z" fill="#FFE7D9"/>
<path d="M210.71 41.8246C210.71 41.8246 212.437 42.0868 214.514 42.9939C216.738 43.9674 218.085 45.3567 218.085 45.3567C218.085 45.3567 218.362 41.6046 221.795 42.2073C225.225 42.8101 225.586 47.3247 224.161 48.8829C222.678 50.5043 218.968 50.878 216.048 48.6508C213.127 46.4266 212.042 45.7666 209.23 45.3567L210.71 41.8246Z" fill="#BA764E"/>
<path d="M169.593 21.0677L169.104 20.5463L104.119 81.3833L104.607 81.9047L169.593 21.0677Z" fill="#522C2A"/>
<path d="M170.58 22.1176L169.752 21.2331L104.758 82.0701L105.586 82.9546L170.58 22.1176Z" fill="#CCBD9F"/>
<path d="M170.57 22.1108L169.104 20.5443L167.24 22.2888L168.707 23.8552L170.57 22.1108Z" fill="#522C2A"/>
<path d="M142.082 19.1009C144.731 13.8513 142.624 7.44762 137.374 4.79784C132.125 2.14806 125.721 4.25562 123.071 9.50519C120.422 14.7548 122.529 21.1584 127.779 23.8082C133.028 26.458 139.432 24.3505 142.082 19.1009Z" fill="#FFC6A8"/>
<path d="M138.44 28.0705C140.056 23.7559 137.868 18.9483 133.553 17.3325C129.239 15.7168 124.431 17.9047 122.815 22.2194C121.199 26.534 123.387 31.3416 127.702 32.9574C132.017 34.5731 136.824 32.3852 138.44 28.0705Z" fill="#FFC6A8"/>
<path d="M141.795 19.6311C141.795 19.6311 139.622 23.6696 138.642 27.4459L128.046 22.6328L141.795 19.6311Z" fill="#FFC6A8"/>
<path d="M123.603 12.3468C123.603 12.3468 119.125 22.6208 115.382 28.9437C115.382 28.9437 122.811 35.8272 127.558 35.36L129.369 31.6923L123.603 12.3468Z" fill="#FFC6A8"/>
<path d="M138.564 16.0266C138.564 16.0266 128.218 22.9131 120.861 16.0507L121.316 10.2161C121.316 10.2161 124.143 3.95644 130.623 2.85942C137.202 1.74734 142.961 4.62248 143.941 11.3643C144.8 17.2623 141.418 20.3604 141.418 20.3604C141.418 20.3604 138.564 19.2393 138.564 16.0266Z" fill="#260E11"/>
<path d="M121.844 15.0321C119.08 15.6439 119.303 19.7878 120.786 21.7558C121.338 22.4882 122.272 21.8704 123.188 20.8758C124.324 21.1561 125.542 21.1531 126.015 20.4418C127.624 18.0187 125.15 14.2997 121.844 15.0321Z" fill="#FFC6A8"/>
<path d="M92.0314 35.9538C92.0314 35.9538 64.2745 56.1491 56.5713 76.0099L67.8308 91.6334C67.8308 91.6334 96.2357 90.9372 103.839 90.1958C111.443 89.4544 110.675 86.5341 111.693 83.3786C112.712 80.2262 110.211 76.239 101.031 75.1269C91.8506 74.0148 74.6027 72.2517 74.6027 72.2517L92.0314 35.9538Z" fill="#FFC6A8"/>
<path d="M67.8126 91.6304C74.3673 91.6304 79.6809 86.3168 79.6809 79.7621C79.6809 73.2074 74.3673 67.8938 67.8126 67.8938C61.2579 67.8938 55.9443 73.2074 55.9443 79.7621C55.9443 86.3168 61.2579 91.6304 67.8126 91.6304Z" fill="#FFC6A8"/>
<path d="M102.399 75.3258C102.399 75.3258 111.675 74.0751 113.652 75.1269C115.629 76.1787 118.411 79.9248 118.598 80.9766C118.785 82.0284 117.486 83.472 115.629 82.9175C113.776 82.36 112.971 81.1876 112.971 81.1876C112.971 81.1876 114.27 83.8457 114.207 85.8861C114.144 87.9264 113.589 89.4725 111.302 89.2856C111.302 89.2856 111.148 92.0583 108.119 91.8503C108.119 91.8503 105.422 95.94 103.837 90.1958C102.254 84.4515 102.399 75.3258 102.399 75.3258Z" fill="#FFC6A8"/>
<path d="M192.318 39.8295C192.318 39.8295 192.291 38.1598 193.677 37.7258C195.253 37.2316 195.5 38.4672 195.778 39.0851C196.055 39.7029 197.2 45.0192 197.23 46.0409C197.26 47.0595 196.625 49.7478 194.913 50.7092C193.315 51.6073 188.9 52.9093 183.448 55.5343C183.448 55.5343 178.931 54.6331 178.931 51.1402L183.653 48.8376C183.653 48.8376 182.186 46.5653 181.607 45.0343C181.061 43.5876 180.826 42.0928 182.514 41.5955C183.481 41.3092 185.239 42.8282 185.239 42.8282C185.239 42.8282 183.599 40.1067 185.95 38.8711C186.601 38.5305 187.897 39.7993 187.897 39.7993C187.897 39.7993 187.481 37.5269 189.813 36.9875C190.618 36.8006 191.516 37.6656 192.318 39.8295Z" fill="#FFC6A8"/>
<path d="M123.667 29.7815C123.667 29.7815 124.39 34.9622 130.177 36.8278V33.4734C129.556 33.4553 128.179 33.1781 127.555 32.934C125.756 32.2257 124.981 31.4542 123.667 29.7815Z" fill="#D69370"/>
<path d="M130.942 27.7502C131.847 28.9347 133.23 29.6007 134.731 29.447C135.303 29.3897 135.309 28.4826 134.731 28.5429C133.57 28.6604 132.44 28.2355 131.723 27.2952C131.376 26.8371 130.59 27.2891 130.942 27.7502Z" fill="#9E4C29"/>
<path d="M132.06 20.1917C132.711 21.3188 133.965 21.8312 135.225 21.5027C135.788 21.355 135.55 20.484 134.984 20.6317C134.113 20.8577 133.29 20.5142 132.841 19.7366C132.552 19.2333 131.768 19.6884 132.06 20.1917Z" fill="#9E4C29"/>
<path d="M139.842 23.8745C139.73 24.1518 139.622 24.4351 139.513 24.7244C138.916 24.5707 138.398 24.1789 138.112 23.6153C137.847 23.1 138.627 22.6419 138.892 23.1603C139.091 23.546 139.429 23.8082 139.842 23.8745Z" fill="#9E4C29"/>
<path d="M134.399 26.1138C135.228 26.4151 136.258 26.605 136.958 25.9118C137.744 25.1313 137.307 24.0041 137.425 23.0427C137.494 22.4671 136.59 22.4701 136.521 23.0427C136.445 23.6575 136.741 24.4773 136.457 25.0469C136.108 25.7551 135.213 25.4477 134.637 25.2398C134.091 25.0439 133.853 25.9179 134.399 26.1138Z" fill="#9E4C29"/>
<path d="M84.3009 72.3934L83.3546 73.1468C81.6729 72.8997 79.9942 72.8575 78.2914 73.0082C77.7097 73.0594 77.7158 72.1553 78.2914 72.1041C80.3137 71.9293 82.3058 72.0287 84.3009 72.3934Z" fill="#D69370"/>
<path d="M121.199 25.5019C120.862 26.605 119.873 29.2812 118.318 29.1637C116.41 29.019 116.932 25.5622 117.257 24.3989C117.577 23.2537 118.466 20.9843 119.873 20.7402C122.079 20.3604 121.464 24.429 121.199 25.5019C121.057 26.0655 121.931 26.3066 122.07 25.743C122.486 24.0734 122.938 20.3273 120.518 19.8391C118.294 19.39 116.85 22.5002 116.383 24.1608C115.919 25.8124 115.548 29.4108 117.809 30.0407C120.099 30.6796 121.567 27.3735 122.07 25.743C122.242 25.1855 121.368 24.9474 121.199 25.5019Z" fill="#FFD044"/>
<path d="M124.806 17.6902C124.305 16.5631 123.148 15.8549 121.922 15.8699C121.34 15.879 121.34 16.7831 121.922 16.7741C122.859 16.762 123.645 17.2954 124.025 18.1453C124.26 18.6788 125.041 18.2177 124.806 17.6902Z" fill="#D69370"/>
<path d="M122.97 16.4516C121.928 17.1659 121.159 18.3443 121.614 19.6372C121.807 20.1827 122.681 19.9476 122.485 19.3961C122.169 18.4949 122.702 17.7294 123.426 17.2322C123.905 16.9037 123.453 16.1201 122.97 16.4516Z" fill="#D69370"/>
<path d="M188.744 47.8883C188.171 45.836 186.749 44.1482 185.173 42.7077C185.04 42.4545 184.742 41.8126 184.69 41.0923C186.788 42.8372 188.865 44.959 189.615 47.6472C189.772 48.2108 188.898 48.4459 188.744 47.8883Z" fill="#D69370"/>
<path d="M191.688 47.4845C190.938 44.6515 189.663 42.0536 187.891 39.7662C187.891 39.7632 187.891 39.7632 187.891 39.7632C187.873 39.6276 187.812 39.076 188.014 38.4883C190.166 41.038 191.7 43.9975 192.559 47.2464C192.707 47.81 191.836 48.0481 191.688 47.4845Z" fill="#D69370"/>
<path d="M194.425 46.297C193.858 44.0578 193.093 41.8879 192.321 39.7149C192.336 39.4618 192.412 38.847 192.791 38.3467C193.693 40.8963 194.633 43.4339 195.296 46.0559C195.441 46.6225 194.57 46.8606 194.425 46.297Z" fill="#D69370"/>
<path d="M109.02 91.8142C108.755 91.8564 108.456 91.8714 108.122 91.8473C107.703 88.3212 107.775 83.7553 104.225 81.9682C103.704 81.706 104.162 80.9284 104.68 81.1876C108.595 83.1586 108.52 87.9927 109.02 91.8142Z" fill="#D69370"/>
<path d="M114.49 82.4413C113.526 81.9169 113.053 81.2961 112.98 81.1966C112.977 81.1936 112.977 81.1936 112.974 81.1906V81.1876C112.971 81.1846 112.971 81.1846 112.971 81.1846C112.368 79.9188 111.576 78.7826 110.147 78.3305C109.593 78.1557 109.831 77.2847 110.388 77.4595C112.742 78.204 113.607 80.3588 114.49 82.4413Z" fill="#D69370"/>
<path d="M112.203 89.2555C111.938 89.3007 111.639 89.3097 111.305 89.2826C111.181 85.7052 110.834 81.2569 107.308 79.7169C106.775 79.4818 107.236 78.7042 107.763 78.9363C111.612 80.621 112.052 85.3918 112.203 89.2555Z" fill="#D69370"/>
<path d="M103.837 90.1958C103.562 90.2229 103.258 90.25 102.929 90.2772C102.725 89.4092 102.532 88.5382 102.381 87.6582C102.281 87.0886 103.152 86.8445 103.252 87.4171C103.412 88.3514 103.62 89.2766 103.837 90.1958Z" fill="#D69370"/>
</svg>
