<svg width="394" height="60" viewBox="0 0 394 60" fill="none" xmlns="http://www.w3.org/2000/svg">
<path fill-rule="evenodd" clip-rule="evenodd" d="M6.77177 28.9164C7.84778 23.2682 13.156 15.5996 19.9427 16.0162C20.9974 16.0809 22.4209 16.5681 23.1662 17.3846C22.9523 16.9189 22.4823 16.4738 22.2079 16.3211C24.0294 15.3632 24.1543 14.3398 23.4226 12.7592C22.4808 11.134 21.5456 8.23546 22.4059 6.45191C22.7885 5.65851 23.7932 3.99982 23.7932 3.99982C23.7932 3.99982 27.7207 5.10462 28.4286 7.08971C30.6804 9.23701 33.7579 12.4362 37.6606 16.6869C37.861 16.9048 37.8823 17.2627 37.7245 17.7607C37.7025 17.6031 37.585 17.451 37.3716 17.3041C36.2195 16.8712 34.9432 15.5548 33.4436 14.0082C31.3603 11.8596 28.8461 9.26646 25.6351 7.98013C25.4069 8.34804 24.9966 8.3855 24.4036 8.09229C24.1244 8.00718 23.9237 8.0384 23.7932 8.1774C23.7076 8.26834 23.6562 8.41213 23.6387 8.60961C23.6005 9.04182 23.7016 9.32274 23.8801 9.71C24.2127 10.4319 24.6817 10.9549 25.1643 11.493L25.1644 11.493L25.1645 11.4931L25.1645 11.4932C25.4136 11.7709 25.6663 12.0527 25.9058 12.368C27.6259 14.6557 26.6617 18.3098 23.9469 22.7145C22.7191 24.7542 20.7162 26.3328 17.9388 27.4511C17.9557 27.531 17.972 27.6057 17.9877 27.6755C18.2522 27.8447 18.5234 27.9614 18.7525 27.9614C19.1152 27.9614 19.5339 27.9053 19.9827 27.8452C20.5009 27.7757 21.0592 27.7009 21.6175 27.7009C22.0858 27.7009 22.1331 27.9641 22.1852 28.2537C22.249 28.6085 22.3199 29.0032 23.1802 29.0032C23.6889 29.0032 24.1143 28.9601 24.4457 28.9265L24.4457 28.9265C24.9288 28.8775 25.2123 28.8487 25.2638 29.0032C24.8298 29.4373 23.649 30.2534 22.3989 30.045C21.544 29.9025 21.4685 29.4483 21.405 29.066C21.3524 28.7495 21.3081 28.4823 20.8362 28.4823C20.0027 28.4823 18.7525 28.8296 18.2316 29.0032L17.0376 27.9584L16.8761 27.8435C16.4982 27.9715 16.091 28.0864 15.688 28.1994L16.1695 30.8264H25.0034V33.4309H30.7333H38.026L40.1096 33.4309V34.9936L39.5887 34.9936V35.5466C39.5887 35.9257 39.4106 36.2828 39.1079 36.511L38.8196 36.7283C38.6983 36.8196 38.627 36.9627 38.627 37.1145C38.627 37.1417 38.6248 37.1683 38.6205 37.1943C39.1887 37.4282 39.5887 37.9873 39.5887 38.6399V48.0162C39.5887 48.6622 39.1967 49.2166 38.6377 49.4546C38.6618 49.5999 38.7262 49.7364 38.8249 49.8479L39.1079 50.1678C39.4177 50.518 39.5887 50.9694 39.5887 51.437V51.6625H40.1096V54.7879H38.026H30.7333H26.5661V55.8298H14.0644V54.7879H9.37627H2.08362H0V51.6625H0.520904V51.437C0.520904 50.9694 0.691925 50.518 1.00174 50.1678L1.28468 49.8479C1.38335 49.7364 1.44782 49.5999 1.47193 49.4546C0.912862 49.2166 0.520904 48.6622 0.520904 48.0162V38.6399C0.520904 37.9873 0.920915 37.4282 1.48912 37.1943C1.48481 37.1683 1.48257 37.1417 1.48257 37.1145C1.48257 36.9627 1.41127 36.8196 1.29002 36.7283L1.00174 36.511C0.698954 36.2828 0.520904 35.9257 0.520904 35.5466L0.520904 34.9936L0 34.9936V33.4309L2.08362 33.4309H9.37627H15.6271V31.8133L15.5974 31.8139C15.3773 30.7722 15.1251 29.6543 14.8139 28.4374C14.0067 28.6334 13.1535 28.7908 12.2541 28.9318C11.6946 29.0196 11.206 29.0804 10.7647 29.1352L10.7645 29.1352C9.25481 29.3229 8.29893 29.4417 6.9501 30.3388C7.41201 29.1721 8.81718 27.1221 10.0027 25.3926C10.1731 25.144 10.3389 24.9021 10.4968 24.6703C9.13176 25.9998 7.89017 27.4151 6.77177 28.9164ZM25.4341 10.6505C25.3022 10.479 25.2203 10.4615 25.1599 10.4825C25.0163 10.5327 25.1509 10.8063 25.2098 10.9259L25.2201 10.9468C25.3267 11.1665 25.4197 11.3594 25.4993 11.5263C25.4386 11.4568 25.378 11.3882 25.3175 11.3196L25.3173 11.3193C24.7492 10.6757 23.5919 9.32941 23.8751 8.39805C23.9441 8.17105 24.1109 8.18681 24.303 8.24251C24.6303 8.40373 24.916 8.47288 25.1595 8.4506C25.3743 8.43084 25.5518 8.34488 25.6918 8.19312C28.7876 9.49568 31.2379 12.0459 33.2741 14.1651C34.5099 15.4512 35.5961 16.5817 36.6039 17.204C33.3307 16.3954 27.3072 13.0855 25.4341 10.6505ZM29.1706 38.6399C29.1706 37.9873 29.5706 37.4282 30.1388 37.1943C30.1345 37.1683 30.1323 37.1417 30.1323 37.1145C30.1323 36.9627 30.061 36.8196 29.9397 36.7283L29.6514 36.511C29.3487 36.2828 29.1706 35.9257 29.1706 35.5466V34.9936L27.087 34.9936L27.083 34.9936C25.8362 34.9955 25.5243 35.8622 25.5243 36.2959V50.3951L25.5386 50.3736C25.5386 50.7869 25.8239 51.5964 26.9415 51.6625H29.1706V51.437C29.1706 50.9694 29.3416 50.518 29.6514 50.1678L29.9344 49.8479C30.0331 49.7364 30.0975 49.5999 30.1216 49.4546C29.5626 49.2166 29.1706 48.6622 29.1706 48.0162V38.6399ZM15.1062 50.555C15.0382 50.9676 14.726 51.5526 13.8589 51.6625H10.939V51.437C10.939 50.9694 10.768 50.518 10.4581 50.1678L10.1752 49.8479C10.0765 49.7364 10.0121 49.5999 9.98796 49.4546C10.547 49.2166 10.939 48.6622 10.939 48.0162V38.6399C10.939 37.9873 10.539 37.4282 9.97076 37.1943C9.97507 37.1683 9.97731 37.1417 9.97731 37.1145C9.97731 36.9627 10.0486 36.8196 10.1699 36.7283L10.4581 36.511C10.7609 36.2828 10.939 35.9257 10.939 35.5466V34.9936H13.2975C13.3661 35.0026 13.4514 35.0075 13.5552 35.0075C14.7592 35.0075 15.0875 35.8183 15.1062 36.2605V50.555ZM36.4633 51.6625H32.296V51.437C32.296 50.9694 32.125 50.518 31.8152 50.1678L31.5323 49.8479C31.4336 49.7364 31.3691 49.5999 31.345 49.4546C31.9041 49.2166 32.296 48.6622 32.296 48.0162V38.6399C32.296 37.9873 31.896 37.4282 31.3278 37.1943C31.3321 37.1683 31.3344 37.1417 31.3344 37.1145C31.3344 36.9627 31.4057 36.8196 31.5269 36.7283L31.8152 36.511C32.118 36.2828 32.296 35.9257 32.296 35.5466V34.9936H36.4633V35.5466C36.4633 35.9257 36.6413 36.2828 36.9441 36.511L37.2324 36.7283C37.3536 36.8196 37.4249 36.9627 37.4249 37.1145C37.4249 37.1417 37.4272 37.1683 37.4315 37.1943C36.8633 37.4282 36.4633 37.9873 36.4633 38.6399V48.0162C36.4633 48.6622 36.8552 49.2166 37.4143 49.4546C37.3902 49.5999 37.3257 49.7364 37.227 49.8479L36.9441 50.1678C36.6343 50.518 36.4633 50.9694 36.4633 51.437V51.6625ZM3.64633 51.6625V51.437C3.64633 50.9694 3.47531 50.518 3.16549 50.1678L2.88256 49.8479C2.78388 49.7364 2.71941 49.5999 2.6953 49.4546C3.25437 49.2166 3.64633 48.6622 3.64633 48.0162V38.6399C3.64633 37.9873 3.24632 37.4282 2.67811 37.1943C2.68242 37.1683 2.68466 37.1417 2.68466 37.1145C2.68466 36.9627 2.75596 36.8196 2.87721 36.7283L3.16549 36.511C3.46828 36.2828 3.64633 35.9257 3.64633 35.5466L3.64633 34.9936H7.81356V35.5466C7.81356 35.9257 7.99161 36.2828 8.29439 36.511L8.58267 36.7283C8.70392 36.8196 8.77523 36.9627 8.77523 37.1145C8.77523 37.1417 8.77747 37.1683 8.78177 37.1943C8.21357 37.4282 7.81356 37.9873 7.81356 38.6399V48.0162C7.81356 48.6622 8.20552 49.2166 8.76458 49.4546C8.74047 49.5999 8.676 49.7364 8.57733 49.8479L8.29439 50.1678C7.98458 50.518 7.81356 50.9694 7.81356 51.437V51.6625H3.64633ZM26.5661 7.38569C26.8538 7.38569 27.087 7.15248 27.087 6.86479C27.087 6.5771 26.8538 6.34388 26.5661 6.34388C26.2784 6.34388 26.0452 6.5771 26.0452 6.86479C26.0452 7.15248 26.2784 7.38569 26.5661 7.38569ZM30.2124 38.6399C30.2124 38.3522 30.4456 38.119 30.7333 38.119C31.021 38.119 31.2542 38.3522 31.2542 38.6399V47.4953C31.2542 47.783 31.021 48.0162 30.7333 48.0162C30.4456 48.0162 30.2124 47.783 30.2124 47.4953V38.6399ZM2.08362 38.119C1.79593 38.119 1.56271 38.3522 1.56271 38.6399V47.4953C1.56271 47.783 1.79593 48.0162 2.08362 48.0162C2.3713 48.0162 2.60452 47.783 2.60452 47.4953V38.6399C2.60452 38.3522 2.3713 38.119 2.08362 38.119ZM37.5051 38.6399C37.5051 38.3522 37.7383 38.119 38.026 38.119C38.3137 38.119 38.5469 38.3522 38.5469 38.6399V47.4953C38.5469 47.783 38.3137 48.0162 38.026 48.0162C37.7383 48.0162 37.5051 47.783 37.5051 47.4953V38.6399ZM9.37627 38.119C9.08858 38.119 8.85537 38.3522 8.85537 38.6399V47.4953C8.85537 47.783 9.08858 48.0162 9.37627 48.0162C9.66396 48.0162 9.89717 47.783 9.89717 47.4953V38.6399C9.89717 38.3522 9.66396 38.119 9.37627 38.119Z" fill="white"/>
<path d="M51.3125 36.7254H50.9817L51.3299 33H51.6607C51.6723 33.0232 51.6839 33.0464 51.6955 33.0696C51.7187 33.0928 51.7419 33.1219 51.7651 33.1567C51.8116 33.2031 51.8754 33.2495 51.9566 33.2959C52.0379 33.3308 52.1365 33.3482 52.2526 33.3482C52.4847 33.3482 52.653 33.3366 52.7574 33.3134C52.8735 33.2901 52.9721 33.2611 53.0534 33.2263C53.0766 33.2147 53.0998 33.2089 53.123 33.2089C53.1462 33.1973 53.1694 33.1857 53.1926 33.1741C53.3203 33.1277 53.5002 33.087 53.7323 33.0522C53.9644 33.0174 54.3532 33 54.8987 33C55.9316 33 56.8136 33.2379 57.5448 33.7137C58.2875 34.178 58.6589 34.8453 58.6589 35.7157C58.6589 35.8782 58.6299 36.0813 58.5719 36.325C58.5138 36.5687 58.3804 36.8183 58.1715 37.0736C57.9626 37.3289 57.6492 37.5784 57.2314 37.8222C56.8252 38.0543 56.2681 38.2516 55.5602 38.4141V38.5185C56.477 38.6694 57.2778 39.0233 57.9626 39.5804C58.6473 40.1375 58.9897 40.828 58.9897 41.652C58.9897 42.5341 58.6067 43.2768 57.8407 43.8803C57.0747 44.4722 55.8793 44.7682 54.2546 44.7682C53.3145 44.7682 52.4557 44.5477 51.6781 44.1066C50.9005 43.6656 50.5117 43.0389 50.5117 42.2265C50.5117 41.7623 50.622 41.4083 50.8425 41.1646C51.063 40.9093 51.3415 40.7816 51.6781 40.7816C51.9914 40.7816 52.2468 40.8745 52.4441 41.0601C52.6414 41.2342 52.7574 41.4315 52.7922 41.652C52.8038 41.6636 52.8096 41.6811 52.8096 41.7043C52.8096 41.7275 52.8096 41.7507 52.8096 41.7739C52.8096 41.8435 52.8038 41.9248 52.7922 42.0176C52.7806 42.0989 52.7516 42.1801 52.7052 42.2613C52.6704 42.3426 52.6182 42.418 52.5485 42.4876C52.4789 42.5573 52.386 42.6269 52.27 42.6965C52.2468 42.7082 52.212 42.7256 52.1655 42.7488C52.1307 42.772 52.0959 42.7894 52.0611 42.801C51.9798 42.8474 51.9044 42.9055 51.8348 42.9751C51.7767 43.0331 51.7477 43.1144 51.7477 43.2188C51.7477 43.2652 51.7535 43.3175 51.7651 43.3755C51.7883 43.4219 51.8174 43.4741 51.8522 43.5322C51.9914 43.7643 52.27 43.979 52.6878 44.1763C53.1172 44.362 53.6395 44.4548 54.2546 44.4548C54.9509 44.4548 55.5486 44.2575 56.0476 43.8629C56.5467 43.4567 56.7962 42.7256 56.7962 41.6694C56.7962 40.8338 56.6685 40.2071 56.4132 39.7893C56.1579 39.3715 55.8793 39.0756 55.5776 38.9015C55.3803 38.797 55.1888 38.7274 55.0031 38.6926C54.829 38.6578 54.684 38.6404 54.5679 38.6404L53.0534 38.6578V38.3096L54.4983 38.2922C55.0786 38.2922 55.5022 38.1471 55.7691 37.857C56.036 37.5668 56.2159 37.2477 56.3088 36.8995C56.3784 36.6674 56.419 36.4469 56.4306 36.238C56.4422 36.0175 56.448 35.8434 56.448 35.7157C56.448 35.5997 56.4422 35.4778 56.4306 35.3502C56.4306 35.2225 56.4248 35.089 56.4132 34.9498C56.3552 34.5552 56.2043 34.1954 55.9606 33.8704C55.7169 33.5339 55.2642 33.3656 54.6027 33.3656C53.5466 33.3656 52.7748 33.6731 52.2874 34.2882C51.7999 34.8917 51.475 35.7041 51.3125 36.7254Z" fill="white"/>
<path d="M60.2946 40.8861C60.2946 39.8416 60.6486 38.9305 61.3566 38.1529C62.0761 37.3753 62.9755 36.9866 64.0549 36.9866C65.1574 36.9866 66.0627 37.3869 66.7706 38.1877C67.4785 38.9769 67.8325 39.8764 67.8325 40.8861C67.8325 41.8958 67.4785 42.7952 66.7706 43.5844C66.0627 44.3736 65.1574 44.7682 64.0549 44.7682C62.9523 44.7682 62.0471 44.3794 61.3391 43.6018C60.6428 42.8126 60.2946 41.9074 60.2946 40.8861ZM62.2618 39.6326C62.2502 39.8532 62.2444 40.0737 62.2444 40.2942C62.2444 40.5031 62.2444 40.7178 62.2444 40.9383C62.2444 42.1221 62.3546 43.0099 62.5751 43.6018C62.7957 44.1937 63.2947 44.4896 64.0723 44.4896C64.7686 44.4896 65.2445 44.2169 65.4998 43.6714C65.7551 43.126 65.8828 42.2091 65.8828 40.9209C65.8828 40.9093 65.8828 40.9035 65.8828 40.9035C65.8828 40.8919 65.8828 40.8803 65.8828 40.8687C65.8828 39.975 65.7899 39.1568 65.6042 38.4141C65.4301 37.6597 64.9195 37.2825 64.0723 37.2825C64.0375 37.2825 64.0026 37.2825 63.9678 37.2825C63.9446 37.2825 63.9156 37.2883 63.8808 37.2999C63.4862 37.3347 63.1264 37.532 62.8015 37.8918C62.4765 38.24 62.2966 38.8203 62.2618 39.6326Z" fill="white"/>
<path d="M73.6394 37.474H72.8734C72.1074 37.474 71.6548 37.5726 71.5155 37.7699C71.3879 37.9556 71.3182 38.1993 71.3066 38.5011L71.1673 42.9751C71.1557 43.4741 71.0571 43.8977 70.8714 44.2459C70.6857 44.5941 70.2795 44.7682 69.6528 44.7682C69.293 44.7682 68.9681 44.6695 68.6779 44.4722C68.3994 44.2749 68.2601 43.9906 68.2601 43.6192C68.2601 43.3058 68.353 43.0621 68.5387 42.888C68.736 42.7024 68.9449 42.6095 69.1654 42.6095C69.3975 42.6095 69.6006 42.6675 69.7747 42.7836C69.9604 42.8996 70.0532 43.0853 70.0532 43.3407C70.0532 43.3871 70.0532 43.4335 70.0532 43.4799C70.0532 43.5147 70.0416 43.5554 70.0184 43.6018C70.0184 43.6134 70.0126 43.625 70.001 43.6366C70.001 43.6366 69.9952 43.6424 69.9836 43.654C69.9836 43.6656 69.9778 43.6772 69.9662 43.6888C69.9545 43.712 69.9429 43.7295 69.9313 43.7411C69.9313 43.7527 69.9313 43.7701 69.9313 43.7933C69.9313 43.8165 69.9313 43.8397 69.9313 43.8629C69.9313 43.8745 69.9313 43.8919 69.9313 43.9151C69.9429 43.9848 69.9604 44.0428 69.9836 44.0892C70.0068 44.1357 70.0532 44.1589 70.1228 44.1589C70.4942 44.1589 70.7089 44.0254 70.7669 43.7585C70.8366 43.4799 70.8772 43.1434 70.8888 42.7488L71.0107 38.5011C71.0107 38.4547 71.0107 38.4082 71.0107 38.3618C71.0107 38.3154 71.0107 38.269 71.0107 38.2226C70.9991 38.0369 70.9294 37.8686 70.8018 37.7177C70.6857 37.5552 70.4362 37.474 70.0532 37.474H69.6876V37.178H76.4421V37.474H75.3454V44.2981H76.4421V44.5941H72.5426V44.2981H73.6394V37.474Z" fill="white"/>
<path d="M77.1761 40.8861C77.1761 39.8416 77.5301 38.9305 78.2381 38.1529C78.9576 37.3753 79.8571 36.9866 80.9364 36.9866C82.0389 36.9866 82.9442 37.3869 83.6521 38.1877C84.3601 38.9769 84.714 39.8764 84.714 40.8861C84.714 41.8958 84.3601 42.7952 83.6521 43.5844C82.9442 44.3736 82.0389 44.7682 80.9364 44.7682C79.8338 44.7682 78.9286 44.3794 78.2207 43.6018C77.5243 42.8126 77.1761 41.9074 77.1761 40.8861ZM79.1433 39.6326C79.1317 39.8532 79.1259 40.0737 79.1259 40.2942C79.1259 40.5031 79.1259 40.7178 79.1259 40.9383C79.1259 42.1221 79.2361 43.0099 79.4567 43.6018C79.6772 44.1937 80.1762 44.4896 80.9538 44.4896C81.6501 44.4896 82.126 44.2169 82.3813 43.6714C82.6366 43.126 82.7643 42.2091 82.7643 40.9209C82.7643 40.9093 82.7643 40.9035 82.7643 40.9035C82.7643 40.8919 82.7643 40.8803 82.7643 40.8687C82.7643 39.975 82.6714 39.1568 82.4857 38.4141C82.3117 37.6597 81.801 37.2825 80.9538 37.2825C80.919 37.2825 80.8842 37.2825 80.8493 37.2825C80.8261 37.2825 80.7971 37.2883 80.7623 37.2999C80.3677 37.3347 80.0079 37.532 79.683 37.8918C79.358 38.24 79.1781 38.8203 79.1433 39.6326Z" fill="white"/>
<path d="M92.3836 37.178L92.5403 39.9982H92.1747C92.0122 39.1858 91.7395 38.5533 91.3565 38.1007C90.9851 37.6365 90.4454 37.4276 89.7375 37.474V44.2981H90.8342V44.5941H86.9347V44.2981H88.0314V37.474C87.219 37.4276 86.6678 37.6365 86.3776 38.1007C86.0875 38.5649 85.8438 39.1278 85.6465 39.7893C85.6349 39.8241 85.6233 39.859 85.6117 39.8938C85.6117 39.9286 85.6059 39.9634 85.5942 39.9982H85.2287L85.3853 37.178H92.3836Z" fill="white"/>
<path d="M93.0546 40.8861C93.0546 39.8416 93.4086 38.9305 94.1165 38.1529C94.8361 37.3753 95.7355 36.9866 96.8149 36.9866C97.9174 36.9866 98.8226 37.3869 99.5306 38.1877C100.239 38.9769 100.593 39.8764 100.593 40.8861C100.593 41.8958 100.239 42.7952 99.5306 43.5844C98.8226 44.3736 97.9174 44.7682 96.8149 44.7682C95.7123 44.7682 94.8071 44.3794 94.0991 43.6018C93.4028 42.8126 93.0546 41.9074 93.0546 40.8861ZM95.0218 39.6326C95.0102 39.8532 95.0044 40.0737 95.0044 40.2942C95.0044 40.5031 95.0044 40.7178 95.0044 40.9383C95.0044 42.1221 95.1146 43.0099 95.3351 43.6018C95.5556 44.1937 96.0547 44.4896 96.8323 44.4896C97.5286 44.4896 98.0044 44.2169 98.2598 43.6714C98.5151 43.126 98.6428 42.2091 98.6428 40.9209C98.6428 40.9093 98.6428 40.9035 98.6428 40.9035C98.6428 40.8919 98.6428 40.8803 98.6428 40.8687C98.6428 39.975 98.5499 39.1568 98.3642 38.4141C98.1901 37.6597 97.6795 37.2825 96.8323 37.2825C96.7975 37.2825 96.7626 37.2825 96.7278 37.2825C96.7046 37.2825 96.6756 37.2883 96.6408 37.2999C96.2462 37.3347 95.8864 37.532 95.5614 37.8918C95.2365 38.24 95.0566 38.8203 95.0218 39.6326Z" fill="white"/>
<path d="M104.119 43.0099L107.078 38.0137V37.474H106.103V37.178H109.881V37.474H108.784V44.2981H109.881V44.5941H106.103V44.2981H107.078V38.6055L104.119 43.6018V44.2981H105.094V44.5941H101.316V44.2981H102.413V37.474H101.316V37.178H105.094V37.474H104.119V43.0099ZM105.616 36.1858C104.804 36.1858 104.159 36.0059 103.684 35.6461C103.208 35.2747 102.97 34.8163 102.97 34.2708C102.97 34.0039 103.057 33.8008 103.231 33.6615C103.405 33.5223 103.591 33.4352 103.788 33.4004C103.823 33.4004 103.858 33.4004 103.893 33.4004C103.939 33.3888 103.98 33.383 104.014 33.383C104.293 33.383 104.508 33.4758 104.658 33.6615C104.809 33.8356 104.885 34.0387 104.885 34.2708C104.885 34.3056 104.879 34.3579 104.867 34.4275C104.856 34.4855 104.833 34.5494 104.798 34.619C104.763 34.7002 104.699 34.7757 104.606 34.8453C104.525 34.9149 104.403 34.9614 104.241 34.9846C104.229 34.9846 104.217 34.9846 104.206 34.9846C104.194 34.9846 104.183 34.9904 104.171 35.002C104.113 35.002 104.055 35.0252 103.997 35.0716C103.951 35.1064 103.927 35.1877 103.927 35.3153C103.927 35.4662 104.067 35.5997 104.345 35.7157C104.635 35.8202 104.96 35.8782 105.32 35.8898C105.366 35.8898 105.413 35.8898 105.459 35.8898C105.506 35.8898 105.552 35.8898 105.599 35.8898C105.645 35.8898 105.691 35.8898 105.738 35.8898C105.784 35.8898 105.831 35.8898 105.877 35.8898C105.935 35.8898 105.993 35.8898 106.051 35.8898C106.109 35.8782 106.167 35.8666 106.225 35.855C106.481 35.8318 106.719 35.7738 106.939 35.6809C107.16 35.5881 107.27 35.4662 107.27 35.3153C107.27 35.1761 107.241 35.0948 107.183 35.0716C107.136 35.0368 107.084 35.0136 107.026 35.002C107.014 35.002 107.003 35.002 106.991 35.002C106.98 34.9904 106.968 34.9846 106.956 34.9846C106.922 34.973 106.881 34.9614 106.835 34.9498C106.788 34.9381 106.742 34.9207 106.695 34.8975C106.602 34.8511 106.515 34.7815 106.434 34.6886C106.353 34.5842 106.312 34.4449 106.312 34.2708C106.312 34.0387 106.388 33.8356 106.539 33.6615C106.701 33.4758 106.922 33.383 107.2 33.383C107.223 33.383 107.247 33.383 107.27 33.383C107.293 33.383 107.31 33.383 107.322 33.383C107.554 33.4062 107.763 33.4874 107.949 33.6267C108.134 33.766 108.227 33.9807 108.227 34.2708C108.227 34.8975 107.989 35.3618 107.513 35.6635C107.049 35.9536 106.533 36.1219 105.964 36.1684C105.906 36.18 105.848 36.1858 105.79 36.1858C105.732 36.1858 105.674 36.1858 105.616 36.1858Z" fill="white"/>
<path d="M118.284 33.5223V44.2459H119.502V44.5941H114.993V44.2459H116.334V33.5223H114.993V33.1915H126.709V33.5223H125.369V44.2459H126.709V44.5941H122.201V44.2459H123.419V33.5223H118.284Z" fill="white"/>
<path d="M134.419 42.5225L134.714 42.714C134.285 43.3871 133.821 43.8977 133.322 44.2459C132.823 44.5941 132.237 44.7682 131.564 44.7682C130.6 44.7682 129.736 44.4316 128.97 43.7585C128.204 43.0853 127.821 42.1279 127.821 40.8861C127.821 39.8416 128.151 38.9305 128.813 38.1529C129.486 37.3753 130.322 36.9866 131.32 36.9866C131.505 36.9866 131.714 37.004 131.946 37.0388C132.179 37.0736 132.411 37.1374 132.643 37.2303C133.107 37.416 133.542 37.7583 133.948 38.2574C134.355 38.7448 134.587 39.4818 134.645 40.4683H129.77L129.788 41.6694C129.788 41.7739 129.788 41.8842 129.788 42.0002C129.799 42.1163 129.811 42.2323 129.823 42.3484C129.869 42.8706 130.003 43.3465 130.223 43.7759C130.444 44.2053 130.867 44.42 131.494 44.42C131.9 44.42 132.353 44.3039 132.852 44.0718C133.351 43.8281 133.873 43.3117 134.419 42.5225ZM129.77 40.1897H132.834C132.858 39.4005 132.794 38.7216 132.643 38.1529C132.504 37.5726 132.092 37.2825 131.407 37.2825C130.966 37.2825 130.635 37.3869 130.415 37.5959C130.194 37.7931 130.037 38.0137 129.945 38.2574C129.875 38.4199 129.828 38.5765 129.805 38.7274C129.794 38.8783 129.788 39.0001 129.788 39.093L129.77 40.1897Z" fill="white"/>
<path d="M140.536 37.474H139.77C139.004 37.474 138.552 37.5726 138.413 37.7699C138.285 37.9556 138.215 38.1993 138.204 38.5011L138.064 42.9751C138.053 43.4741 137.954 43.8977 137.768 44.2459C137.583 44.5941 137.177 44.7682 136.55 44.7682C136.19 44.7682 135.865 44.6695 135.575 44.4722C135.296 44.2749 135.157 43.9906 135.157 43.6192C135.157 43.3058 135.25 43.0621 135.436 42.888C135.633 42.7024 135.842 42.6095 136.062 42.6095C136.295 42.6095 136.498 42.6675 136.672 42.7836C136.857 42.8996 136.95 43.0853 136.95 43.3407C136.95 43.3871 136.95 43.4335 136.95 43.4799C136.95 43.5147 136.939 43.5554 136.915 43.6018C136.915 43.6134 136.91 43.625 136.898 43.6366C136.898 43.6366 136.892 43.6424 136.881 43.654C136.881 43.6656 136.875 43.6772 136.863 43.6888C136.852 43.712 136.84 43.7295 136.828 43.7411C136.828 43.7527 136.828 43.7701 136.828 43.7933C136.828 43.8165 136.828 43.8397 136.828 43.8629C136.828 43.8745 136.828 43.8919 136.828 43.9151C136.84 43.9848 136.857 44.0428 136.881 44.0892C136.904 44.1357 136.95 44.1589 137.02 44.1589C137.391 44.1589 137.606 44.0254 137.664 43.7585C137.734 43.4799 137.774 43.1434 137.786 42.7488L137.908 38.5011C137.908 38.4547 137.908 38.4082 137.908 38.3618C137.908 38.3154 137.908 38.269 137.908 38.2226C137.896 38.0369 137.826 37.8686 137.699 37.7177C137.583 37.5552 137.333 37.474 136.95 37.474H136.585V37.178H143.339V37.474H142.242V44.2981H143.339V44.5941H139.44V44.2981H140.536V37.474Z" fill="white"/>
<path d="M146.841 43.0099L149.801 38.0137V37.474H148.826V37.178H152.603V37.474H151.507V44.2981H152.603V44.5941H148.826V44.2981H149.801V38.6055L146.841 43.6018V44.2981H147.816V44.5941H144.038V44.2981H145.135V37.474H144.038V37.178H147.816V37.474H146.841V43.0099Z" fill="white"/>
<path d="M156.106 40.5205H156.733C157.186 40.5205 157.505 40.4044 157.691 40.1723C157.876 39.9286 158.01 39.6675 158.091 39.3889C158.103 39.3193 158.114 39.2555 158.126 39.1974C158.149 39.1278 158.166 39.064 158.178 39.0059C158.306 38.3792 158.462 37.886 158.648 37.5262C158.845 37.1664 159.228 36.9866 159.797 36.9866C160.145 36.9866 160.459 37.0968 160.737 37.3173C161.016 37.5262 161.155 37.8222 161.155 38.2051C161.155 38.4837 161.074 38.7332 160.911 38.9537C160.76 39.1742 160.528 39.2845 160.215 39.2845C159.948 39.2845 159.727 39.2148 159.553 39.0756C159.391 38.9247 159.31 38.7448 159.31 38.5359C159.31 38.4663 159.315 38.4024 159.327 38.3444C159.339 38.2748 159.35 38.211 159.362 38.1529C159.362 38.1413 159.362 38.1297 159.362 38.1181C159.373 38.1065 159.379 38.0949 159.379 38.0833C159.391 38.0601 159.397 38.0369 159.397 38.0137C159.408 37.9904 159.414 37.9672 159.414 37.944C159.414 37.828 159.379 37.7583 159.31 37.7351C159.24 37.7119 159.159 37.7003 159.066 37.7003C159.066 37.7003 159.06 37.7003 159.048 37.7003C159.048 37.7003 159.043 37.7003 159.031 37.7003C159.019 37.7003 159.008 37.7003 158.996 37.7003C158.915 37.7003 158.845 37.7757 158.787 37.9266C158.729 38.0659 158.677 38.2226 158.631 38.3966C158.596 38.5359 158.567 38.6694 158.544 38.797C158.532 38.9131 158.52 39.0001 158.509 39.0582C158.509 39.0814 158.503 39.1046 158.491 39.1278C158.491 39.151 158.486 39.1742 158.474 39.1974C158.381 39.6385 158.271 39.9634 158.143 40.1723C158.016 40.3696 157.83 40.5031 157.586 40.5727V40.6249C158.457 40.6714 159.066 40.8454 159.414 41.1472C159.762 41.4373 159.989 41.7565 160.093 42.1047C160.128 42.2323 160.157 42.36 160.18 42.4876C160.203 42.6037 160.221 42.7198 160.232 42.8358C160.232 42.8474 160.232 42.859 160.232 42.8706C160.232 42.8822 160.232 42.8938 160.232 42.9055C160.267 43.2072 160.313 43.4741 160.371 43.7062C160.441 43.9384 160.586 44.0544 160.807 44.0544C160.958 44.0544 161.097 44.008 161.225 43.9151C161.352 43.8107 161.451 43.7004 161.52 43.5844L161.747 43.7062C161.596 44.0312 161.364 44.2923 161.05 44.4896C160.737 44.6753 160.371 44.7682 159.954 44.7682C159.362 44.7682 158.985 44.5825 158.822 44.2111C158.66 43.8397 158.544 43.4277 158.474 42.9751C158.474 42.9519 158.474 42.9287 158.474 42.9055C158.474 42.8822 158.468 42.859 158.457 42.8358C158.457 42.8126 158.451 42.7894 158.439 42.7662C158.439 42.7314 158.439 42.7024 158.439 42.6791C158.323 41.8319 158.137 41.3097 157.882 41.1124C157.638 40.9035 157.296 40.799 156.855 40.799H156.489L156.106 40.8164V44.2981H157.203V44.5941H153.304V44.2981H154.4V37.474H153.304V37.178H157.203V37.474H156.106V40.5205Z" fill="white"/>
<path d="M169.87 43.6714L170.114 43.8977C170.032 44.0138 169.945 44.1182 169.853 44.2111C169.76 44.3039 169.667 44.3794 169.574 44.4374C169.33 44.5999 169.092 44.6927 168.86 44.7159C168.64 44.7508 168.477 44.7682 168.373 44.7682C168.013 44.7682 167.729 44.6869 167.52 44.5244C167.323 44.362 167.172 44.1821 167.067 43.9848C167.032 43.9268 167.003 43.8745 166.98 43.8281C166.957 43.7701 166.94 43.712 166.928 43.654C166.359 44.1531 165.872 44.4664 165.466 44.5941C165.071 44.7101 164.711 44.7682 164.386 44.7682C163.736 44.7682 163.237 44.5883 162.889 44.2285C162.541 43.8571 162.367 43.4045 162.367 42.8706C162.367 42.035 162.733 41.4141 163.464 41.0079C164.206 40.6017 165.17 40.3986 166.353 40.3986C166.446 40.3986 166.539 40.3986 166.632 40.3986C166.736 40.3986 166.835 40.4044 166.928 40.416V38.4663C166.928 38.4082 166.928 38.3502 166.928 38.2922C166.928 38.2226 166.922 38.1587 166.911 38.1007C166.876 37.8918 166.783 37.7061 166.632 37.5436C166.481 37.3811 166.191 37.2999 165.762 37.2999C165.483 37.2999 165.228 37.3347 164.996 37.4044C164.764 37.4624 164.647 37.5552 164.647 37.6829C164.647 37.7177 164.647 37.7583 164.647 37.8048C164.659 37.8396 164.671 37.8744 164.682 37.9092C164.694 37.9556 164.705 38.002 164.717 38.0485C164.729 38.0833 164.746 38.1181 164.769 38.1529C164.781 38.1761 164.787 38.1993 164.787 38.2226C164.798 38.2342 164.81 38.2516 164.822 38.2748C164.833 38.298 164.845 38.3212 164.856 38.3444C164.868 38.3676 164.885 38.3908 164.909 38.4141C164.943 38.4721 164.972 38.5359 164.996 38.6055C165.03 38.6752 165.048 38.7564 165.048 38.8493C165.048 39.1278 164.955 39.3773 164.769 39.5978C164.595 39.8183 164.334 39.9286 163.986 39.9286C163.661 39.9286 163.4 39.8241 163.203 39.6152C163.005 39.3947 162.907 39.0988 162.907 38.7274C162.907 38.2051 163.197 37.7873 163.777 37.474C164.369 37.149 165.036 36.9866 165.779 36.9866C166.835 36.9866 167.549 37.1432 167.92 37.4566C168.292 37.7699 168.512 38.1123 168.582 38.4837C168.605 38.5997 168.617 38.71 168.617 38.8144C168.628 38.9189 168.634 39.0234 168.634 39.1278V43.654C168.634 43.6888 168.634 43.7295 168.634 43.7759C168.634 43.8107 168.64 43.8513 168.651 43.8977C168.675 43.979 168.709 44.0544 168.756 44.124C168.814 44.1937 168.907 44.2285 169.034 44.2285C169.081 44.2285 169.127 44.2227 169.174 44.2111C169.22 44.1995 169.267 44.1821 169.313 44.1589C169.383 44.124 169.452 44.0776 169.522 44.0196C169.603 43.9616 169.673 43.9035 169.731 43.8455C169.754 43.8107 169.777 43.7817 169.8 43.7585C169.835 43.7237 169.858 43.6946 169.87 43.6714ZM166.928 43.1144V40.6946C166.034 40.6714 165.373 40.7932 164.943 41.0601C164.526 41.3271 164.317 41.9248 164.317 42.8532C164.317 43.3291 164.439 43.6482 164.682 43.8107C164.938 43.9732 165.216 44.0544 165.518 44.0544C165.599 44.0544 165.692 44.0428 165.796 44.0196C165.901 43.9848 166.005 43.9384 166.11 43.8803C166.237 43.8223 166.359 43.7527 166.475 43.6714C166.603 43.5786 166.707 43.4915 166.789 43.4103C166.835 43.3523 166.87 43.3 166.893 43.2536C166.916 43.2072 166.928 43.1608 166.928 43.1144Z" fill="white"/>
<path d="M173.26 40.7294V44.2981H174.235V44.5941H170.457V44.2981H171.554V37.474H170.457V37.178H174.235V37.474H173.26V40.4508H176.219V37.474H175.244V37.178H179.022V37.474H177.925V44.2981H179.022V44.5941H175.244V44.2981H176.219V40.7294H173.26Z" fill="white"/>
<path d="M52.0225 54.5839H50V48.9388H53.3802V49.4791H50.5233V51.0759H52.0225C52.5741 51.0759 53.0031 51.2371 53.3095 51.5597C53.6206 51.8823 53.7762 52.307 53.7762 52.8339C53.7762 53.3662 53.6206 53.7909 53.3095 54.1081C52.9983 54.4253 52.5693 54.5839 52.0225 54.5839ZM50.5233 51.6162V54.0436H51.973C52.3784 54.0436 52.6919 53.9388 52.9135 53.7291C53.1398 53.514 53.2529 53.2129 53.2529 52.8259C53.2529 52.4441 53.1398 52.1484 52.9135 51.9388C52.6919 51.7237 52.3784 51.6162 51.973 51.6162H50.5233Z" fill="white"/>
<path d="M54.3226 54.5839V54.0355C54.3697 54.0463 54.4358 54.0517 54.5206 54.0517C54.7375 54.0517 54.9095 53.9656 55.0368 53.7936C55.1688 53.6216 55.2749 53.3716 55.3551 53.0436C55.4116 52.8232 55.4493 52.5812 55.4682 52.3178C55.4965 52.0167 55.5177 51.7318 55.5318 51.4629C55.5413 51.264 55.5507 50.9361 55.5601 50.4791L55.5884 48.9388H58.6858V54.5839H58.1625V49.4791H56.0976L56.0622 50.7694C56.0339 51.8285 55.9632 52.6242 55.8501 53.1565C55.7511 53.6404 55.5955 53.9979 55.3833 54.2291C55.1759 54.4549 54.8883 54.5759 54.5206 54.592C54.4122 54.592 54.3462 54.5893 54.3226 54.5839Z" fill="white"/>
<path d="M60.1322 54.5839H59.5877L61.794 48.9065H62.2819L64.4953 54.5839H63.9437L63.3285 53.0275H60.7333L60.1322 54.5839ZM62.0344 49.6565L60.91 52.5033H63.1588L62.0344 49.6565Z" fill="white"/>
<path d="M65.9233 54.5839H65.4V48.9388H68.7166V49.4791H65.9233V54.5839Z" fill="white"/>
<path d="M69.7624 49.6807C70.2386 49.1215 70.8326 48.842 71.5445 48.842C72.2516 48.842 72.8433 49.1215 73.3194 49.6807C73.7956 50.2398 74.0337 50.9334 74.0337 51.7613C74.0337 52.5947 73.7956 53.2909 73.3194 53.85C72.848 54.4038 72.2563 54.6807 71.5445 54.6807C70.8279 54.6807 70.2339 54.4038 69.7624 53.85C69.291 53.2963 69.0553 52.6 69.0553 51.7613C69.0553 50.928 69.291 50.2345 69.7624 49.6807ZM70.1514 53.4468C70.5238 53.8984 70.9882 54.1242 71.5445 54.1242C72.1008 54.1242 72.5651 53.8984 72.9376 53.4468C73.3147 52.9898 73.5033 52.428 73.5033 51.7613C73.5033 51.0947 73.3147 50.5328 72.9376 50.0759C72.5651 49.6242 72.1008 49.3984 71.5445 49.3984C70.9882 49.3984 70.5238 49.6242 70.1514 50.0759C69.7742 50.5328 69.5856 51.0947 69.5856 51.7613C69.5856 52.428 69.7742 52.9898 70.1514 53.4468Z" fill="white"/>
<path d="M76.6154 54.5839H76.0921V49.4791H74.3878V48.9388H78.3409V49.4791H76.6154V54.5839Z" fill="white"/>
<path d="M81.6495 54.5839H79.2876V48.9388H81.4303C81.8687 48.9388 82.2152 49.0624 82.4698 49.3097C82.7244 49.5517 82.8517 49.885 82.8517 50.3097C82.8517 50.6 82.7928 50.85 82.6749 51.0597C82.5617 51.2694 82.4038 51.4172 82.2011 51.5033C82.5311 51.5624 82.7928 51.7264 82.986 51.9952C83.1793 52.264 83.276 52.6027 83.276 53.0113C83.276 53.4898 83.1298 53.8716 82.8375 54.1565C82.5452 54.4414 82.1492 54.5839 81.6495 54.5839ZM79.8109 51.85V54.0436H81.5576C81.9253 54.0436 82.2105 53.9468 82.4132 53.7533C82.616 53.5597 82.7173 53.2882 82.7173 52.9388C82.7173 52.5947 82.616 52.3285 82.4132 52.1404C82.2105 51.9468 81.9253 51.85 81.5576 51.85H79.8109ZM79.8109 49.4791V51.3259H81.3454C81.6613 51.3259 81.9041 51.2479 82.0738 51.092C82.2482 50.9361 82.3355 50.7103 82.3355 50.4146C82.3355 50.1135 82.2482 49.8823 82.0738 49.721C81.9041 49.5597 81.6613 49.4791 81.3454 49.4791H79.8109Z" fill="white"/>
<path d="M84.8171 49.6807C85.2933 49.1215 85.8873 48.842 86.5992 48.842C87.3063 48.842 87.898 49.1215 88.3741 49.6807C88.8503 50.2398 89.0884 50.9334 89.0884 51.7613C89.0884 52.5947 88.8503 53.2909 88.3741 53.85C87.9027 54.4038 87.311 54.6807 86.5992 54.6807C85.8826 54.6807 85.2886 54.4038 84.8171 53.85C84.3457 53.2963 84.11 52.6 84.11 51.7613C84.11 50.928 84.3457 50.2345 84.8171 49.6807ZM85.2061 53.4468C85.5785 53.8984 86.0429 54.1242 86.5992 54.1242C87.1555 54.1242 87.6198 53.8984 87.9923 53.4468C88.3694 52.9898 88.558 52.428 88.558 51.7613C88.558 51.0947 88.3694 50.5328 87.9923 50.0759C87.6198 49.6242 87.1555 49.3984 86.5992 49.3984C86.0429 49.3984 85.5785 49.6242 85.2061 50.0759C84.8289 50.5328 84.6403 51.0947 84.6403 51.7613C84.6403 52.428 84.8289 52.9898 85.2061 53.4468Z" fill="white"/>
<path d="M90.8119 54.5839H90.2886V48.9388H92.3676C92.8579 48.9388 93.2445 49.0812 93.5274 49.3662C93.8102 49.6511 93.9517 50.0302 93.9517 50.5033C93.9517 50.9871 93.8102 51.3742 93.5274 51.6646C93.2445 51.9495 92.8579 52.092 92.3676 52.092H90.8119V54.5839ZM90.8119 49.4791V51.5517H92.3323C92.6811 51.5517 92.9522 51.4629 93.1455 51.2855C93.3388 51.1027 93.4354 50.8474 93.4354 50.5194C93.4354 50.1861 93.3388 49.9307 93.1455 49.7533C92.9569 49.5705 92.6859 49.4791 92.3323 49.4791H90.8119Z" fill="white"/>
<path d="M95.4299 54.5839H94.9915V48.9388H95.5077V53.5839L98.5838 48.9388H99.0435V54.5839H98.5272V49.9226L95.4299 54.5839Z" fill="white"/>
<path d="M102.215 54.5839H101.692V49.4791H99.9877V48.9388H103.941V49.4791H102.215V54.5839Z" fill="white"/>
<path d="M108.388 54.5839H104.888V48.9388H108.282V49.4791H105.411V51.2855H107.766V51.8259H105.411V54.0436H108.388V54.5839Z" fill="white"/>
<path d="M108.803 54.5839V54.0355C108.85 54.0463 108.916 54.0517 109.001 54.0517C109.218 54.0517 109.39 53.9656 109.517 53.7936C109.649 53.6216 109.755 53.3716 109.835 53.0436C109.892 52.8232 109.929 52.5812 109.948 52.3178C109.977 52.0167 109.998 51.7318 110.012 51.4629C110.021 51.264 110.031 50.9361 110.04 50.4791L110.068 48.9388H113.166V54.5839H112.643V49.4791H110.578L110.542 50.7694C110.514 51.8285 110.443 52.6242 110.33 53.1565C110.231 53.6404 110.076 53.9979 109.863 54.2291C109.656 54.4549 109.368 54.5759 109.001 54.592C108.892 54.592 108.826 54.5893 108.803 54.5839Z" fill="white"/>
<path d="M116.557 54.5839H114.556V48.9388H115.079V51.0436H116.557C117.118 51.0436 117.552 51.2076 117.858 51.5355C118.174 51.8635 118.332 52.2909 118.332 52.8178C118.332 53.3554 118.174 53.7855 117.858 54.1081C117.542 54.4253 117.108 54.5839 116.557 54.5839ZM115.079 51.5839V54.0436H116.522C116.927 54.0436 117.243 53.9388 117.469 53.7291C117.695 53.514 117.809 53.2103 117.809 52.8178C117.809 52.4253 117.695 52.1215 117.469 51.9065C117.248 51.6914 116.932 51.5839 116.522 51.5839H115.079Z" fill="white"/>
<path d="M119.892 54.5839H119.369V48.9388H119.892V51.2855H122.834V48.9388H123.357V54.5839H122.834V51.8259H119.892V54.5839Z" fill="white"/>
<path d="M125.251 49.6807C125.727 49.1215 126.321 48.842 127.033 48.842C127.74 48.842 128.332 49.1215 128.808 49.6807C129.284 50.2398 129.522 50.9334 129.522 51.7613C129.522 52.5947 129.284 53.2909 128.808 53.85C128.336 54.4038 127.745 54.6807 127.033 54.6807C126.316 54.6807 125.722 54.4038 125.251 53.85C124.779 53.2963 124.544 52.6 124.544 51.7613C124.544 50.928 124.779 50.2345 125.251 49.6807ZM125.64 53.4468C126.012 53.8984 126.476 54.1242 127.033 54.1242C127.589 54.1242 128.053 53.8984 128.426 53.4468C128.803 52.9898 128.992 52.428 128.992 51.7613C128.992 51.0947 128.803 50.5328 128.426 50.0759C128.053 49.6242 127.589 49.3984 127.033 49.3984C126.476 49.3984 126.012 49.6242 125.64 50.0759C125.263 50.5328 125.074 51.0947 125.074 51.7613C125.074 52.428 125.263 52.9898 125.64 53.4468Z" fill="white"/>
<path d="M134.223 54.5839H130.722V48.9388H134.117V49.4791H131.245V51.2855H133.6V51.8259H131.245V54.0436H134.223V54.5839Z" fill="white"/>
<path d="M137.018 55.842H136.53V54.0436H136.997C137.303 53.5543 137.523 52.9818 137.655 52.3259C137.791 51.6592 137.86 50.756 137.86 49.6162V48.9388H140.915V54.0436H141.664V55.842H141.176V54.5839H137.018V55.842ZM137.584 54.0436H140.391V49.4791H138.376V49.8581C138.376 51.7828 138.112 53.178 137.584 54.0436Z" fill="white"/>
<path d="M144.962 54.5839H142.6V48.9388H144.743C145.181 48.9388 145.528 49.0624 145.782 49.3097C146.037 49.5517 146.164 49.885 146.164 50.3097C146.164 50.6 146.105 50.85 145.988 51.0597C145.874 51.2694 145.716 51.4172 145.514 51.5033C145.844 51.5624 146.105 51.7264 146.299 51.9952C146.492 52.264 146.589 52.6027 146.589 53.0113C146.589 53.4898 146.442 53.8716 146.15 54.1565C145.858 54.4414 145.462 54.5839 144.962 54.5839ZM143.124 51.85V54.0436H144.87C145.238 54.0436 145.523 53.9468 145.726 53.7533C145.929 53.5597 146.03 53.2882 146.03 52.9388C146.03 52.5947 145.929 52.3285 145.726 52.1404C145.523 51.9468 145.238 51.85 144.87 51.85H143.124ZM143.124 49.4791V51.3259H144.658C144.974 51.3259 145.217 51.2479 145.386 51.092C145.561 50.9361 145.648 50.7103 145.648 50.4146C145.648 50.1135 145.561 49.8823 145.386 49.721C145.217 49.5597 144.974 49.4791 144.658 49.4791H143.124Z" fill="white"/>
<path d="M148.17 54.5839H147.731V48.9388H148.247V53.5839L151.324 48.9388H151.783V54.5839H151.267V49.9226L148.17 54.5839Z" fill="white"/>
<path d="M152.954 48.9388H153.619L155.691 51.4468V48.9388H156.214V51.4629L158.3 48.9388H158.965L156.744 51.6162L159.248 54.5839H158.547L156.214 51.8097V54.5839H155.691V51.8259L153.371 54.5839H152.678L155.174 51.6162L152.954 48.9388Z" fill="white"/>
<path d="M163.655 54.5839H160.155V48.9388H163.549V49.4791H160.678V51.2855H163.033V51.8259H160.678V54.0436H163.655V54.5839Z" fill="white"/>
<path d="M165.201 54.5839H164.678V48.9388H165.201V51.2855H168.143V48.9388H168.667V54.5839H168.143V51.8259H165.201V54.5839Z" fill="white"/>
<path d="M170.496 54.5839H170.058V48.9388H170.574V53.5839L173.65 48.9388H174.11V54.5839H173.594V49.9226L170.496 54.5839Z" fill="white"/>
<path d="M179 54.5839H175.5V48.9388H178.894V49.4791H176.023V51.2855H178.378V51.8259H176.023V54.0436H179V54.5839Z" fill="white"/>
<path fill-rule="evenodd" clip-rule="evenodd" d="M272.897 11.4349C272.901 13.488 273.306 14.8356 274.196 15.7541C275.216 16.806 276.337 17.5572 276.622 17.3796C276.769 17.288 276.809 17.3146 276.726 17.4492C276.558 17.7229 277.31 18.1453 277.632 17.9586C277.764 17.8821 277.804 17.8949 277.721 17.9869C277.487 18.2468 278.603 18.6541 278.902 18.4174C279.084 18.2725 279.12 18.2981 279.038 18.5139C278.918 18.8287 280.421 19.4467 283.156 20.2065L284.536 20.5901L284.167 19.8407C283.796 19.085 282.853 18.534 282.388 18.8012C282.266 18.8713 282.233 18.855 282.314 18.765C282.395 18.6751 281.819 18.2407 281.033 17.7997C280.248 17.3588 279.226 16.6884 278.762 16.31C278.298 15.9316 277.82 15.6515 277.7 15.6874C277.58 15.7236 277.549 15.6859 277.63 15.6039C277.831 15.4012 276.988 14.5213 276.74 14.6754C276.632 14.7428 276.599 14.7078 276.666 14.5974C276.823 14.3424 276.139 13.7031 275.922 13.9014C275.833 13.9828 275.809 13.9608 275.869 13.8527C276.005 13.6054 275.527 13.1407 275.324 13.3239C275.242 13.3986 275.228 13.3646 275.294 13.2488C275.359 13.1328 274.846 12.3543 274.154 11.519L272.895 10L272.897 11.4349ZM347.889 10.4518C347.76 10.5815 347.655 10.738 347.655 10.7993C347.655 10.8608 347.132 11.4779 346.493 12.1709C345.855 12.8641 345.378 13.5059 345.434 13.5975C345.49 13.6891 345.464 13.7514 345.375 13.7359C344.988 13.6683 344.89 13.7743 345.103 14.0318C345.263 14.2264 345.269 14.3481 345.122 14.4395C345.006 14.5113 344.925 14.4971 344.94 14.4078C345.032 13.8779 344.788 14.0168 343.6 15.1722C342.872 15.8793 341.709 16.8207 341.013 17.2646C340.318 17.7083 339.641 18.1634 339.509 18.2761C339.377 18.3885 339.201 18.474 339.119 18.466C339.036 18.4579 338.573 18.6401 338.09 18.8711C337.494 19.156 337.11 19.5061 336.896 19.96L336.581 20.6292L337.091 20.5067C337.372 20.4393 337.725 20.2858 337.876 20.1655C338.027 20.0451 338.18 19.9689 338.218 19.996C338.255 20.0231 338.307 20.0391 338.334 20.0316C338.361 20.0241 338.607 19.9877 338.882 19.9508C339.698 19.8407 343.556 18.2519 343.556 18.0258C343.556 17.911 343.611 17.8731 343.679 17.9413C343.862 18.1253 344.561 17.6971 344.429 17.4819C344.367 17.3804 344.438 17.3446 344.588 17.4024C344.835 17.4978 347.098 15.954 347.376 15.5003C347.44 15.3955 347.376 15.159 347.232 14.9744C347.001 14.6772 347.008 14.6677 347.292 14.8911C347.569 15.1097 347.643 15.0576 347.844 14.4979C348.064 13.8836 348.372 10.2159 348.203 10.2159C348.159 10.2159 348.018 10.322 347.889 10.4518ZM273.7 12.4308C273.507 12.6234 273.485 12.6008 273.591 12.3207C273.664 12.1269 273.773 12.0178 273.833 12.0783C273.893 12.1387 273.833 12.2973 273.7 12.4308ZM343.753 13.9547C342.949 14.7096 342.381 15.3271 342.49 15.3271C342.598 15.3271 343.298 14.7078 344.043 13.951C344.789 13.1941 345.358 12.5767 345.307 12.5786C345.256 12.5808 344.557 13.2 343.753 13.9547ZM277.558 14.3206C279.942 16.6442 282.552 18.1678 285.458 18.9321C286.048 19.0872 287.705 19.2179 289.396 19.2427C294.139 19.3123 296.399 19.8596 298.852 21.5331C300.494 22.6533 300.581 22.7305 301.4 23.7803C302.806 25.5814 303.057 26.2286 302.418 26.3972C302.23 26.4468 302.45 26.4829 302.906 26.4776C303.774 26.4676 303.889 26.3725 303.503 25.984C303.376 25.8554 303.255 25.6362 303.234 25.4971C303.14 24.8487 301.619 22.9841 300.095 21.6475C299.241 20.8985 297.598 20.0017 297.416 20.1851C297.349 20.2523 297.294 20.1989 297.294 20.0664C297.294 19.9339 297.206 19.88 297.099 19.9469C296.992 20.0137 296.904 19.9909 296.904 19.8961C296.904 19.7104 295.168 19.1118 294.126 18.9382C293.775 18.8796 291.731 18.7601 289.584 18.6722C285.396 18.501 284.231 18.2861 282.117 17.2953C280.502 16.5383 279.069 15.5642 277.865 14.4059C277.324 13.8853 276.709 13.3368 276.499 13.1871C276.288 13.0373 276.765 13.5474 277.558 14.3206ZM341.263 16.0674C340.808 16.3631 340.435 16.6755 340.434 16.7618C340.433 16.8481 340.828 16.6448 341.311 16.31C341.794 15.9752 342.189 15.6615 342.189 15.6125C342.189 15.4737 342.143 15.4963 341.263 16.0674ZM273.381 16.1134C273.449 16.3837 273.527 16.7376 273.554 16.8998C273.685 17.6796 273.929 18.2627 274.085 18.166C274.179 18.107 274.199 18.2106 274.128 18.3962C274.042 18.6236 274.073 18.6877 274.226 18.5928C274.37 18.5031 274.413 18.555 274.344 18.7357C274.173 19.1837 275.334 20.3471 276.422 20.8185C277.774 21.4045 279.936 21.9418 281.581 22.1008C284.567 22.3896 285.028 22.3963 284.913 22.1498C284.852 22.0195 284.751 21.7704 284.689 21.5966C284.576 21.2803 281.056 20.0957 280.556 20.2054C280.422 20.2349 280.312 20.1763 280.312 20.075C280.312 19.974 280.103 19.8381 279.847 19.7735C279.591 19.7088 278.778 19.3752 278.041 19.0319C277.304 18.6889 276.635 18.4225 276.555 18.4402C276.474 18.4579 276.408 18.384 276.408 18.2759C276.408 18.1678 276.326 18.0793 276.225 18.0793C275.888 18.0793 273.915 16.6108 273.584 16.1134L273.256 15.622L273.381 16.1134ZM346.386 17.1032C345.634 17.7252 344.963 18.2004 344.895 18.1589C344.827 18.1176 344.651 18.2322 344.505 18.4141C344.279 18.6948 344.28 18.7196 344.513 18.578C344.695 18.4675 344.742 18.485 344.653 18.6301C344.579 18.7502 344.399 18.8021 344.253 18.7455C344.106 18.6889 343.41 18.9138 342.705 19.2454C342.001 19.5773 341.333 19.8486 341.221 19.8486C341.11 19.8486 341.018 19.9423 341.018 20.0567C341.018 20.1712 340.941 20.2172 340.847 20.1586C340.753 20.1002 340.292 20.1761 339.822 20.3274C339.353 20.4788 338.459 20.7562 337.836 20.9439C336.971 21.2044 336.635 21.4161 336.418 21.839L336.134 22.3928L337.454 22.3012C338.179 22.2508 339.037 22.1612 339.359 22.102C339.681 22.0429 340.12 21.9949 340.335 21.9955C340.949 21.9974 344.141 21.2074 344.141 21.0534C344.141 20.9774 344.327 20.9011 344.553 20.884C344.78 20.8667 345.116 20.7151 345.301 20.5472C345.485 20.3791 345.739 20.2417 345.864 20.2417C345.99 20.2417 346.093 20.1668 346.093 20.0752C346.093 19.9836 346.272 19.7013 346.49 19.4477C346.708 19.1943 346.841 18.8666 346.785 18.7194C346.729 18.5723 346.764 18.5021 346.862 18.5635C347.139 18.7359 347.324 17.8974 347.076 17.5959C346.911 17.3956 346.914 17.2912 347.09 17.1819C347.233 17.0924 347.274 17.1186 347.194 17.2489C347.122 17.3663 347.148 17.5153 347.252 17.5802C347.418 17.6838 347.971 16.1525 347.814 16.0228C347.78 15.9949 347.137 16.481 346.386 17.1032ZM275.72 16.2829C275.554 16.4492 275.031 16.4871 275.13 16.3255C275.18 16.2449 275.356 16.1789 275.521 16.1789C275.687 16.1789 275.776 16.2257 275.72 16.2829ZM339.847 16.9981C339.709 17.1656 339.554 17.2599 339.502 17.2078C339.45 17.1557 339.046 17.2994 338.603 17.5271C338.16 17.7545 337.753 17.9431 337.7 17.9458C337.646 17.9486 337.207 18.0736 336.724 18.2236C336.184 18.3913 334.146 18.5658 331.442 18.6759C327.848 18.8222 326.79 18.9325 325.684 19.2761C324.076 19.7756 322.084 20.7531 322.084 21.0424C322.084 21.1555 321.996 21.1932 321.889 21.1264C321.781 21.0595 321.694 21.0882 321.694 21.1901C321.694 21.2921 321.509 21.424 321.284 21.4834C321.023 21.5522 320.927 21.6788 321.021 21.8315C321.106 21.9705 321.087 22.0212 320.976 21.9518C320.708 21.7849 318.883 23.6902 319.05 23.9629C319.126 24.0868 319.077 24.1595 318.938 24.1292C318.7 24.0769 317.593 25.8401 317.614 26.2376C317.621 26.3457 317.668 26.3286 317.72 26.1995C317.772 26.0705 317.933 26.0105 318.077 26.0662C318.31 26.1562 318.509 25.8444 318.594 25.2547C318.61 25.1466 318.787 24.9425 318.987 24.8012C319.187 24.66 319.351 24.4379 319.351 24.3079C319.351 24.1778 319.534 23.9564 319.758 23.8157C319.997 23.6651 320.119 23.4392 320.053 23.2666C319.992 23.1054 320.013 23.0181 320.101 23.0728C320.188 23.1274 320.522 22.933 320.841 22.6407C321.585 21.9595 322.726 21.2046 323.948 20.5844C325.562 19.7656 327.524 19.4296 331.551 19.2826C333.591 19.2083 335.388 19.0675 335.544 18.97C335.7 18.8725 336.068 18.7662 336.361 18.7339C336.987 18.6647 339.134 17.7136 339.229 17.4632C339.265 17.3682 339.362 17.3325 339.444 17.3838C339.641 17.5062 340.369 16.9674 340.216 16.8129C340.151 16.7472 339.985 16.8306 339.847 16.9981ZM284.997 19.5796C284.997 19.648 285.179 20.0001 285.401 20.3624C285.902 21.1777 286.863 21.8895 287.259 21.7368C287.427 21.6715 287.503 21.7061 287.435 21.817C287.279 22.0718 288.208 22.4423 289.194 22.5188C289.623 22.552 290.018 22.5911 290.072 22.6059C290.126 22.6204 291.773 22.6342 293.732 22.6363C295.691 22.6385 297.294 22.7004 297.294 22.774C297.294 22.988 298.501 23.3869 298.738 23.2511C298.856 23.1831 298.888 23.2002 298.808 23.2888C298.728 23.3775 298.842 23.5764 299.061 23.7305C299.394 23.9655 299.512 23.9684 299.791 23.7482C300.081 23.5196 300.094 23.5245 299.892 23.7868C299.697 24.0386 299.835 24.2252 300.723 24.9171C301.308 25.3732 301.827 25.7461 301.876 25.7461C301.925 25.7461 301.797 25.4585 301.591 25.1072C301.071 24.221 299.52 22.725 299.278 22.876C299.168 22.9444 299.015 22.8968 298.937 22.7702C298.849 22.6265 298.88 22.5927 299.021 22.6804C299.145 22.7574 299.246 22.7268 299.246 22.6124C299.246 22.498 299.165 22.4042 299.065 22.4042C298.965 22.4042 298.761 22.2809 298.612 22.1305C298.225 21.7403 296.585 20.9388 295.44 20.5799C294.02 20.1348 291.071 19.8344 288.603 19.8834C287.419 19.9069 286.343 19.8592 286.212 19.7774C286.077 19.6937 285.973 19.7259 285.973 19.8509C285.973 19.9795 285.844 19.9429 285.666 19.7642C285.355 19.4513 284.997 19.3524 284.997 19.5796ZM335.922 19.5417C335.708 19.7571 334.51 19.8718 332.598 19.8598C330.394 19.846 326.88 20.1484 326.505 20.3841C326.382 20.4617 326.113 20.5516 325.908 20.5836C325.702 20.6158 325.226 20.8342 324.848 21.0692C324.465 21.3076 324.235 21.377 324.328 21.2266C324.419 21.0782 324.017 21.2369 323.435 21.5791C322.853 21.9214 322.401 22.2978 322.431 22.4156C322.46 22.5335 322.407 22.5823 322.314 22.5239C322.083 22.3804 321.266 23.1667 321.407 23.3965C321.469 23.4988 321.371 23.522 321.182 23.449C320.927 23.3505 320.875 23.3963 320.967 23.6378C321.05 23.8571 321.004 23.9244 320.819 23.8526C320.541 23.7453 319.113 25.5165 319.27 25.7731C319.316 25.8472 319.657 25.6366 320.028 25.3054C320.4 24.9741 320.667 24.6429 320.622 24.5694C320.577 24.4959 320.646 24.4355 320.776 24.4355C320.906 24.4355 321.375 24.2053 321.817 23.924C323.647 22.761 323.89 22.7079 327.55 22.6713C329.428 22.6527 331.009 22.6242 331.063 22.6082C331.117 22.5923 331.512 22.552 331.941 22.5188C332.902 22.4445 333.857 22.0739 333.71 21.8331C333.649 21.7348 333.765 21.6978 333.965 21.7507C334.396 21.8642 335.48 20.9673 336.003 20.0644C336.294 19.5612 336.242 19.2201 335.922 19.5417ZM345.898 19.7715C345.898 19.9341 345.519 20.0261 345.432 19.8845C345.375 19.7927 345.457 19.7174 345.614 19.7174C345.77 19.7174 345.898 19.7418 345.898 19.7715ZM275.045 21.4266C275.568 22.4598 276.594 23.613 276.849 23.4543C276.966 23.3812 276.997 23.4199 276.92 23.545C276.742 23.8359 277.843 24.4005 278.299 24.2519C278.594 24.1556 278.605 24.1715 278.36 24.3484C278.148 24.5021 278.897 24.5379 281.093 24.4791C282.757 24.4343 284.45 24.3954 284.856 24.3923C285.876 24.3844 286.022 24.2493 285.696 23.6153C285.428 23.0932 285.352 23.073 282.75 22.8259C279.662 22.5325 277.366 22.0016 275.776 21.2125L274.655 20.6563L275.045 21.4266ZM345.898 20.986C345.629 21.1677 345.366 21.3621 345.312 21.4179C345.259 21.4737 345.083 21.5404 344.922 21.5661C344.761 21.5917 343.795 21.8378 342.775 22.1132C341.755 22.3886 340.613 22.6477 340.237 22.6892C339.861 22.7307 339.027 22.8312 338.383 22.9124C337.739 22.9935 337.048 23.038 336.849 23.011C336.177 22.9202 335.621 23.1779 335.391 23.6865C335.067 24.4011 335.071 24.4054 336 24.3478C336.46 24.3193 336.928 24.3523 337.038 24.4212C337.262 24.5601 341.314 24.627 342.384 24.5094C343.51 24.3856 344.617 23.6857 344.626 23.0922C344.628 22.9841 344.717 22.8943 344.824 22.8927C345.209 22.8866 345.532 22.5557 345.425 22.2758C345.366 22.1189 345.4 22.0425 345.502 22.106C345.604 22.1695 345.869 21.8646 346.09 21.4281C346.31 20.9919 346.468 20.6396 346.439 20.6451C346.41 20.6508 346.166 20.8042 345.898 20.986ZM285.92 22.2359C286.11 22.6299 286.345 22.9037 286.442 22.8445C286.539 22.7852 286.56 22.8323 286.488 22.9495C286.295 23.2646 287.404 24.8047 288.135 25.2358C288.863 25.6648 291.114 25.7255 292.615 25.3567C293.438 25.1544 296.808 25.0846 297.671 25.2521C297.888 25.2942 298.644 25.6064 299.35 25.9457C300.371 26.4364 300.691 26.5148 300.914 26.3288C301.251 26.0465 301.078 25.6752 300.68 25.8287C300.525 25.8891 300.449 25.8537 300.512 25.7505C300.662 25.5067 299.236 24.4528 297.921 23.8359C297.075 23.4386 296.836 23.396 296.593 23.599C296.351 23.8013 296.307 23.7956 296.356 23.5678C296.406 23.3368 295.693 23.2656 292.219 23.1544C287.558 23.0049 287.051 22.9658 286.825 22.7378C286.739 22.6511 286.841 22.6346 287.052 22.7012C287.264 22.7679 287.173 22.6696 286.851 22.483C286.529 22.2963 286.248 22.1801 286.225 22.2247C286.203 22.2693 286.048 22.129 285.879 21.9127C285.646 21.6131 285.656 21.69 285.92 22.2359ZM334.911 22.08C333.731 23.0529 332.599 23.2811 329.152 23.2408C326.992 23.2157 326.013 23.2694 326.098 23.4083C326.168 23.5208 326.047 23.5013 325.831 23.3653C325.514 23.1663 325.271 23.1663 324.59 23.3657C323.349 23.729 322.067 24.3793 322.191 24.5822C322.251 24.6793 322.185 24.7152 322.045 24.662C321.906 24.6087 321.396 24.9156 320.913 25.3439C320.049 26.1096 320.043 26.1226 320.567 26.1309C320.86 26.1356 321.754 25.9182 322.553 25.6478C324.302 25.0567 326.23 25.0034 329.064 25.4678C331.31 25.8358 332.455 25.7267 333.32 25.0618C334.093 24.4679 334.851 23.2817 334.658 22.9672C334.578 22.8367 334.6 22.7889 334.709 22.8569C334.816 22.923 335.047 22.6713 335.224 22.2974C335.401 21.9237 335.526 21.621 335.501 21.6249C335.475 21.6288 335.21 21.8335 334.911 22.08ZM276.604 24.7449C276.604 24.843 277.042 25.3207 277.579 25.8065C278.731 26.8498 279.969 27.2337 281.497 27.0222C282.044 26.9463 282.727 26.8559 283.013 26.8215C283.993 26.7031 285.431 26.3845 286.045 26.1489C286.306 26.0493 286.571 26.0212 286.636 26.0864C286.701 26.1515 286.754 26.1047 286.754 25.9824C286.754 25.8602 286.576 25.664 286.358 25.5466C286.14 25.4292 286.01 25.2553 286.068 25.1601C286.127 25.065 286.085 24.9315 285.976 24.8635C285.867 24.7956 285.778 24.8214 285.778 24.9209C285.778 25.0205 285.549 25.0577 285.269 25.0038C284.957 24.9439 284.694 25.0113 284.589 25.1786C284.495 25.3286 284.416 25.3628 284.415 25.2547C284.413 25.131 283.115 25.0581 280.917 25.0581C278.646 25.0581 277.46 25.1269 277.53 25.2547C277.589 25.3628 277.445 25.2521 277.21 25.0089C276.748 24.5303 276.604 24.4672 276.604 24.7449ZM344.459 24.705C344.383 24.7813 344.083 24.8753 343.792 24.9138C343.501 24.9523 343.237 25.0575 343.205 25.1475C343.173 25.2376 342.997 25.2802 342.814 25.2423C342.631 25.2045 340.821 25.1326 338.792 25.0829C335.19 24.9944 335.093 25.0025 334.748 25.4182C334.324 25.9294 334.281 26.2201 334.65 26.0774C334.798 26.0202 334.996 26.0477 335.09 26.1383C335.183 26.2292 335.54 26.3463 335.882 26.3988C336.224 26.4515 336.576 26.5386 336.663 26.5926C336.75 26.6465 337.348 26.7444 337.992 26.8099C338.637 26.8755 339.413 26.9813 339.718 27.0452C340.41 27.1903 342.037 26.9587 341.9 26.7348C341.844 26.6438 341.954 26.6103 342.145 26.6605C342.372 26.7202 342.895 26.377 343.658 25.6681C344.299 25.072 344.773 24.5804 344.71 24.5755C344.648 24.5706 344.535 24.6289 344.459 24.705ZM321.303 25.6691C321.303 25.8317 320.924 25.9237 320.837 25.7821C320.781 25.6903 320.863 25.615 321.019 25.615C321.175 25.615 321.303 25.6394 321.303 25.6691ZM292.512 26.0328C291.278 26.3003 288.65 26.3125 288.071 26.0536C287.527 25.81 287.672 26.167 288.523 27.1669C289.749 28.6071 290.324 28.6865 293.266 27.8221C295.691 27.1095 297.062 26.9697 298.253 27.3139C298.801 27.4722 298.961 27.4462 299.168 27.1665C299.51 26.7014 299.219 26.4476 297.893 26.0579C296.63 25.6864 294.164 25.675 292.512 26.0328ZM324.036 25.9292C324.036 26.0575 323.952 26.1104 323.85 26.0465C323.595 25.8881 322.601 26.1546 322.802 26.3276C322.89 26.4037 323.489 26.6084 324.134 26.7821C324.778 26.9561 326.403 27.4163 327.745 27.8048C329.087 28.1934 330.404 28.4708 330.673 28.4211C330.941 28.3715 331.233 28.3244 331.321 28.3163C331.41 28.3082 331.915 27.8614 332.444 27.323C333.437 26.3125 333.711 25.7642 333.043 26.1242C332.608 26.3587 328.934 26.2952 328.534 26.0461C328.07 25.7577 324.036 25.6526 324.036 25.9292ZM285.29 27.0495C284.016 27.4218 283.541 27.4842 281.109 27.5964C279.943 27.6501 278.902 27.6062 278.669 27.4934C278.264 27.2972 278.401 27.4352 279.565 28.3953C280.071 28.8129 280.702 29.1186 280.706 28.9475C280.707 28.8626 280.784 28.9131 280.876 29.0596C281.072 29.3706 283.423 29.613 283.96 29.3777C284.154 29.2922 284.38 29.2363 284.46 29.2534C284.541 29.2707 284.607 29.2184 284.607 29.1372C284.607 29.0563 284.846 28.9759 285.138 28.9587C285.429 28.9416 285.699 28.8361 285.736 28.724C285.773 28.6122 285.943 28.5748 286.115 28.6411C286.339 28.7278 286.382 28.6882 286.268 28.5013C286.163 28.3318 286.183 28.288 286.324 28.3759C286.444 28.4502 286.857 28.378 287.243 28.2155L287.945 27.9202L287.508 27.3245C287.021 26.6612 286.738 26.6263 285.29 27.0495ZM333.634 27.33L333.18 27.9094L334.103 28.308C334.611 28.5272 335.166 28.735 335.338 28.77C335.51 28.8048 335.87 28.9247 336.138 29.0364C336.476 29.177 336.704 29.1758 336.881 29.0323C337.069 28.8797 337.12 28.8964 337.076 29.0954C337.011 29.3922 338.62 29.7303 338.789 29.4553C338.841 29.3708 339.014 29.3523 339.173 29.414C339.517 29.5469 340.628 29.1209 340.628 28.8561C340.628 28.7547 340.705 28.7197 340.799 28.7783C340.961 28.8793 342.775 27.6108 342.775 27.3965C342.775 27.341 342.675 27.3576 342.554 27.433C342.241 27.6275 338.886 27.8463 338.997 27.665C339.048 27.5826 338.798 27.5148 338.443 27.514C338.088 27.5133 337.067 27.3363 336.175 27.1209C335.282 26.9054 334.448 26.734 334.32 26.7399C334.193 26.746 333.884 27.0116 333.634 27.33ZM294.171 28.2157C291.962 28.9501 290.609 29.2279 290.018 29.0686C289.726 28.99 289.486 28.9601 289.486 29.0022C289.486 29.0445 289.927 29.4294 290.464 29.8575C291.254 30.4864 291.602 30.6362 292.27 30.6372C293.206 30.6384 294.171 30.3223 294.171 30.0144C294.171 29.9014 294.226 29.8638 294.292 29.9309C294.359 29.9979 294.952 29.7771 295.61 29.44C296.376 29.0476 297.116 28.8211 297.668 28.8103C298.142 28.8009 298.558 28.7048 298.592 28.5966C298.878 27.6906 296.394 27.4765 294.171 28.2157ZM317.302 28.1119C315.947 28.3898 315.008 28.8732 315.142 29.2241C315.235 29.4679 315.203 29.4885 314.999 29.3181C314.679 29.0504 313.804 29.5815 314.01 29.9183C314.09 30.0488 314.05 30.075 313.907 29.9857C313.613 29.8027 312.267 31.1955 312.45 31.4933C312.525 31.615 312.488 31.6476 312.364 31.5704C312.112 31.4133 311.665 32.1507 311.84 32.4356C311.905 32.5421 311.826 32.6807 311.664 32.7434C311.332 32.8716 310.671 34.6772 310.849 34.9676C310.912 35.0708 310.875 35.2106 310.766 35.2786C310.313 35.5603 310.461 36.1379 312.881 43.5372C313.058 44.0778 313.247 44.5643 313.3 44.6184C313.354 44.6725 313.398 44.8051 313.398 44.9133C313.398 45.3322 313.941 46.9662 314.057 46.8949C314.124 46.8534 314.19 47.0541 314.204 47.3407C314.218 47.6275 314.414 48.3496 314.64 48.9452C315.034 49.9862 315.098 50.0477 316.273 50.5179C317.37 50.9565 317.771 51.0066 320.132 50.9994C322.898 50.9907 324.664 50.6418 325.329 49.9724C325.503 49.7969 325.797 49.6419 325.982 49.6282C326.453 49.5932 327.577 48.7544 327.444 48.5373C327.384 48.4386 327.486 48.4166 327.671 48.4882C327.926 48.5867 327.978 48.5409 327.886 48.2995C327.803 48.0807 327.849 48.013 328.032 48.0838C328.61 48.3071 328.729 47.4225 328.676 43.2969L328.623 39.2123H324.231H319.839V40.8833V42.5542L321.498 42.5822C322.411 42.5977 323.18 42.6639 323.206 42.7296C323.233 42.7955 323.255 43.6498 323.255 44.6284V46.4077L322.571 46.6957C321.535 47.1315 319.777 47.256 318.766 46.9648C318.283 46.8259 317.756 46.7358 317.595 46.7651C317.434 46.7944 317.362 46.7561 317.437 46.6802C317.511 46.6041 317.357 46.3092 317.095 46.0246C316.024 44.8616 315.94 44.4432 315.873 39.9442C315.82 36.4398 315.863 35.6008 316.137 34.771C316.57 33.4558 317.64 32.3418 318.766 32.0341C319.953 31.7094 321.749 32.0302 322.3 32.6656C322.833 33.2815 323.441 34.5927 323.446 35.139C323.45 35.5847 323.465 35.5868 325.92 35.5322C328.312 35.4789 328.392 35.4632 328.456 35.0348C328.493 34.7916 328.426 34.5925 328.308 34.5925C328.19 34.5925 328.141 34.4665 328.2 34.3124C328.34 33.945 327.976 32.6133 327.627 32.2176C327.477 32.0465 327.39 31.8696 327.435 31.8242C327.758 31.499 325.026 28.7382 324.627 28.9865C324.541 29.0399 324.367 28.9578 324.24 28.8036C323.664 28.1048 319.406 27.6802 317.302 28.1119ZM327.528 28.8821C327.91 29.2656 328.297 29.5552 328.388 29.5255C328.48 29.4958 328.508 29.5477 328.451 29.6409C328.29 29.903 328.898 30.6608 329.269 30.66C329.737 30.659 330.909 29.9041 330.777 29.6885C330.716 29.5894 330.769 29.4445 330.895 29.3663C331.05 29.2694 331.072 29.3122 330.962 29.4999C330.873 29.6519 330.992 29.6077 331.225 29.4017C331.458 29.1956 331.649 29.0106 331.649 28.9906C331.649 28.9703 331.254 29.0142 330.772 29.0879C330.289 29.1616 329.848 29.175 329.791 29.1176C329.734 29.0602 329.045 28.8266 328.261 28.5988L326.834 28.1844L327.528 28.8821ZM300.417 28.493C300.417 28.7985 300.378 28.9381 300.112 29.5796C299.977 29.9039 299.857 30.2348 299.844 30.3148C299.832 30.3946 299.781 30.5715 299.732 30.708C299.153 32.3141 298.682 34.0745 298.786 34.2442C298.869 34.3804 298.823 34.3989 298.658 34.2957C298.474 34.1814 298.433 34.2227 298.515 34.438C298.578 34.6047 298.552 34.8202 298.456 34.9169C298.36 35.0134 298.248 35.2674 298.208 35.4813C298.168 35.6954 298.023 36.1357 297.887 36.4601C297.751 36.7844 297.628 37.2844 297.613 37.5712C297.599 37.8578 297.536 38.0609 297.473 38.0223C297.284 37.9052 296.678 40.0826 296.827 40.3442C296.904 40.4785 296.891 40.5188 296.798 40.4339C296.594 40.2471 296.094 41.8487 296.262 42.1473C296.327 42.2631 296.307 42.2896 296.216 42.2063C296.085 42.087 294.604 46.2271 294.297 47.5672C294.26 47.7294 294.179 47.9948 294.118 48.1569C293.924 48.6659 293.578 49.8507 293.493 50.2907C293.414 50.7049 293.459 50.7126 295.99 50.7126H298.568L298.943 49.3948C299.149 48.6702 299.333 47.9403 299.352 47.773C299.419 47.1766 299.826 46.3875 300.071 46.3786C300.208 46.3735 301.668 46.3774 303.315 46.3875C305.108 46.3981 306.407 46.3242 306.552 46.2031C306.722 46.0607 306.795 46.0727 306.797 46.2434C306.798 46.3769 307.038 47.2821 307.329 48.2552C307.62 49.2283 307.903 50.1792 307.957 50.3685C308.045 50.6744 308.35 50.7126 310.699 50.7126C313.029 50.7126 313.328 50.6758 313.224 50.4016C313.158 50.2305 313.105 50.0043 313.105 49.8985C313.105 49.7929 313.018 49.7605 312.912 49.8265C312.803 49.8946 312.768 49.8185 312.832 49.651C312.894 49.4884 312.873 49.2405 312.786 49.1002C312.699 48.9598 312.61 48.7274 312.589 48.5839C312.567 48.4402 312.486 48.1748 312.408 47.9942C312.33 47.8133 312.233 47.4885 312.194 47.2723C312.154 47.0561 311.827 45.9945 311.466 44.9133C311.106 43.832 310.263 41.2224 309.592 39.114C308.922 37.0056 308.282 35.0594 308.171 34.7891C308.06 34.5188 307.936 34.1038 307.897 33.8669C307.857 33.63 307.694 33.1218 307.535 32.7375C307.375 32.3532 307.235 31.972 307.224 31.8904C307.212 31.8088 307.117 31.5209 307.013 31.2505C306.908 30.9802 306.789 30.5776 306.747 30.3559C306.704 30.1341 306.55 29.6034 306.403 29.1764L306.137 28.4001L303.277 28.3456C301.416 28.3102 300.417 28.3617 300.417 28.493ZM281.573 28.6814C281.635 28.782 281.61 28.9108 281.519 28.9676C281.428 29.0244 281.353 28.942 281.353 28.7846C281.353 28.4531 281.415 28.4242 281.573 28.6814ZM285.404 29.5397C283.116 30.3107 283.018 30.3651 283.647 30.5094C285.019 30.8238 287.26 30.7143 288.222 30.2861L289.132 29.8805L288.543 29.2876C288.22 28.9617 287.926 28.7012 287.891 28.7089C287.856 28.7166 286.737 29.0903 285.404 29.5397ZM295.538 28.7692C295.538 28.8099 295.384 28.9648 295.196 29.1133C294.886 29.3576 294.88 29.3507 295.122 29.039C295.377 28.7114 295.538 28.6074 295.538 28.7692ZM333.187 28.8424C333.174 28.9234 333.174 29.0563 333.187 29.1372C333.2 29.2182 333.144 29.266 333.064 29.243C332.983 29.22 332.726 29.3258 332.493 29.4777C332.108 29.728 332.098 29.7765 332.387 29.9889C332.638 30.1738 332.81 30.1613 333.202 29.9299C333.662 29.6576 333.671 29.6592 333.322 29.9499C333.115 30.1225 333.006 30.324 333.079 30.398C333.247 30.5668 334.758 30.7034 336.04 30.6661C337.104 30.635 338.592 30.3352 338.041 30.2631C337.502 30.1927 337.419 30.1707 337.212 30.0447C337.002 29.9175 335.763 29.6676 335.477 29.695C335.381 29.704 335.25 29.6315 335.184 29.5338C335.079 29.3771 333.55 28.6949 333.304 28.6949C333.252 28.6949 333.2 28.7614 333.187 28.8424ZM297.489 29.4929C297.489 29.6073 297.407 29.6496 297.306 29.5868C297.205 29.5239 296.508 29.7488 295.758 30.0868C294.716 30.5558 294.418 30.7776 294.496 31.0249C294.571 31.2627 294.55 31.2818 294.418 31.0964C294.221 30.8204 293.521 30.9869 293.694 31.2688C293.753 31.3644 293.687 31.4003 293.547 31.3486C293.407 31.2971 292.913 31.3695 292.45 31.5096L291.606 31.7644L292.45 32.1873C293.892 32.9103 294.073 32.8757 295.351 31.6359C296.028 30.9781 296.653 30.5692 297.21 30.4192C297.974 30.2134 298.426 29.7038 298.119 29.3944C297.931 29.2057 297.489 29.2747 297.489 29.4929ZM281.483 30.5422C281.483 30.6836 282.55 31.4159 282.856 31.4845C283.005 31.5181 283.286 31.6858 283.479 31.8572C284.111 32.4179 285.249 32.6583 287.779 32.7654C289.719 32.8476 290.341 32.8114 290.598 32.6013C290.882 32.3689 290.904 32.3725 290.755 32.6266C290.612 32.8714 290.634 32.88 290.882 32.6776C291.047 32.5433 291.24 32.4763 291.312 32.5284C291.383 32.5806 291.364 32.5291 291.27 32.4141C291.175 32.2991 290.274 32.1641 289.267 32.114C287.026 32.0027 286.16 31.9174 285.778 31.7711C285.617 31.7094 284.743 31.4721 283.835 31.2439C282.928 31.0156 282.027 30.7436 281.834 30.6396C281.641 30.5356 281.483 30.4917 281.483 30.5422ZM288.623 30.9065C288.444 31.1497 288.345 31.2464 288.404 31.1214C288.485 30.9492 288.333 30.9492 287.779 31.1214L287.047 31.3488L288.218 31.488C288.862 31.5647 289.636 31.5785 289.939 31.5187L290.488 31.4102L289.852 30.9372C289.071 30.3573 289.028 30.3563 288.623 30.9065ZM331.198 30.962C330.553 31.5334 330.734 31.582 333.064 31.4642C333.793 31.4273 333.838 31.4 333.436 31.2378C333.185 31.1361 332.886 31.1114 332.772 31.1823C332.658 31.2533 332.619 31.222 332.686 31.1131C332.753 31.004 332.587 30.8135 332.317 30.6895C331.72 30.4156 331.851 30.3836 331.198 30.962ZM338.676 30.8318C338.193 31.0082 337.753 31.1965 337.7 31.2505C337.646 31.3046 337.34 31.3775 337.019 31.4127C336.698 31.4479 336.391 31.5364 336.336 31.6093C336.281 31.6822 336.016 31.7524 335.748 31.7652C335.479 31.7778 334.276 31.9172 333.073 32.0748C331.871 32.2325 330.932 32.2883 330.986 32.1991C331.147 31.9368 330.411 32.0255 330.034 32.3139C329.709 32.562 329.715 32.5858 330.131 32.6982C331.511 33.0705 336.896 32.6728 336.617 32.2191C336.557 32.1214 336.642 32.0929 336.804 32.1558C337.085 32.2643 339.319 31.0435 339.561 30.6492C339.623 30.5476 339.648 30.4748 339.614 30.4878C339.581 30.5008 339.159 30.6557 338.676 30.8318ZM297.099 31.088C296.831 31.1886 296.24 31.6362 295.787 32.0827C295.098 32.7617 295.002 32.9447 295.201 33.2028C295.407 33.469 295.397 33.4773 295.125 33.2634C294.869 33.0629 294.708 33.0686 294.277 33.2937C293.771 33.5583 293.765 33.5779 294.152 33.7016C294.375 33.7731 294.66 33.768 294.785 33.6902C294.927 33.6023 294.96 33.6345 294.873 33.7757C294.788 33.9141 294.872 34.0086 295.087 34.0179C295.281 34.0261 295.587 34.0615 295.766 34.0963C296.334 34.207 296.837 33.6619 297.287 32.4483C297.802 31.0632 297.77 30.8365 297.099 31.088ZM296.406 33.2331C296.343 33.3355 296.208 33.3676 296.107 33.3043C296.005 33.241 295.973 33.1055 296.036 33.0031C296.099 32.9007 296.233 32.8686 296.335 32.9319C296.437 32.9952 296.468 33.1307 296.406 33.2331ZM285.387 33.3709C285.387 33.6169 285.947 33.8453 286.186 33.6969C286.284 33.6361 286.363 33.6766 286.363 33.7869C286.363 34.0584 288.206 34.5925 289.142 34.5925C290.123 34.5925 292.61 34.0222 292.61 33.7973C292.61 33.4271 291.751 33.1761 290.874 33.2897C289.582 33.4574 286.132 33.4714 285.729 33.3108C285.541 33.2357 285.387 33.2628 285.387 33.3709ZM329.892 33.4621C329.892 33.5431 329.975 33.6096 330.076 33.6096C330.177 33.6096 330.228 33.7769 330.189 33.9813C330.108 34.4052 330.717 34.5925 332.176 34.5925C332.923 34.5925 335.374 33.8085 335.787 33.4376C335.862 33.3699 334.567 33.3147 332.908 33.3147C331.25 33.3147 329.892 33.3811 329.892 33.4621ZM303.503 33.9096C303.443 33.9701 303.334 33.861 303.26 33.6672C303.154 33.387 303.177 33.3644 303.37 33.5571C303.503 33.6906 303.563 33.8492 303.503 33.9096ZM292.583 34.4883C292.401 34.6713 289.962 35.2346 289.411 35.221C288.564 35.2 289.054 35.5204 290.17 35.7176C291.286 35.9147 292.887 35.6716 292.681 35.3362C292.6 35.2047 292.64 35.1779 292.783 35.2672C292.912 35.3472 293.252 35.2581 293.538 35.069C294.028 34.7455 294.036 34.7164 293.676 34.5744C293.227 34.3977 292.713 34.3572 292.583 34.4883ZM303.633 34.9931C303.579 35.0828 303.965 36.6437 304.492 38.4619C305.019 40.2801 305.482 41.9006 305.52 42.0628C305.579 42.3099 305.218 42.3667 303.297 42.4131C302.035 42.4436 301.003 42.4151 301.003 42.35C301.003 42.2849 301.486 40.5632 302.077 38.5242C302.667 36.4852 303.15 34.7692 303.15 34.7109C303.15 34.6525 303.281 34.6556 303.442 34.7175C303.602 34.7797 303.688 34.9035 303.633 34.9931ZM296.123 34.9857C295.873 35.1485 295.88 35.1768 296.172 35.1793C296.36 35.1809 296.513 35.0938 296.513 34.9857C296.513 34.7458 296.491 34.7458 296.123 34.9857ZM330.282 35.3838C330.282 35.7858 330.352 35.8145 331.087 35.7152C332.178 35.5678 332.554 35.1823 331.606 35.1823C331.218 35.1823 330.761 35.1286 330.591 35.0629C330.366 34.976 330.282 35.0631 330.282 35.3838ZM293.475 35.8011C292.945 36.1076 292.341 36.3592 292.131 36.3602C291.636 36.3622 291.943 36.6413 292.733 36.9063C293.281 37.0903 293.455 37.0369 294.432 36.3832L295.521 35.6553L294.979 35.4494C294.52 35.2749 294.291 35.3285 293.475 35.8011ZM294.952 36.7475L294.269 37.3192L294.757 37.5028C295.415 37.7505 295.667 37.6207 295.914 36.9065C296.174 36.1558 296.174 36.164 295.879 36.1705C295.745 36.1735 295.328 36.4329 294.952 36.7475ZM345.414 36.9441C345.358 37.0361 345.146 37.0675 344.944 37.0143C344.741 36.961 344.516 37.0135 344.444 37.131C344.372 37.2486 344.141 37.3447 343.929 37.3447C343.23 37.3447 341.852 38.9663 341.492 40.2129C341.082 41.6342 341.179 45.3068 341.656 46.4262C342.035 47.3169 343.085 48.3704 344.08 48.8591C345.171 49.395 347.634 49.3518 348.875 48.775C349.384 48.5377 349.802 48.2426 349.802 48.1192C349.802 47.9957 349.861 47.9541 349.932 48.0264C350.004 48.0986 350.224 48.0113 350.42 47.832C350.728 47.5513 350.778 47.185 350.778 45.1777V42.8491H348.533H346.288V43.9303V45.0116H347.313H348.338V45.8986C348.338 46.5734 348.255 46.8119 347.993 46.8956C347.804 46.9562 347.686 47.0657 347.731 47.139C347.776 47.2123 347.272 47.2428 346.611 47.207C345.951 47.1711 345.218 47.1312 344.983 47.1186C344.749 47.1058 344.596 47.0317 344.644 46.954C344.691 46.8762 344.615 46.6947 344.474 46.551C344.332 46.4071 344.149 46.1124 344.066 45.8962C343.949 45.5923 343.907 42.1396 343.998 40.3342C344.005 40.1944 344.311 39.8142 344.679 39.4893C345.264 38.9719 345.477 38.9038 346.395 38.9414C347.08 38.9693 347.479 39.079 347.547 39.2581C347.605 39.4087 347.742 39.4757 347.853 39.4067C347.964 39.3377 348.033 39.3542 348.007 39.4435C347.981 39.5325 348.058 39.8799 348.178 40.2155C348.385 40.7975 348.445 40.8259 349.49 40.8341C350.092 40.8388 350.624 40.7773 350.674 40.6971C350.825 40.4512 350.383 39.114 350.15 39.114C350.03 39.114 349.988 39.0576 350.056 38.9888C350.273 38.7706 349.388 37.7051 349.086 37.8214C348.932 37.8812 348.856 37.847 348.919 37.7456C348.981 37.6441 348.876 37.4768 348.685 37.374C347.965 36.9861 345.581 36.6728 345.414 36.9441ZM377.99 36.98C377.931 37.076 377.796 37.1006 377.69 37.0345C377.584 36.9684 377.275 36.9708 377.003 37.0396C376.651 37.1283 376.543 37.2559 376.628 37.479C376.722 37.7279 376.691 37.7465 376.479 37.5692C376.137 37.2828 374.871 38.0978 374.91 38.5801C374.924 38.7572 374.844 38.8834 374.731 38.8606C374.414 38.7965 374.138 39.9882 374.285 40.7822C374.459 41.713 375.789 43.1361 376.348 42.9889C376.563 42.9321 376.692 42.9622 376.635 43.0557C376.509 43.2618 377.268 43.664 378.631 44.1124C380.014 44.5677 380.582 45.0572 380.677 45.8754C380.744 46.4502 380.672 46.5978 380.189 46.8858C379.526 47.2796 378.133 47.303 377.365 46.933C377.04 46.7763 376.751 46.4132 376.616 45.9921C376.4 45.3178 376.376 45.3055 375.201 45.2479L374.006 45.1895V45.8431C374.006 46.9135 375.026 48.1312 376.467 48.7823C377.486 49.2425 379.795 49.4001 380.545 49.0606C380.76 48.9635 381.05 48.8601 381.189 48.8312C381.68 48.7294 382.816 47.7191 383.019 47.2039C383.295 46.5042 383.272 45.0648 382.978 44.709C382.848 44.551 382.812 44.4218 382.897 44.4218C382.983 44.4218 382.844 44.1981 382.589 43.9246C382.334 43.651 382.007 43.4731 381.862 43.5291C381.717 43.5851 381.65 43.5474 381.712 43.4452C381.775 43.3431 381.626 43.1289 381.381 42.9692C380.784 42.5802 377.716 41.465 377.708 41.6342C377.705 41.7077 377.579 41.6041 377.429 41.4042C377.278 41.2041 377.075 41.0905 376.977 41.1514C376.659 41.3492 376.945 39.6178 377.287 39.2713C377.504 39.0517 377.985 38.9221 378.691 38.8938C379.281 38.8702 379.837 38.7552 379.925 38.6382C380.027 38.5042 380.056 38.5345 380.003 38.7208C379.958 38.883 380.083 39.2266 380.281 39.4845C380.48 39.7425 380.643 40.0784 380.643 40.2312C380.643 40.447 380.914 40.4958 381.863 40.4504C383.002 40.3957 383.086 40.3592 383.135 39.9003C383.247 38.8582 381.631 37.2578 380.234 37.0278C378.996 36.824 378.097 36.8049 377.99 36.98ZM388.141 36.9403C387.372 37.1255 387.05 37.327 387.182 37.5413C387.239 37.6345 387.183 37.7746 387.057 37.8529C386.919 37.9386 386.881 37.9103 386.959 37.7819C387.032 37.6646 387.007 37.5163 386.904 37.4524C386.802 37.3886 386.646 37.4646 386.559 37.6215C386.472 37.7782 386.316 37.8906 386.213 37.8714C385.98 37.8275 385.16 39.0324 385.007 39.6442C384.662 41.0313 385.677 42.5137 387.537 43.3367C388.162 43.6131 388.622 43.7554 388.559 43.6528C388.495 43.5499 388.535 43.4092 388.647 43.3396C388.759 43.27 388.838 43.2859 388.822 43.3752C388.746 43.8189 388.903 43.9852 389.595 44.194C390.778 44.5512 391.378 45.1246 391.378 45.899C391.378 46.263 391.29 46.6157 391.183 46.6825C391.076 46.7494 390.988 46.8925 390.988 47.0006C390.988 47.1087 391.061 47.1516 391.151 47.096C391.24 47.0403 391.313 47.1221 391.313 47.2778C391.313 47.4909 391.249 47.5074 391.054 47.3443C390.911 47.2251 390.179 47.1298 389.427 47.1327C388.192 47.1372 388.022 47.0895 387.67 46.6379C387.455 46.3631 387.279 45.9288 387.279 45.6731C387.279 45.2315 387.215 45.2081 386.001 45.2081H384.722L384.798 45.9682C384.91 47.1003 385.818 48.282 386.708 48.4546C386.953 48.5021 387.208 48.6313 387.276 48.7418C387.469 49.0553 389.574 49.3785 390.472 49.2325C391.571 49.0536 392.755 48.5045 393.263 47.9379C394.378 46.6941 394.207 44.6754 392.892 43.5413C392.069 42.8322 388.977 41.5748 388.505 41.7573C388.356 41.8147 388.286 41.7781 388.349 41.6759C388.412 41.5739 388.258 41.3551 388.007 41.1897C387.639 40.9468 387.568 40.7565 387.633 40.194C387.734 39.3206 388.28 38.9174 389.363 38.9174C390.468 38.9174 391.064 39.2203 391.324 39.9147C391.53 40.4639 391.593 40.4901 392.728 40.4901C393.742 40.4901 393.916 40.4382 393.916 40.1362C393.916 39.9416 393.806 39.6632 393.672 39.5176C393.475 39.3045 393.479 39.2819 393.688 39.4016C393.881 39.5121 393.869 39.3957 393.639 38.9492C392.834 37.3807 390.243 36.4341 388.141 36.9403ZM231.8 37.2195C231.759 37.3424 231.502 38.0992 231.229 38.9015C230.957 39.7035 230.776 40.4032 230.829 40.4561C230.881 40.509 230.828 40.6698 230.709 40.8135C230.591 40.9572 230.547 41.2133 230.611 41.3824C230.688 41.5839 230.65 41.6415 230.502 41.5493C230.351 41.4553 230.317 41.5172 230.401 41.7357C230.469 41.9155 230.45 42.0628 230.357 42.0628C230.265 42.0628 230.136 42.2757 230.072 42.536C230.007 42.7962 229.894 43.1646 229.822 43.3545C229.724 43.6117 229.761 43.6628 229.968 43.5549C230.147 43.4611 230.136 43.502 229.937 43.6701C229.605 43.9514 229.108 45.2101 229.266 45.3694C229.32 45.423 229.287 45.5634 229.195 45.6815C229.024 45.8993 228.6 47.1192 228.484 47.7264C228.449 47.909 228.402 48.0809 228.381 48.1078C228.359 48.1347 228.331 48.2381 228.317 48.3372C228.304 48.4363 228.227 48.5837 228.146 48.6647C228.066 48.7459 228 48.8723 228 48.9458C228 49.0972 230.457 49.0948 230.595 48.9433C230.645 48.8892 230.823 48.3584 230.993 47.7638L231.301 46.6825L233.09 46.7201C234.075 46.7407 234.989 46.7995 235.121 46.8508C235.254 46.9019 235.469 47.3706 235.6 47.8919C235.73 48.4133 235.94 48.9059 236.066 48.9867C236.307 49.1412 238.541 49.2022 238.541 49.0544C238.541 49.0074 238.439 48.7198 238.315 48.4155C238.192 48.1111 238.067 47.7449 238.038 47.6016C237.87 46.7683 235.498 39.585 235.358 39.4851C235.265 39.4191 235.196 39.2864 235.205 39.1903C235.243 38.7904 234.972 37.7379 234.832 37.7379C234.748 37.7379 234.692 37.5832 234.707 37.3939C234.731 37.0972 234.537 37.0461 233.304 37.0229C232.389 37.0058 231.848 37.0764 231.8 37.2195ZM241.285 40.6375C241.275 42.6649 241.17 44.8256 241.052 45.4395C240.832 46.5874 240.799 46.6202 239.468 47.0511C239.202 47.1371 239.126 47.382 239.126 48.1508C239.126 49.2372 239.142 49.2466 240.537 49.0142C240.963 48.9435 241.214 48.8094 241.142 48.6913C241.071 48.5768 241.113 48.5487 241.238 48.6262C241.527 48.8065 242.478 48.1735 242.315 47.9085C242.243 47.7917 242.283 47.7612 242.406 47.8379C242.539 47.9206 242.833 47.5336 243.168 46.8363C243.702 45.723 243.713 45.6279 243.713 42.2128C243.713 40.2949 243.742 38.8132 243.778 38.92C243.814 39.0267 244.5 39.114 245.302 39.114C246.413 39.114 246.729 39.0552 246.625 38.8683C246.55 38.7332 246.638 38.7641 246.821 38.9371C247.119 39.2184 247.152 39.7757 247.136 44.1957L247.118 49.1399H248.392H249.667V43.0457V36.9515H245.485H241.304L241.285 40.6375ZM251.619 43.0441V49.1399H252.76C253.64 49.1399 253.979 49.053 254.243 48.7591C254.431 48.5497 254.526 48.2822 254.454 48.1644C254.381 48.0468 254.423 47.9749 254.546 48.0046C254.668 48.0343 255.655 46.5314 256.737 44.6648C257.82 42.7982 258.741 41.3071 258.785 41.3511C258.829 41.395 258.858 43.1656 258.85 45.2854L258.835 49.1399H260.112H261.388L261.373 43.0457L261.358 36.9515L260.246 36.9545C259.023 36.9578 258.874 37.0202 258.39 37.7326C258.009 38.2942 257.96 38.6099 258.285 38.4073C258.426 38.3196 258.458 38.3534 258.369 38.4971C258.292 38.6237 258.151 38.6791 258.056 38.6202C257.962 38.5614 257.789 38.6927 257.673 38.9119C257.556 39.1311 257.524 39.3106 257.603 39.3106C257.68 39.3106 257.582 39.4299 257.384 39.5756C257.158 39.7425 257.083 39.9357 257.182 40.0975C257.275 40.2487 257.262 40.3063 257.152 40.2377C257.049 40.1734 256.75 40.5092 256.488 40.9835C255.322 43.0911 254.277 44.8055 254.204 44.7318C254.16 44.6878 254.135 42.9706 254.148 40.9161C254.164 38.2909 254.104 37.1389 253.947 37.0408C253.823 36.9639 253.646 37.0231 253.552 37.1721C253.458 37.3211 253.38 37.3467 253.378 37.2291C253.377 37.1116 252.98 37.0003 252.497 36.9818L251.619 36.9484V43.0441ZM263.526 43.0457V49.1399H264.902H266.279L266.22 46.4952C266.183 44.8244 266.229 43.9193 266.346 44.0379C266.631 44.3255 270.424 44.2748 270.723 43.9795C270.859 43.8444 270.954 43.8222 270.934 43.9303C270.913 44.0385 270.907 45.2549 270.92 46.6334L270.943 49.1399H272.214H273.486L273.434 43.0949L273.383 37.0498L272.184 36.9918L270.985 36.9338L270.955 39.4421C270.938 40.8217 270.907 41.9672 270.885 41.9879C270.785 42.0824 270.113 42.1076 268.259 42.086L266.258 42.0628V39.8184C266.258 38.2069 266.19 37.546 266.014 37.4749C265.827 37.3986 265.829 37.3722 266.026 37.3602C266.166 37.3518 266.227 37.2562 266.161 37.1481C266.094 37.04 265.474 36.9515 264.783 36.9515H263.526V43.0457ZM278.647 37.2195C278.606 37.3424 278.349 38.0992 278.076 38.9015C277.803 39.7035 277.623 40.4032 277.676 40.4561C277.728 40.509 277.674 40.6698 277.556 40.8135C277.438 40.9572 277.393 41.2133 277.458 41.3824C277.535 41.5839 277.497 41.6415 277.349 41.5493C277.198 41.4553 277.164 41.5172 277.248 41.7357C277.316 41.9155 277.297 42.0628 277.204 42.0628C277.112 42.0628 276.983 42.2757 276.918 42.536C276.853 42.7962 276.741 43.1646 276.669 43.3545C276.571 43.6117 276.608 43.6628 276.814 43.5549C276.993 43.4611 276.983 43.502 276.784 43.6701C276.452 43.9514 275.955 45.2101 276.113 45.3694C276.166 45.423 276.134 45.5634 276.042 45.6815C275.871 45.8993 275.447 47.1192 275.331 47.7264C275.296 47.909 275.249 48.0809 275.228 48.1078C275.206 48.1347 275.177 48.2381 275.164 48.3372C275.151 48.4363 275.074 48.5837 274.993 48.6647C274.913 48.7459 274.847 48.8723 274.847 48.9458C274.847 49.0972 277.303 49.0948 277.442 48.9433C277.491 48.8892 277.67 48.3584 277.84 47.7638L278.147 46.6825L279.937 46.7201C280.922 46.7407 281.836 46.7995 281.968 46.8508C282.101 46.9019 282.316 47.3706 282.447 47.8919C282.577 48.4133 282.787 48.9059 282.913 48.9867C283.154 49.1412 285.387 49.2022 285.387 49.0544C285.387 49.0074 285.286 48.7198 285.162 48.4155C285.038 48.1111 284.913 47.7449 284.885 47.6016C284.717 46.7683 282.345 39.585 282.205 39.4851C282.112 39.4191 282.043 39.2864 282.052 39.1903C282.09 38.7904 281.819 37.7379 281.679 37.7379C281.595 37.7379 281.539 37.5832 281.554 37.3939C281.577 37.0972 281.384 37.0461 280.151 37.0229C279.236 37.0058 278.695 37.0764 278.647 37.2195ZM352.73 41.4337C352.73 44.6577 352.795 45.9821 352.964 46.1518C353.093 46.2815 353.134 46.3877 353.056 46.3877C352.979 46.3877 353.053 46.656 353.221 46.9839C353.399 47.3299 353.618 47.5233 353.744 47.4449C353.869 47.3671 353.907 47.3987 353.833 47.5192C353.617 47.8711 355.249 48.9116 356.391 49.1505C356.98 49.2733 357.868 49.3146 358.365 49.2419C359.549 49.0691 361.37 48.1837 361.241 47.844C361.179 47.6818 361.247 47.6273 361.426 47.6965C361.601 47.764 361.709 47.6849 361.709 47.4899C361.709 47.3161 361.777 47.174 361.861 47.174C362.324 47.174 362.467 45.7501 362.43 41.5049L362.392 37.0498L361.185 36.9916L359.978 36.9335L359.96 41.2171C359.943 45.0644 359.901 45.5828 359.553 46.3069L359.166 47.1129L357.767 47.1223C356.817 47.1288 356.281 47.0435 356.095 46.8563C355.945 46.7046 355.746 46.6273 355.655 46.6843C355.563 46.7413 355.48 44.6504 355.469 42.0378C355.459 39.4252 355.404 37.2118 355.347 37.1194C355.291 37.0272 354.678 36.9515 353.987 36.9515H352.73V41.4337ZM364.58 37.074C364.504 37.1509 364.441 39.897 364.441 43.1768V49.1399H368.54H372.64V48.0435V46.9471L369.721 47.0114C367.877 47.0521 366.871 47.0069 366.988 46.889C367.264 46.6118 367.218 44.1576 366.93 43.8256C366.796 43.6705 366.764 43.6056 366.858 43.6809C366.953 43.7564 367.205 43.7241 367.419 43.6089C367.703 43.4554 367.77 43.4589 367.67 43.6227C367.57 43.7849 368.109 43.8305 369.647 43.7898L371.761 43.7338V42.7508V41.7679H369.282C367.715 41.7679 366.871 41.6991 366.988 41.5811C367.235 41.3327 367.227 39.4521 366.977 39.1549C366.869 39.0261 366.837 38.961 366.905 39.0104C366.974 39.0597 367.205 39.0061 367.419 38.8909C367.698 38.7399 367.77 38.7418 367.674 38.8977C367.58 39.0507 368.287 39.114 370.091 39.114H372.64V38.0538V36.9936L368.679 36.9641C366.501 36.9478 364.656 36.9973 364.58 37.074ZM378.886 37.2254C378.886 37.2678 378.75 37.3553 378.583 37.4198C378.409 37.4868 378.331 37.4538 378.399 37.3426C378.514 37.1556 378.886 37.0662 378.886 37.2254ZM380.141 37.7188C380.09 37.7705 379.896 37.6534 379.711 37.4585C379.389 37.12 379.393 37.1157 379.804 37.3644C380.041 37.5077 380.192 37.6671 380.141 37.7188ZM345.703 38.4472C345.703 38.6097 345.324 38.7017 345.237 38.5602C345.18 38.4684 345.262 38.3931 345.418 38.3931C345.575 38.3931 345.703 38.4175 345.703 38.4472ZM346.951 38.4914C347.007 38.5816 346.928 38.6554 346.776 38.6554C346.625 38.6554 346.546 38.5816 346.601 38.4914C346.656 38.4014 346.735 38.3276 346.776 38.3276C346.817 38.3276 346.896 38.4014 346.951 38.4914ZM344.336 39.4175C344.336 39.4403 344.219 39.5569 344.076 39.6766C343.881 39.8392 343.816 39.8286 343.816 39.6351C343.816 39.4926 343.933 39.376 344.076 39.376C344.219 39.376 344.336 39.3947 344.336 39.4175ZM233.952 42.1611C234.252 43.2423 234.506 44.2461 234.518 44.3917C234.534 44.5869 234.223 44.6575 233.338 44.6607C232.005 44.6652 231.582 44.5179 231.881 44.1543C232.114 43.8716 232.899 41.0798 232.746 41.0798C232.686 41.0798 232.724 40.9694 232.829 40.8341C232.935 40.6991 233.004 40.3849 232.983 40.136C232.897 39.1464 233.42 40.2375 233.952 42.1611ZM280.799 42.1611C281.099 43.2423 281.353 44.2461 281.365 44.3917C281.38 44.5869 281.07 44.6575 280.184 44.6607C278.851 44.6652 278.428 44.5179 278.728 44.1543C278.961 43.8716 279.746 41.0798 279.593 41.0798C279.533 41.0798 279.57 40.9694 279.676 40.8341C279.782 40.6991 279.851 40.3849 279.83 40.136C279.744 39.1464 280.266 40.2375 280.799 42.1611ZM390.87 42.6197C390.925 42.7099 390.847 42.7837 390.695 42.7837C390.543 42.7837 390.465 42.7099 390.52 42.6197C390.575 42.5297 390.654 42.4559 390.695 42.4559C390.736 42.4559 390.815 42.5297 390.87 42.6197ZM256.694 43.12C256.694 43.1607 256.54 43.3156 256.352 43.464C256.043 43.7084 256.036 43.7015 256.278 43.3897C256.533 43.0622 256.694 42.9582 256.694 43.12ZM254.829 46.601C254.766 46.7034 254.632 46.7354 254.53 46.6721C254.428 46.6088 254.396 46.4734 254.459 46.371C254.522 46.2685 254.657 46.2365 254.758 46.2998C254.86 46.3631 254.892 46.4985 254.829 46.601ZM317.684 47.1604C317.746 47.2611 317.721 47.3899 317.63 47.4467C317.539 47.5035 317.464 47.4211 317.464 47.2637C317.464 46.9322 317.526 46.9033 317.684 47.1604ZM241.936 47.7309C241.992 47.8212 241.913 47.8949 241.761 47.8949C241.61 47.8949 241.531 47.8212 241.586 47.7309C241.641 47.6409 241.72 47.5672 241.761 47.5672C241.802 47.5672 241.881 47.6409 241.936 47.7309ZM349.216 48.0799C349.216 48.2425 348.837 48.3345 348.75 48.1929C348.694 48.1011 348.776 48.0258 348.932 48.0258C349.088 48.0258 349.216 48.0502 349.216 48.0799Z" fill="white"/>
<line opacity="0.3" x1="203.5" y1="60" x2="203.5" y2="-2.18557e-08" stroke="white"/>
</svg>
