<svg xmlns="http://www.w3.org/2000/svg" width="48" height="48" fill="none"><rect width="48" height="48" fill="#fff" rx="24"/><path fill="#1E1E1E" fill-rule="evenodd" d="M39.27 16.53c.22-.74 0-1.28-1.06-1.28h-3.5c-.9 0-1.3.47-1.53.99 0 0-1.78 4.34-4.3 7.16-.82.81-1.19 1.07-1.63 1.07-.22 0-.55-.26-.55-1v-6.94c0-.89-.25-1.28-1-1.28h-5.5c-.55 0-.89.41-.89.8 0 .85 1.26 1.04 1.4 3.41v5.16c0 1.13-.21 1.34-.66 1.34-1.18 0-4.07-4.36-5.78-9.35-.34-.97-.67-1.36-1.57-1.36H9.2c-1 0-1.2.47-1.2.99 0 .93 1.19 5.52 5.53 11.6 2.89 4.16 6.96 6.41 10.67 6.41 2.23 0 2.5-.5 2.5-1.36v-3.14c0-1 .22-1.2.92-1.2.52 0 1.4.26 3.49 2.26 2.37 2.38 2.76 3.44 4.1 3.44h3.5c1 0 1.5-.5 1.2-1.48-.3-.99-1.44-2.42-2.94-4.1-.82-.97-2.04-2.01-2.41-2.53-.52-.67-.38-.96 0-1.56 0 0 4.26-6 4.7-8.05Z" clip-rule="evenodd"/></svg>