<svg width="360" height="712" viewBox="0 0 360 712" fill="none" xmlns="http://www.w3.org/2000/svg">
<mask id="mask0_125_15096" style="mask-type:alpha" maskUnits="userSpaceOnUse" x="0" y="0" width="360" height="712">
<rect width="360" height="712" fill="url(#paint0_linear_125_15096)"/>
</mask>
<g mask="url(#mask0_125_15096)">
<circle opacity="0.6" cx="273.5" cy="526.5" r="142" stroke="url(#paint1_linear_125_15096)" stroke-width="23"/>
<path opacity="0.59" d="M151.5 172C151.5 63.502 239.674 -24.5 348.5 -24.5C457.326 -24.5 545.5 63.5021 545.5 172C545.5 280.498 457.326 368.5 348.5 368.5C239.674 368.5 151.5 280.498 151.5 172Z" stroke="url(#paint2_linear_125_15096)" stroke-width="23"/>
<path opacity="0.59" d="M-82.5 324.5C-82.5 248.873 -20.9756 187.5 55 187.5C130.976 187.5 192.5 248.873 192.5 324.5C192.5 400.127 130.976 461.5 55 461.5C-20.9756 461.5 -82.5 400.127 -82.5 324.5Z" stroke="url(#paint3_linear_125_15096)" stroke-width="23"/>
</g>
<defs>
<linearGradient id="paint0_linear_125_15096" x1="0" y1="0" x2="379.344" y2="129.912" gradientUnits="userSpaceOnUse">
<stop stop-color="#43BBA5"/>
<stop offset="1" stop-color="#43B4BB"/>
</linearGradient>
<linearGradient id="paint1_linear_125_15096" x1="273.5" y1="373" x2="273.5" y2="680" gradientUnits="userSpaceOnUse">
<stop stop-color="#39A7AF"/>
<stop offset="1" stop-color="#43B3BB"/>
</linearGradient>
<linearGradient id="paint2_linear_125_15096" x1="348.5" y1="380" x2="348.5" y2="-36" gradientUnits="userSpaceOnUse">
<stop stop-color="#39A7AF"/>
<stop offset="1" stop-color="#43B3BB"/>
</linearGradient>
<linearGradient id="paint3_linear_125_15096" x1="55" y1="473" x2="55" y2="176" gradientUnits="userSpaceOnUse">
<stop stop-color="#39A7AF"/>
<stop offset="1" stop-color="#43B3BB"/>
</linearGradient>
</defs>
</svg>
