<svg width="268" height="196" viewBox="0 0 268 196" fill="none" xmlns="http://www.w3.org/2000/svg">
<g clip-path="url(#clip0_203_4)">
<path d="M215.563 133.007C223.843 118.008 228.916 101.275 231.054 84.2929C233.395 65.7038 232.269 46.0313 223.242 29.2558C214.9 13.7548 200.076 2.71227 182.503 0.423227C173.984 -0.686218 165.278 0.407638 157.248 3.44497C149.089 6.53167 142.38 11.6021 136.313 17.7846C130.82 23.3825 125.026 28.9063 116.726 29.0869C112.062 29.1883 107.503 27.9112 102.968 27.0044C98.7501 26.1613 94.5273 25.7911 90.2552 26.4211C73.5452 28.8856 60.9752 42.5704 55.0114 57.7038C51.7238 66.0468 50.0127 74.9392 49.0839 83.8356C48.093 93.3256 47.8365 102.91 48.093 112.446C48.2238 117.31 48.6344 122.999 49.2601 129.101C52.4479 160.178 70.3237 191.692 100.89 195.478C102.61 195.691 108.298 196.247 109.991 195.875L136.912 189.969C146.929 187.562 173.115 175.631 181.766 170.04C196.005 160.841 207.387 147.82 215.563 133.007Z" fill="#C4FFFE"/>
<path d="M180.76 300.975C167.127 257.017 140.627 172.544 137.928 167.463C134.985 161.922 129.771 161.459 129.549 161.442L129.797 157.783C130.098 157.802 137.236 158.344 141.165 165.742C144.699 172.395 182.648 294.685 184.262 299.889L180.76 300.975Z" fill="#4D4D4D"/>
<path d="M143.384 118.495L79.2432 299.821L82.6999 301.044L146.841 119.718L143.384 118.495Z" fill="#4D4D4D"/>
<path d="M113.473 187.717C113.473 187.717 112.714 189.065 113.473 190.86H143.706C143.706 190.86 144.404 189.025 143.618 187.717H113.473Z" fill="#323232"/>
<path d="M139.986 187.717C139.986 187.717 139.228 189.065 139.986 190.86H177.659C177.659 190.86 178.357 189.025 177.571 187.717H139.986Z" fill="#282828"/>
<path d="M80.7091 87.9033C80.7091 87.9033 78.0701 88.9283 78.0098 90.5354C77.9518 92.1449 80.4958 91.7205 81.2379 91.4538C81.9823 91.1894 80.7091 87.9033 80.7091 87.9033Z" fill="#1A1A1A"/>
<path d="M71.0693 57.8762C71.0693 57.8762 72.0967 53.5396 75.5729 45.3812C79.0515 37.2228 81.8598 32.1395 86.0063 31.3371C90.1528 30.5347 103.443 32.4966 103.443 32.4966L116.279 38.1203C116.279 38.1203 126.212 43.4309 128.141 45.3812C130.973 48.2452 131.355 53.5303 131.842 58.7574C132.39 64.6385 132.86 70.5011 133.108 73.8892C133.187 74.956 124.999 76.7486 125.133 77.1498C125.268 77.551 122.524 104.505 123.194 106.511C123.862 108.517 80.1229 104.637 80.1229 104.637L79.455 67.0503L78.3859 60.2277L71.0693 57.8762Z" fill="#E74854"/>
<path d="M132.776 69.585C132.755 69.3183 132.732 69.0493 132.711 68.7756C130.45 68.2863 128.124 68.1031 125.805 68.2515C124.68 68.3234 123.56 68.4741 122.454 68.6945C121.958 68.7919 122.169 69.5502 122.663 69.4528C125.998 68.7849 129.465 68.8406 132.776 69.585Z" fill="#BB272D"/>
<path d="M90.7394 48.637C88.9375 53.4421 87.335 58.3191 85.932 63.254C85.7929 63.741 86.5512 63.9497 86.6903 63.4627C88.0934 58.5278 89.6981 53.6508 91.4977 48.8458C91.674 48.3727 90.9133 48.1663 90.7394 48.637Z" fill="#BB272D"/>
<path d="M86.4387 56.1439C86.819 56.4732 87.3779 55.9212 86.9952 55.5873C83.6465 52.6839 79.0734 51.2553 74.6672 51.8235C74.055 51.9023 73.4428 52.0183 72.8676 52.2247C72.7401 52.5795 72.6195 52.9204 72.5059 53.2428C73.1436 52.8787 73.8903 52.7163 74.6139 52.6166C75.625 52.4751 76.6569 52.4543 77.6773 52.5262C79.7181 52.6723 81.7357 53.2474 83.5515 54.1889C84.5858 54.7269 85.5574 55.3809 86.4387 56.1439Z" fill="#BB272D"/>
<path d="M116.856 38.4311C116.455 39.8782 116.128 41.3693 115.342 42.661C114.955 43.2988 114.456 43.8855 113.825 44.2913C113.496 44.5024 113.116 44.7018 112.717 44.7204C112.25 44.7412 111.847 44.4629 111.483 44.2078C110.136 43.264 109.036 41.9978 108.065 40.6829C107.012 39.259 106.049 37.7679 105.059 36.2999C104.199 35.0244 103.32 33.7443 102.61 32.3761C102.353 32.3413 102.04 32.2972 101.683 32.2509C102.376 33.6817 103.248 35.0152 104.138 36.337C105.228 37.9534 106.286 39.6022 107.452 41.1676C108.515 42.5915 109.702 43.9412 111.179 44.9476C111.97 45.4856 112.779 45.6619 113.677 45.2653C114.449 44.9244 115.089 44.3447 115.599 43.6814C116.689 42.2598 117.097 40.5159 117.568 38.8161C117.287 38.6653 117.051 38.5355 116.856 38.4311Z" fill="#BB272D"/>
<path d="M85.4424 31.4763C87.562 34.8714 89.5285 38.3639 91.3235 41.9421C92.0702 43.4286 92.7868 44.9314 93.4756 46.4457C93.6147 46.7518 94.0669 46.4852 93.9278 46.1814C91.6018 41.0679 88.9441 36.1098 85.9758 31.3418C85.7972 31.3789 85.6186 31.4253 85.4424 31.4763Z" fill="#BB272D"/>
<path d="M128.453 45.7313C127.47 48.1315 126.287 50.4459 124.91 52.6467C124.325 53.5813 123.704 54.4927 123.054 55.3809C122.855 55.6522 123.309 55.9142 123.507 55.6452C125.647 52.7186 127.43 49.5415 128.826 46.1975C128.708 46.0374 128.583 45.8821 128.453 45.7313Z" fill="#BB272D"/>
<path d="M127.803 72.8318C127.803 72.8318 132.812 72.7553 133.093 73.9519C133.374 75.1462 127.701 76.7487 127.04 76.7742C126.379 76.7974 127.803 72.8318 127.803 72.8318Z" fill="#1A1A1A"/>
<path d="M153.078 107.715C151.837 107.063 151.276 104.804 150.237 104.078C137.176 94.953 131.207 90.6906 130.94 89.3525C129.368 81.4886 127.805 72.8293 127.805 72.8293C127.805 72.8293 117.831 72.7087 116.507 78.5086C115.419 83.2766 118.914 92.4206 120.124 96.3815C121.133 99.6838 125.945 102.367 129.779 104.09C132.348 105.245 136.293 107.147 144.052 110.356C145.228 111.882 147.997 114.649 147.997 114.649L153.078 107.715Z" fill="#EA956B"/>
<path d="M150.214 108.38C149.873 108.26 149.534 108.132 149.201 107.998C149.122 107.965 149.043 107.933 148.964 107.9C148.945 107.893 148.929 107.886 148.911 107.879C148.908 107.877 148.897 107.873 148.876 107.866C148.839 107.849 148.804 107.835 148.767 107.819C148.598 107.747 148.431 107.671 148.264 107.594C148.078 107.508 147.832 107.534 147.726 107.736C147.635 107.91 147.668 108.181 147.867 108.274C148.567 108.596 149.279 108.886 150.005 109.141C150.2 109.208 150.444 109.065 150.488 108.867C150.539 108.645 150.423 108.455 150.214 108.38Z" fill="#DD825C"/>
<path d="M132.335 89.9486C131.062 88.9978 129.777 88.0609 128.483 87.1379C128.253 86.9733 127.901 87.0962 127.766 87.3258C127.613 87.5878 127.722 87.8777 127.954 88.0423C129.248 88.9653 130.533 89.9022 131.806 90.853C132.033 91.0223 132.39 90.8901 132.523 90.6652C132.68 90.3962 132.562 90.1179 132.335 89.9486Z" fill="#DD825C"/>
<path d="M118.7 198.028C118.7 198.028 113.236 202.731 112.853 203.491C112.473 204.254 117.556 211.879 118.572 212.642C119.588 213.405 120.478 213.533 121.369 214.041C122.259 214.549 122.385 215.947 122.512 216.71C122.64 217.473 110.184 217.218 108.533 217.09C106.882 216.963 99.5096 202.856 98.3663 201.077C97.223 199.299 104.848 195.231 106.372 193.96C107.898 192.689 111.327 189.385 111.327 189.385L118.7 198.028Z" fill="#EA956B"/>
<path d="M121.369 214.041C120.479 213.533 119.591 213.405 118.573 212.642C117.557 211.879 112.474 204.254 112.854 203.491C112.956 203.285 113.431 202.793 114.067 202.183C113.923 201.812 113.007 199.558 111.787 198.726C110.456 197.817 108.336 198.06 108.035 198.12C107.81 198.165 106.88 195.358 106.418 193.923C106.405 193.935 106.388 193.948 106.372 193.962C104.846 195.233 97.2212 199.301 98.3668 201.08C99.51 202.858 106.882 216.965 108.533 217.093C110.185 217.22 122.64 217.473 122.513 216.712C122.385 215.947 122.26 214.549 121.369 214.041Z" fill="#6C4E4E"/>
<path d="M133.953 19.1946C134.052 19.3871 136.323 18.8003 136.988 18.2113C137.656 17.6246 137.239 15.4308 137.239 15.4308C137.239 15.4308 138.7 15.4053 138.577 13.5431C138.431 11.3539 136.1 9.11833 134.5 7.98896C134.994 7.66429 135.655 7.04279 135.175 6.04328C134.595 4.83506 132.953 2.75951 126.325 1.97799C126.325 1.97799 126.606 0.929786 125.567 0.152906C124.465 -0.670354 119.621 2.06844 118.916 2.71777C118.916 2.71777 116.543 2.04061 114.999 3.02852C113.791 3.80076 115.048 5.34524 115.048 5.34524C115.048 5.34524 110.509 7.5182 108.262 12.9332C107.304 15.2429 108.714 15.3682 109.436 15.4679C109.436 15.4679 107.504 19.1297 108.218 21.7015C108.935 24.2733 111.168 25.0873 112.2 24.6814C113.234 24.2802 133.953 19.1946 133.953 19.1946Z" fill="#4A3333"/>
<path d="M112.416 25.9963C112.703 26.0265 110.183 30.2819 108.021 31.4507C106.553 32.2438 103.399 32.5105 103.399 32.5105C103.399 32.5105 108.854 41.3762 111.734 43.2686C114.614 45.1632 116.129 39.0247 116.279 38.1157C116.43 37.2066 119.007 34.0991 119.916 32.5082C120.825 30.922 112.416 25.9963 112.416 25.9963Z" fill="#E8936B"/>
<path d="M112.732 26.1843C112.191 27.1212 111.679 28.0883 111.489 29.1597C111.285 30.3145 111.614 31.4949 112.064 32.5547C112.49 33.5589 113.077 34.5143 113.775 35.3538C114.538 36.2745 115.426 37.0862 116.4 37.7842C116.934 36.6061 119.1 33.9485 119.918 32.5153C120.721 31.1053 114.244 27.0957 112.732 26.1843Z" fill="#1A1A1A"/>
<path d="M135.053 16.9337C134.509 18.9582 129.743 32.2046 126.005 34.4587C124.07 35.6252 120.163 34.3195 118.442 33.4429C113.139 30.7389 109.836 28.7098 111.835 22.7823C111.835 22.7823 107.807 19.4521 110.37 16.2519C111.696 14.5937 113.753 15.0854 114.602 16.2658C115.158 17.0403 115.202 18.2787 115.202 18.2787C115.202 18.2787 116.223 16.7783 117.786 15.5724C118.878 14.7306 121.114 12.771 122.044 11.3447C124.845 12.8637 126.482 9.17413 132.111 12.6156C132.477 12.8405 133.808 13.7821 133.943 14.1925C134.112 14.712 134.509 16.0663 135.053 16.9337Z" fill="#E8936B"/>
<path d="M121.842 18.7261C121.747 18.6218 121.629 18.5545 121.499 18.5035C121.453 18.4849 121.406 18.4803 121.358 18.471C121.309 18.4618 121.263 18.4548 121.214 18.4571C120.966 18.4664 120.743 18.5568 120.558 18.7215C120.502 18.7702 120.458 18.8328 120.414 18.8885C120.393 18.9163 120.374 18.9464 120.358 18.9766C120.326 19.0438 120.291 19.1134 120.27 19.1853C120.247 19.2595 120.238 19.3383 120.226 19.4172C120.21 19.5331 120.224 19.6514 120.238 19.7674C120.238 19.7697 120.238 19.772 120.24 19.772C120.238 19.7929 120.235 19.8137 120.238 19.8346C120.245 19.939 120.254 19.9993 120.289 20.092C120.305 20.1361 120.319 20.1778 120.344 20.2173C120.421 20.3355 120.502 20.4213 120.62 20.5002C120.736 20.5767 120.861 20.6069 120.996 20.6277C121.045 20.6347 121.086 20.6301 121.135 20.6231C121.188 20.6185 121.237 20.6138 121.288 20.5976C121.439 20.5489 121.546 20.4886 121.669 20.3865C121.747 20.3193 121.815 20.2312 121.873 20.1454C121.931 20.0572 121.975 19.9575 122.014 19.8601C122.037 19.8045 122.051 19.7442 122.063 19.6839C122.081 19.5818 122.1 19.4844 122.093 19.3824C122.086 19.2827 122.079 19.1806 122.047 19.0856C121.995 18.9487 121.944 18.8374 121.842 18.7261Z" fill="#1A1A1A"/>
<path d="M131.796 22.7707C131.754 22.7267 131.701 22.6872 131.652 22.6501C131.599 22.6107 131.534 22.5875 131.476 22.562C131.455 22.5527 131.432 22.5434 131.409 22.5388C131.344 22.5249 131.276 22.511 131.209 22.5063C131.142 22.504 131.07 22.5133 131.005 22.5249C130.968 22.5319 130.931 22.5435 130.896 22.5574C130.85 22.555 130.803 22.5574 130.759 22.569C130.622 22.6084 130.513 22.6849 130.435 22.8032C130.349 22.9354 130.268 23.0722 130.219 23.2229C130.21 23.2508 130.203 23.2786 130.198 23.3064C130.187 23.3713 130.17 23.4386 130.17 23.5035C130.168 23.5708 130.177 23.6404 130.187 23.7076C130.191 23.7354 130.196 23.7609 130.205 23.7865C130.249 23.9256 130.3 24.0253 130.395 24.1366C130.437 24.1853 130.493 24.2248 130.544 24.2642C130.597 24.3036 130.664 24.3268 130.725 24.3523C130.764 24.3685 130.806 24.3732 130.847 24.3801C130.894 24.3871 130.936 24.3964 130.982 24.394C131.047 24.3894 131.116 24.3871 131.179 24.3685C131.244 24.35 131.307 24.3245 131.367 24.2966C131.45 24.2595 131.529 24.1969 131.599 24.1413C131.671 24.0833 131.726 24.0091 131.784 23.9372C131.819 23.8931 131.849 23.8491 131.875 23.8004C131.919 23.7169 131.963 23.6264 131.981 23.5337C131.995 23.4687 132.012 23.3992 132.012 23.3319C132.012 23.2647 132.007 23.1905 131.988 23.1232C131.951 22.9864 131.889 22.8704 131.796 22.7707Z" fill="#1A1A1A"/>
<path d="M124.595 25.8595L124.504 25.8178C124.437 25.7969 124.368 25.7946 124.298 25.8108C124.087 25.8363 123.876 25.8642 123.665 25.8897C123.612 25.9013 123.565 25.9221 123.526 25.9569C123.482 25.9824 123.447 26.0195 123.421 26.0659C123.37 26.1471 123.347 26.2677 123.373 26.3628C123.401 26.4602 123.456 26.5552 123.549 26.6063L123.639 26.648C123.707 26.6689 123.776 26.6712 123.846 26.655C124.057 26.6294 124.268 26.6016 124.479 26.5761C124.532 26.5645 124.579 26.5436 124.618 26.5089C124.662 26.4833 124.697 26.4462 124.722 26.3999C124.773 26.3187 124.797 26.1981 124.771 26.103C124.743 26.0056 124.685 25.9105 124.595 25.8595Z" fill="#D35C48"/>
<path d="M131.893 19.8554C131.928 19.8855 131.965 19.9157 132 19.9458C132.016 19.9621 132.035 19.976 132.051 19.9922C132.093 20.0316 132.086 20.0247 132.03 19.9713C132.065 19.9899 132.102 20.0409 132.13 20.0687C132.162 20.1012 132.195 20.1337 132.227 20.1685C132.357 20.3006 132.485 20.4328 132.615 20.5627C132.881 20.834 133.148 21.1077 133.417 21.379C133.514 21.4787 133.619 21.5529 133.762 21.5692C133.892 21.5831 134.055 21.5437 134.154 21.4555C134.349 21.2816 134.435 20.9268 134.231 20.7181C133.955 20.4375 133.679 20.1569 133.403 19.8763C133.113 19.5818 132.833 19.271 132.515 19.0089C132.301 18.835 131.935 18.8953 131.782 19.1226C131.615 19.3684 131.666 19.6699 131.893 19.8554Z" fill="#4A3333"/>
<path d="M120.638 16.384C121.804 16.0871 122.996 15.9689 124.2 16.0315C124.483 16.0454 124.731 15.7972 124.735 15.5213C124.742 15.2314 124.508 14.9995 124.225 14.9856C122.936 14.9183 121.635 15.0505 120.385 15.3682C120.111 15.4378 119.935 15.7277 120.004 16.0036C120.069 16.2773 120.362 16.4535 120.638 16.384Z" fill="#4A3333"/>
<path d="M119.509 14.1067C119.426 14.3316 118.422 16.7689 116.965 17.5945C115.511 18.4201 115.147 25.5604 115.697 27.0122C116.246 28.4639 119.106 26.5947 120.022 26.1054C120.935 25.6138 126.728 28.1717 127.176 28.6146C127.623 29.0576 127.269 31.5158 127.586 31.9912C127.904 32.4666 128.085 32.3553 128.085 32.3553C128.085 32.3553 126.854 34.7091 125.745 35.2448C124.634 35.7828 121.091 35.0384 117.67 33.6493C114.25 32.2602 112.051 30.2356 111.557 28.4291C111.061 26.6226 114.781 17.358 115.395 16.1822C116.01 15.0041 119.509 14.1067 119.509 14.1067Z" fill="#4A3333"/>
<path d="M121.113 27.717L125.628 29.6279C125.628 29.6279 124.223 30.9057 123.599 30.9637C122.975 31.0194 121.247 30.5973 120.953 30.1219C120.658 29.6442 121.113 27.717 121.113 27.717Z" fill="white"/>
<path d="M146.484 148.069C146.484 148.069 150.763 152.899 151.867 157.315C152.971 161.73 153.11 166.561 149.52 174.151C146.454 180.635 126.464 199.612 120.708 205.001C119.727 205.919 117.206 203.672 114.959 200.386C112.775 197.193 110.312 193.51 109.087 191.402C106.604 187.124 115.298 179.121 118.609 175.394C121.921 171.667 127.304 164.631 127.992 163.664C128.683 162.697 125.935 160.619 125.935 160.619L146.484 148.069Z" fill="#43B6B4"/>
<path d="M121.687 199.115C119.203 196.868 117.183 194.157 115.732 191.142C116.311 188.647 116.362 188.116 116.912 185.616C117.693 182.05 118.336 178.45 119.066 174.872C118.911 175.051 118.758 175.225 118.609 175.392C115.298 179.118 106.604 187.121 109.087 191.4C110.117 193.174 112.023 196.061 113.904 198.835C114.231 197.32 115.108 193.849 115.456 192.339C116.898 195.092 118.825 197.582 121.133 199.67C121.506 200.008 122.065 199.454 121.687 199.115Z" fill="#218583"/>
<path d="M76.8929 98.0838C76.8929 98.0838 75.6197 105.667 75.9745 113.466C76.5427 125.919 91.2246 174.663 91.0228 177.27C90.8211 179.879 90.2204 231.042 90.4199 232.447C90.6216 233.852 106.873 233.852 108.478 233.451C110.083 233.05 114.499 181.885 115.301 173.659C116.103 165.433 113.515 147.132 113.515 147.132C113.515 147.132 124.932 160.014 125.936 160.617C126.94 161.22 146.202 151.788 147.204 149.58C148.208 147.373 128.914 118.06 128.545 115.472C125.335 93.0004 126.145 74.7426 126.337 66.1134C126.583 55.1443 122.362 41.4991 122.362 41.4991C122.362 41.4991 119.229 38.6142 117.789 38.8623C117.789 38.8623 119.804 47.1181 119.804 51.9348C119.804 52.7812 101.885 49.305 101.637 48.8087C101.389 48.3124 98.2861 32.8467 97.1381 31.6362C96.8158 31.2976 92.1963 30.8987 92.2635 31.1863C92.4745 32.0884 94.9629 40.2584 95.9949 53.0595C96.1873 55.4481 92.725 79.9001 90.5173 83.4459C89.4737 85.1203 85.0165 88.5641 82.2986 89.8651C79.2653 91.3168 78.0107 90.5376 78.0107 90.5376C78.0107 90.5376 77.0251 96.6112 76.8929 98.0838Z" fill="#43B6B4"/>
<path d="M120.076 57.5653C120.067 57.3426 119.921 57.1131 119.691 57.0597C117.333 56.5171 114.951 56.0973 112.551 55.7912C111.391 55.6428 110.227 55.5106 109.077 55.3019C107.917 55.0909 103.321 54.089 101.89 53.8664C101.609 53.8223 101.366 54.0867 101.366 54.3905C101.366 54.6502 101.621 54.8195 101.89 54.9146C103.177 55.3668 107.317 56.0208 108.427 56.2411C110.749 56.7003 113.119 56.8742 115.449 57.2731C116.653 57.4795 117.85 57.723 119.039 57.9897C119.134 60.7748 119.118 63.5646 118.972 66.3475C118.935 67.078 118.889 67.8085 118.833 68.539C118.812 68.8335 118.81 69.1443 118.754 69.4341C118.694 69.7356 118.515 69.833 118.246 69.9536C116.894 70.5566 112.486 72.8246 111.117 73.3951C110.876 73.4948 110.635 73.6339 110.373 73.5528C110.074 73.4623 109.784 73.2745 109.506 73.133C108.942 72.8478 102.702 69.4179 102.28 68.9564C102.057 68.7129 101.976 68.5344 101.985 68.1981C101.994 67.834 102.022 67.4699 102.043 67.1058C102.224 63.7896 102.451 60.478 102.727 57.1687C102.783 56.4962 101.735 56.5008 101.679 57.1687C101.417 60.3273 101.197 63.4881 101.02 66.6513C100.999 67.02 100.981 67.3888 100.96 67.7575C100.939 68.1401 100.89 68.5483 101.02 68.9193C101.231 69.5246 101.855 69.949 102.556 70.4383C103.65 71.2036 107.817 73.4484 108.43 73.7615C108.998 74.0514 109.622 74.4758 110.25 74.601C110.971 74.7424 111.718 74.2717 112.363 74.0027C113.086 73.7012 116.352 71.8691 117.801 71.2662C118.409 71.0134 119.229 70.8117 119.582 70.1994C119.918 69.6174 119.863 68.8011 119.909 68.1517C120.159 64.6291 120.213 61.0949 120.076 57.5653Z" fill="#218583"/>
<path d="M131.858 166.333L126.507 160.983C126.03 160.505 125.29 161.248 125.768 161.723L131.118 167.073C131.595 167.551 132.335 166.811 131.858 166.333Z" fill="#218583"/>
<path d="M93.0654 93.6984C93.0468 98.4988 93.0283 103.299 93.012 108.1C90.4332 110.354 87.8545 112.608 85.2757 114.862C84.7678 115.307 85.5099 116.045 86.0178 115.604L93.4689 109.092C93.6103 108.967 93.7796 108.849 93.9072 108.71C94.0788 108.524 94.0602 108.313 94.0626 108.079C94.0649 107.666 94.0649 107.251 94.0672 106.838C94.0695 105.989 94.0741 105.138 94.0765 104.289C94.0834 102.634 94.0881 100.978 94.095 99.3244C94.102 97.4506 94.1089 95.5768 94.1159 93.7053C94.1159 93.0235 93.07 93.0235 93.0654 93.6984Z" fill="#218583"/>
<path d="M129.735 118.039C129.032 116.747 128.596 115.841 128.545 115.472C128.517 115.28 128.492 115.089 128.466 114.897C127.557 113.747 126.625 112.557 125.964 111.247C125.238 109.809 125.243 108.227 125.18 106.655L124.981 101.551L124.756 95.7926C124.73 95.1201 123.682 95.1178 123.707 95.7926C123.844 99.3036 123.981 102.817 124.118 106.328C124.181 107.963 124.15 109.654 124.79 111.189C125.403 112.657 126.416 113.944 127.381 115.196C128.132 116.17 128.918 117.119 129.735 118.039Z" fill="#218583"/>
<path d="M140.909 164.738C136.864 159.831 132.804 154.937 128.81 149.989C124.856 145.086 120.977 140.123 117.282 135.022C115.204 132.153 113.185 129.242 111.246 126.279C111.063 125.998 110.608 126.26 110.794 126.543C114.268 131.847 117.992 136.979 121.853 142.006C125.682 146.988 129.641 151.869 133.629 156.723C135.93 159.522 138.235 162.314 140.54 165.109C140.753 165.369 141.122 164.995 140.909 164.738Z" fill="#218583"/>
<path d="M141.503 166.609C141.269 166.366 140.898 166.737 141.132 166.98C141.489 167.349 141.327 167.975 140.928 168.249C140.42 168.597 139.78 168.453 139.256 168.233C138.806 168.045 138.298 167.836 137.839 168.114C137.568 168.279 137.429 168.557 137.398 168.866C137.333 169.54 137.781 170.225 137.64 170.888C137.542 171.347 137.071 171.275 136.724 171.161C136.29 171.02 135.849 170.825 135.386 170.934C134.476 171.148 134.256 172.226 133.911 172.947C133.639 173.513 133.222 173.984 132.797 174.438C132.313 174.958 131.826 175.475 131.341 175.994C129.435 178.03 127.529 180.064 125.622 182.1C123.447 184.422 121.274 186.743 119.099 189.064C118.869 189.31 119.238 189.681 119.47 189.436C123.461 185.175 127.454 180.913 131.445 176.653C131.937 176.129 132.429 175.602 132.92 175.078C133.342 174.628 133.778 174.179 134.115 173.657C134.407 173.207 134.56 172.704 134.787 172.224C134.987 171.804 135.267 171.375 135.791 171.43C136.271 171.482 136.696 171.785 137.187 171.783C137.561 171.783 137.906 171.579 138.069 171.24C138.382 170.584 137.976 169.819 137.92 169.153C137.874 168.592 138.203 168.39 138.753 168.587C139.342 168.798 139.854 169.053 140.501 168.954C141.053 168.87 141.536 168.546 141.747 168.019C141.939 167.534 141.87 166.99 141.503 166.609Z" fill="#218583"/>
<path d="M104.46 159.573C103.769 155.061 103.233 150.527 102.531 146.016C102.357 144.901 102.174 143.785 101.974 142.672C101.872 142.106 101.768 141.541 101.656 140.975C101.557 140.464 101.499 139.913 101.318 139.423C100.951 138.428 99.9844 138.514 99.1124 138.646C97.9598 138.823 96.805 138.983 95.6501 139.129C92.9762 139.463 90.2908 139.713 87.6007 139.88C86.949 136.817 86.3275 133.749 85.7362 130.673C84.9199 126.418 84.1638 122.151 83.4681 117.872C83.4148 117.541 82.9092 117.682 82.9626 118.012C84.1569 125.344 85.5274 132.647 87.0719 139.913C85.379 140.012 83.6861 140.08 81.9909 140.112C81.817 140.114 81.643 140.117 81.4668 140.119C81.534 140.386 81.6013 140.65 81.6709 140.917C87.0882 140.861 91.6404 140.362 93.3496 140.179C94.4372 140.063 95.5225 139.933 96.6078 139.79C97.656 139.65 98.7043 139.444 99.7548 139.34C100.188 139.298 100.495 139.358 100.617 139.815C100.75 140.302 100.826 140.81 100.924 141.306C101.13 142.373 101.32 143.444 101.499 144.516C101.522 144.662 101.545 144.808 101.568 144.954C100.342 145.717 98.8712 145.93 97.4705 146.167C95.8263 146.445 94.1775 146.677 92.5194 146.86C89.4768 147.199 86.4133 147.378 83.3522 147.401C83.4218 147.66 83.489 147.923 83.5586 148.182C88.1178 148.136 92.6724 147.744 97.176 147.009C98.7019 146.758 100.332 146.554 101.705 145.791C102.317 149.664 102.802 153.555 103.359 157.438C103.514 158.514 103.674 159.59 103.843 160.666C103.929 161.213 104.02 161.76 104.112 162.308C104.152 162.539 104.226 162.795 104.212 163.031C104.196 163.295 104.01 163.442 103.827 163.609C102.347 164.94 100.766 166.155 99.1078 167.254C98.2799 167.801 97.4334 168.319 96.5684 168.806C96.144 169.044 95.7312 169.306 95.2837 169.499C94.8129 169.701 94.7456 169.784 94.4697 169.791C94.2192 169.807 93.9688 169.749 93.7229 169.696C92.1553 169.346 90.5876 168.993 89.0222 168.643C89.0988 168.933 89.173 169.218 89.2472 169.499C90.249 169.724 91.2485 169.949 92.2504 170.171C92.8139 170.299 93.3797 170.452 93.9502 170.545C94.2076 170.587 94.4488 170.587 94.6854 170.547C95.1561 172.198 95.6338 173.849 96.1232 175.496C96.2182 175.818 96.7238 175.681 96.6287 175.357C96.1394 173.71 95.6617 172.059 95.1909 170.408C95.2674 170.378 95.344 170.348 95.4205 170.311C96.3667 169.863 97.2804 169.323 98.1732 168.778C99.9473 167.699 101.638 166.486 103.233 165.158C103.637 164.821 104.038 164.481 104.425 164.126C104.787 163.794 105.021 163.425 104.994 162.92C104.966 162.372 104.822 161.818 104.731 161.278C104.636 160.71 104.548 160.142 104.46 159.573Z" fill="#218583"/>
<path d="M106.025 228.92C107.222 228.859 108.416 228.773 109.611 228.662C109.65 228.402 109.689 228.136 109.731 227.86C104.414 228.361 99.052 228.358 93.7368 227.83C93.6997 227.825 93.6649 227.823 93.6278 227.818C93.6278 227.816 93.6278 227.816 93.6278 227.813C94.0429 220.768 94.4603 213.725 94.8754 206.68C95.2905 199.639 95.701 192.599 96.1231 185.558C96.1764 184.651 96.2367 183.74 96.4361 182.852C96.5358 182.411 96.6843 181.994 96.8396 181.572C96.9672 181.221 97.0623 180.857 96.9904 180.482C96.8582 179.777 96.2436 179.35 95.8749 178.777C95.7126 178.524 95.6848 178.265 95.8053 177.982C95.8772 177.815 96.0813 177.483 96.2831 177.669C96.5312 177.896 96.9023 177.525 96.6541 177.298C96.2784 176.954 95.8146 177.07 95.5178 177.453C95.2163 177.84 95.1027 178.401 95.3183 178.854C95.599 179.443 96.2367 179.823 96.4454 180.452C96.5683 180.823 96.4269 181.189 96.297 181.537C96.1439 181.94 96.0141 182.346 95.9213 182.771C95.5572 184.44 95.5642 186.196 95.4644 187.896L95.1398 193.376L93.8388 215.42C93.5953 219.534 93.3541 223.648 93.1106 227.762C92.2016 227.665 91.2948 227.547 90.3881 227.419C90.3881 227.69 90.3857 227.955 90.3857 228.208C95.5618 228.929 100.803 229.179 106.025 228.92Z" fill="#218583"/>
<path d="M115.436 152.442C114.724 147.691 113.998 142.944 113.256 138.197C112.516 133.473 111.762 128.749 110.992 124.029C110.554 121.349 110.111 118.668 109.664 115.987C109.617 115.709 109.272 115.551 109.019 115.621C108.722 115.702 108.606 115.985 108.652 116.265C109.443 121.003 110.22 125.743 110.978 130.488C111.734 135.21 112.477 139.933 113.202 144.662C113.615 147.347 114.021 150.035 114.425 152.721C114.466 153.001 114.819 153.154 115.069 153.087C115.371 153.004 115.477 152.723 115.436 152.442Z" fill="#DDE5E5"/>
<path d="M75.842 56.0813C75.842 56.0813 71.7165 55.9375 71.0694 57.8762C70.5523 59.4253 73.0035 61.378 75.7539 61.5913C78.3257 61.7884 75.842 56.0813 75.842 56.0813Z" fill="#1A1A1A"/>
<path d="M107.454 67.2893C107.454 67.2893 115.798 66.6887 116.626 66.2365C117.454 65.7843 116.552 64.1308 116.927 63.8317C117.303 63.5302 118.279 62.7046 117.605 61.726C116.927 60.7496 118.054 60.4482 117.906 59.3211C117.755 58.1941 116.779 58.419 116.853 57.7418C116.927 57.0647 117.38 56.0884 116.853 55.6361C116.327 55.1863 114.759 55.2697 113.544 55.1329C112.34 54.9961 113.14 52.7443 113.516 52.0671C113.892 51.39 113.764 49.6855 112.936 49.0848C112.108 48.4842 111.549 48.6326 111.174 49.3098C110.798 49.987 110.949 49.987 110.573 51.114C110.197 52.2411 107.983 53.7577 107.157 54.5833C106.329 55.4112 106.03 56.7632 105.202 57.2154C104.374 57.6676 85.8243 66.7652 84.9987 66.9902L85.7455 63.885C85.7455 63.885 86.3855 62.0437 84.6741 60.0076C81.9028 56.7122 76.6734 56.0814 75.8478 56.0814C75.8478 56.0814 70.7923 70.5986 71.3187 76.387C71.8451 82.1753 75.8292 84.5059 82.5197 82.1753C89.2032 79.8447 106.626 67.5908 107.454 67.2893Z" fill="#EA956B"/>
<path d="M85.9856 65.7866C82.5326 66.9995 79.3856 68.1335 76.0949 69.3232C75.3088 69.6084 75.6265 70.6937 76.4265 70.3922C79.701 69.1539 82.9059 67.9364 86.148 66.6168C86.6095 66.429 86.4634 65.6173 85.9856 65.7866Z" fill="#DD825C"/>
<path d="M171.347 120.228L167.885 119.018C167.897 118.985 169.026 115.75 169.664 113.605C170.002 112.46 169.787 111.785 169.657 111.643C167.704 111.409 152.832 111.664 150.084 112.237C149.156 113.531 147.099 118.807 146.796 119.832C146.805 119.797 146.856 119.614 146.856 119.37H143.189C143.189 118.881 143.765 117.258 144.899 114.544C146.673 110.298 147.463 109.514 148.064 109.113C148.574 108.775 149.344 108.26 159.516 107.986C159.907 107.975 169.151 107.731 170.556 108.081C171.533 108.325 172.358 108.965 172.88 109.881C173.608 111.156 173.715 112.849 173.182 114.649C172.518 116.88 171.394 120.094 171.347 120.228Z" fill="#4D4D4D"/>
<path d="M149.968 108.427C151.118 108.758 152.039 108.638 153.423 108.315C154.316 108.107 154.882 108.288 156.123 108.176C157.363 108.065 157.658 107.654 157.76 107.325C158.129 106.126 157.454 105.468 156.872 105.519C156.085 105.586 154.567 105.217 153.215 104.872C152.085 104.584 151.461 103.677 148.987 103.209C146.204 102.685 147.737 107.784 149.968 108.427Z" fill="#EA956B"/>
<path d="M157.55 111.578C157.55 111.578 157.198 112.675 156.273 113.12C155.347 113.563 153.253 111.785 152.808 110.528C152.365 109.271 153.571 108.826 154.645 109.454C155.716 110.082 157.321 111.571 157.321 111.571L157.55 111.578Z" fill="#EA956B"/>
<path d="M155.262 112.972C155.262 112.972 154.302 114.303 153.451 114.303C152.6 114.303 152.194 114.043 151.677 114.414C151.16 114.783 150.974 114.452 150.309 114.82C149.643 115.189 149.119 116.031 148.363 115.164C147.498 114.171 147.514 113.005 147.874 112.752C148.342 112.422 148.941 112.749 148.941 112.749C148.941 112.749 148.261 111.959 148.484 111.07C148.706 110.182 149.59 110.711 149.81 110.342C150.033 109.974 149.866 109.403 150.643 109.146C151.42 108.888 152.823 109.83 153.671 110.753C154.522 111.678 155.262 112.972 155.262 112.972Z" fill="#EA956B"/>
<path d="M168.099 118.493L103.958 299.82L107.415 301.042L171.556 119.716L168.099 118.493Z" fill="#4D4D4D"/>
<path d="M206.999 300.975C193.365 257.017 166.865 172.544 164.166 167.463C161.223 161.922 156.01 161.459 155.787 161.442L156.035 157.783C156.337 157.802 163.475 158.344 167.403 165.742C170.937 172.395 208.886 294.685 210.5 299.889L206.999 300.975Z" fill="#4D4D4D"/>
</g>
<defs>
<clipPath id="clip0_203_4">
<rect width="268" height="196" fill="white"/>
</clipPath>
</defs>
</svg>
