<svg width="268" height="196" viewBox="0 0 268 196" fill="none" xmlns="http://www.w3.org/2000/svg">
<g clip-path="url(#clip0_202_946)">
<path d="M228.847 156.435C237.932 142.966 243.497 127.941 245.844 112.692C248.412 95.9993 247.177 78.3342 237.272 63.2705C228.119 49.3512 211.855 39.4355 192.574 37.38C183.227 36.3838 173.675 37.366 164.865 40.0934C155.912 42.8652 148.552 47.4182 141.895 52.9699C135.869 57.9965 129.512 62.9567 120.404 63.1189C115.288 63.2099 110.285 62.0631 105.31 61.2489C100.682 60.4918 96.0488 60.1593 91.3616 60.7251C73.0278 62.9381 59.2361 75.2265 52.6928 88.8157C49.0857 96.3073 47.2083 104.292 46.1893 112.281C45.102 120.803 44.8206 129.409 45.102 137.972C45.2456 142.339 45.6961 147.448 46.3825 152.927C49.8802 180.833 69.4932 209.132 103.03 212.531C104.917 212.722 111.158 213.222 113.015 212.888L142.553 207.585C153.543 205.423 182.273 194.71 191.766 189.689C207.388 181.428 219.876 169.736 228.847 156.435Z" fill="#FFE3E0"/>
<path d="M156.383 61.1773C162.934 60.6416 169.971 61.3161 176.004 64.0603C183.388 67.4184 186.314 74.1146 189.448 81.1816C192.146 87.2653 202.782 113.779 204.227 117.496C209.852 131.97 217.717 153.014 199.441 160.415C182.127 167.428 168.559 146.176 168.559 146.176L139.668 65.1094C139.668 65.1094 156.381 61.1773 156.383 61.1773Z" fill="#ED695B"/>
<path d="M105.815 66.5715C103.418 65.8287 99.8069 66.1895 97.2899 66.3433C94.3254 66.5243 91.2804 67.0551 88.6431 68.4873C84.1704 70.9166 79.7113 76.0665 77.6057 80.5009C75.2299 85.5057 73.5507 90.8354 72.2965 96.2234C70.3668 104.523 63.7191 139.632 64.3239 148.413C64.8853 156.574 68.4793 168.122 83.4813 168.122C96.5401 168.122 104.371 158.407 104.371 158.407L113.283 79.2025L112.411 68.615C112.41 68.615 105.818 66.5715 105.815 66.5715Z" fill="#ED695B"/>
<path d="M94.2636 115.588C94.2636 115.588 90.4465 151.973 91.0488 164.437C91.6511 176.901 91.8519 195.997 91.8519 195.997H185.676C185.676 195.997 185.275 156.395 184.069 140.514C182.863 124.633 174.023 81.4123 174.023 81.4123L147.281 65.1094L115.955 78.5986L94.2636 115.588Z" fill="#ED695B"/>
<path d="M149.059 59.9471L125.016 65.1094L124.565 55.9009L124.256 49.4725L124.211 48.5784L133.256 45.957L143.901 42.8767L146.697 52.12L149.059 59.9471Z" fill="#F9B0AC"/>
<path d="M146.698 52.12C145.024 52.9793 142.955 53.9701 140.503 54.9981C135.389 57.1583 128.124 56.4415 124.566 55.9009L124.256 49.4725C125.99 49.1984 127.645 48.9504 127.964 48.9504C128.344 48.9504 130.866 47.4624 133.256 45.9582L143.902 42.8767L146.698 52.12Z" fill="#C88866"/>
<path d="M140.98 23.5184C140.98 23.5184 141.004 23.589 141.055 23.718C141.095 23.7813 141.118 23.8519 141.128 23.9177L141.132 23.9263C141.209 24.1557 141.325 24.4682 141.461 24.865C141.518 25.0523 141.589 25.2445 141.653 25.4689C142.165 27.2298 142.442 29.0105 142.486 30.7565C142.486 30.7565 142.492 30.8346 142.497 30.9971C142.598 37.201 139.802 42.9325 134.643 45.7697C130.879 47.8393 126.552 47.9968 122.537 46.5571C119.817 45.5911 117.24 43.9133 115.084 41.6094C114.434 40.9236 113.819 40.1821 113.261 39.3835C113.176 39.2694 113.097 39.1441 113.021 39.0263C112.633 38.4634 112.268 37.8793 111.934 37.2593C111.902 37.2134 111.882 37.1712 111.859 37.1216C111.788 36.9914 111.747 36.9294 111.747 36.9294C111.359 36.1928 111.019 35.4439 110.722 34.6849C110.708 34.6304 110.691 34.5969 110.691 34.5969C107.342 25.9798 109.952 16.4861 117.102 12.5465C124.898 8.26211 135.143 12.2216 139.996 21.388C140.369 22.0898 140.695 22.8053 140.98 23.5184Z" fill="#FFC6A8"/>
<path d="M140.32 23.8296C140.32 23.8296 140.344 23.9003 140.395 24.0293C140.414 24.0913 140.442 24.1496 140.469 24.2289L140.473 24.2376C140.551 24.4658 140.668 24.7783 140.806 25.1738C140.864 25.3611 140.935 25.552 141.002 25.7765C141.938 28.5529 143.565 33.8963 144.126 38.8614C144.733 44.3164 142.128 51.4107 137.211 53.4778C132.266 55.5574 125.457 53.272 121.631 49.3224C118.288 45.8615 115.288 41.3279 113.671 38.7188C113.167 37.9153 112.795 37.2928 112.598 36.9356C112.567 36.8898 112.535 36.8426 112.519 36.8092C112.448 36.6789 112.408 36.6157 112.408 36.6157L112.802 36.6244L129.477 36.7893L140.018 24.183L140.32 23.8296Z" fill="#FFC6A8"/>
<path d="M117.758 37.9847C119.7 40.3929 119.907 43.4496 118.221 44.8124C116.534 46.1752 113.59 45.327 111.648 42.9188C109.706 40.5107 109.499 37.454 111.186 36.0912C112.873 34.7284 115.815 35.5753 117.758 37.9847Z" fill="#FFC6A8"/>
<path d="M137.533 28.6707C138.15 31.7027 140.372 33.8107 142.497 33.3779C144.621 32.9452 145.844 30.1365 145.227 27.1033C144.61 24.0714 142.388 21.9633 140.263 22.3961C138.138 22.8289 136.916 25.6376 137.533 28.6707Z" fill="#FFC6A8"/>
<path d="M117.248 22.2895C116.744 24.1309 118.071 26.2564 118.018 28.3012C117.956 30.3113 117.257 31.5241 115.779 32.7989C114.621 33.7996 113.426 35.6497 113.673 37.2618C113.894 38.6519 114.346 40.2366 114.346 40.2366L108.267 38.5725L107.329 38.3245L104.762 37.6164L103.851 37.3684L96.2676 35.2963C96.2676 35.2963 97.5416 34.3129 98.0819 32.1267C98.9135 28.8059 97.6742 26.8231 100.012 24.1582C102.339 21.4847 102.852 22.3428 104.543 20.36C106.233 18.3858 105.577 13.0549 108.56 10.5054C111.894 7.66317 115.47 8.14927 115.47 8.14927L120.708 18.5173C120.708 18.5185 117.992 19.5626 117.248 22.2895Z" fill="#FFA608"/>
<path d="M120.704 18.521C120.704 18.521 123.177 17.5426 124.966 18.211C126.754 18.8794 127.844 21.0618 129.594 22.1246C131.396 23.2195 132.902 23.1836 134.849 22.6231C136.23 22.2262 138.343 22.3428 139.464 23.346C140.515 24.286 142.086 26.0505 142.086 26.0505L147.281 7.65822C147.281 7.65822 145.792 7.90746 143.6 7.39161C140.779 6.72694 139.407 4.2419 135.901 4.74659C132.397 5.25129 132.83 6.14908 130.254 6.49381C127.677 6.83855 123.564 3.39371 119.803 4.51347C115.601 5.76343 114.064 9.03218 114.064 9.03218L120.704 18.521Z" fill="#FFA608"/>
<path d="M119.818 18.2519C119.678 18.2519 119.542 18.1787 119.469 18.0473L114.353 8.97142C114.244 8.77797 114.312 8.53245 114.505 8.42332C114.697 8.3142 114.944 8.38116 115.053 8.57585L120.169 17.6517C120.278 17.8452 120.21 18.0907 120.016 18.1998C119.953 18.2345 119.886 18.2519 119.818 18.2519Z" fill="#0F0A1C"/>
<path d="M121.299 38.6928C120.826 38.6928 120.512 38.606 120.486 38.5985C120.273 38.5365 120.15 38.3146 120.211 38.1013C120.272 37.8892 120.492 37.7628 120.707 37.826C120.751 37.8384 121.784 38.1112 122.898 37.4441C123.609 37.0175 123.815 36.0924 123.817 36.0825C123.863 35.8667 124.075 35.7291 124.293 35.7737C124.51 35.8196 124.649 36.0317 124.603 36.2474C124.593 36.2995 124.328 37.5222 123.31 38.1335C122.558 38.5837 121.828 38.6928 121.299 38.6928Z" fill="#0F0A1C"/>
<path d="M133.094 33.2168C132.62 33.2168 132.307 33.13 132.281 33.1225C132.068 33.0605 131.945 32.8385 132.006 32.6253C132.066 32.4132 132.288 32.2867 132.501 32.35C132.546 32.3624 133.58 32.6364 134.691 31.968C135.399 31.5427 135.608 30.6164 135.611 30.6077C135.656 30.3895 135.871 30.2543 136.086 30.2952C136.302 30.3399 136.443 30.5531 136.397 30.7714C136.387 30.8235 136.122 32.0462 135.105 32.6575C134.354 33.1076 133.624 33.2168 133.094 33.2168Z" fill="#0F0A1C"/>
<path d="M129.543 40.6397C129.208 40.6397 129.114 40.5293 129.044 40.4462C128.972 40.3631 128.752 40.1064 128.032 36.2375C127.991 36.0193 128.135 35.8097 128.353 35.7688C128.566 35.7303 128.781 35.8717 128.822 36.0899C129.107 37.6164 129.465 39.3165 129.632 39.8336C129.989 39.8014 130.862 39.5472 131.572 39.2905C131.778 39.2148 132.011 39.3227 132.086 39.5311C132.162 39.7394 132.054 39.97 131.846 40.0457C130.583 40.5045 129.916 40.6397 129.543 40.6397Z" fill="#0F0A1C"/>
<path d="M131.736 47.0321C130.589 47.0321 129.761 46.7828 129.698 46.763C129.486 46.6972 129.369 46.4728 129.434 46.2608C129.5 46.0499 129.722 45.9272 129.936 45.9954C129.962 46.0016 132.531 46.7692 134.776 45.4423C136.617 44.3536 137.124 41.8623 137.13 41.8375C137.173 41.6193 137.381 41.4779 137.603 41.5201C137.819 41.5622 137.962 41.7743 137.919 41.9925C137.896 42.1091 137.334 44.8645 135.185 46.1355C133.989 46.8399 132.739 47.0321 131.736 47.0321Z" fill="#0F0A1C"/>
<path d="M122.284 30.1303C121.871 29.5847 120.482 29.7459 119.978 29.9753C118.889 30.47 117.89 31.193 117.121 32.1106C116.695 32.619 115.147 34.6577 116.496 35.0036C116.905 35.109 117.31 34.8474 117.651 34.5994C118.531 33.9583 119.405 33.3097 120.274 32.6525C120.838 32.2284 123.041 31.131 122.284 30.1303Z" fill="#A66161"/>
<path d="M131.692 26.9161C132.723 26.5664 133.75 26.208 134.775 25.8397C135.173 25.6971 135.615 25.5086 135.759 25.1106C136.231 23.7986 133.677 23.9338 133.016 24.0007C131.824 24.1223 130.667 24.5426 129.645 25.1651C129.172 25.4541 128.257 26.5131 128.477 27.1604C128.877 28.3496 131.022 27.143 131.692 26.9161Z" fill="#A66161"/>
<path d="M135.473 53.334L132.323 60.6031L132.129 61.0458L131.446 61.4079L127.212 63.635L126.409 64.0616L116.5 69.2884L115.697 69.7063L112.072 71.6197L110.545 72.4232L109.251 73.1065C109.251 73.1065 108.753 72.8411 107.999 72.4232C107.661 72.2298 107.275 72.0128 106.857 71.7722C106.769 71.7164 106.68 71.668 106.592 71.6197C106.327 71.4585 106.061 71.3059 105.78 71.1373C105.515 70.9761 105.241 70.8161 104.977 70.6462C103.104 69.488 101.232 68.1934 100.83 67.406C99.9541 65.7332 101.296 63.5222 103.04 61.713C103.128 61.6162 103.217 61.5121 103.305 61.4079C103.499 61.1661 103.675 60.9007 103.836 60.6044C104.318 59.7438 104.68 58.6749 104.977 57.4931C105.291 56.2543 105.54 54.8878 105.78 53.5126C105.845 53.143 105.916 52.7722 105.981 52.4027C106.101 51.7356 106.254 51.0597 106.439 50.4C106.511 50.1272 106.592 49.8619 106.681 49.5965C107.541 46.9589 109.02 44.7715 111.616 44.7963C112.202 44.7963 113.713 45.2229 115.698 45.8813C115.956 45.9694 116.229 46.0587 116.502 46.1541C119.25 47.0867 122.706 48.3738 125.92 49.5953C126.635 49.8681 127.343 50.1421 128.017 50.3988C130.291 51.283 132.309 52.0716 133.667 52.6185H133.675C134.798 53.0612 135.473 53.334 135.473 53.334Z" fill="#FFA608"/>
<path d="M162.275 69.3516C161.986 69.7373 160.925 70.3412 159.358 71.0889C159.1 71.2092 158.835 71.3307 158.555 71.4584C158.442 71.5142 158.329 71.5626 158.209 71.6196C157.646 71.8776 157.035 72.1417 156.385 72.4232C154.134 73.3966 151.435 74.4978 148.645 75.6399C148.38 75.744 148.107 75.8569 147.842 75.9697C146.725 76.4199 145.6 76.8787 144.491 77.3362C142.184 78.2849 139.934 79.2335 137.925 80.1189C137.651 80.2392 137.386 80.3607 137.122 80.481C135.402 81.261 133.891 81.9852 132.742 82.6275C132.565 82.7242 132.396 82.821 132.235 82.9164C131.986 83.0615 131.721 83.2302 131.448 83.4311C130.235 84.2755 128.789 85.5453 127.213 87.0731C127.045 87.2256 126.884 87.3942 126.715 87.548C126.715 87.548 126.715 87.548 126.715 87.5554C126.611 87.6522 126.514 87.7563 126.41 87.8531C124.667 89.5904 122.801 91.5918 120.962 93.6341C120.721 93.8995 120.488 94.1723 120.247 94.4377C118.953 95.8935 117.683 97.3567 116.502 98.7394C116.229 99.0606 115.964 99.3743 115.699 99.688C114.108 101.578 112.685 103.299 111.593 104.649C111.351 104.931 111.134 105.204 110.934 105.453C109.88 106.755 109.254 107.544 109.254 107.544L105.783 110.463L104.98 111.13L99.5951 115.657L98.6384 116.461L95.0704 119.452L94.2673 120.128L86.488 126.665L85.5239 127.469L84.3589 128.45L83.5558 129.125L80.4055 131.77L75.6799 127.469L74.7963 126.665L70.4648 122.717C70.4648 122.717 72.0239 120.273 74.5075 116.461C74.6761 116.195 74.8446 115.93 75.0305 115.657C76.8944 112.787 79.2095 109.256 81.7489 105.453C81.9261 105.188 82.1021 104.915 82.288 104.649C82.6982 104.022 83.1233 103.387 83.557 102.752C83.8223 102.35 84.0875 101.949 84.3601 101.546C85.9353 99.1982 87.5663 96.8012 89.1984 94.4377C89.3831 94.1723 89.5678 93.8995 89.7524 93.6341C91.2793 91.4306 92.7987 89.2593 94.2685 87.1934C94.5424 86.8238 94.8064 86.453 95.0716 86.0835C95.7309 85.1746 96.3729 84.2817 97.0087 83.4298C97.2094 83.157 97.4028 82.8916 97.6035 82.6263C100.417 78.8392 102.899 75.7267 104.716 73.8778C104.804 73.7897 104.893 73.7004 104.981 73.6124C105.246 73.3396 105.512 73.0742 105.784 72.8163C105.913 72.6712 106.041 72.5435 106.178 72.422C106.403 72.1963 106.628 71.9793 106.861 71.7709C106.91 71.7065 106.965 71.6581 107.014 71.6184C109.738 69.0218 112.664 66.5528 115.701 64.229C115.967 64.0281 116.232 63.8272 116.504 63.6263C117.501 62.8699 118.522 62.1308 119.542 61.4067C119.92 61.1338 120.305 60.8685 120.7 60.6031C122.588 59.2924 124.501 58.0375 126.413 56.8557C126.687 56.6784 126.951 56.5184 127.216 56.3572C129.386 55.0229 131.54 53.7767 133.669 52.6185H133.676C134.4 52.2167 135.107 51.8385 135.822 51.4603C136.256 51.2346 136.689 51.0014 137.124 50.777C137.879 50.3827 138.635 49.9809 139.391 49.5952C140.09 49.2257 140.798 48.8636 141.504 48.5015C143.594 47.4326 145.683 46.3711 147.844 45.4535C148.029 45.3729 148.222 45.301 148.407 45.2204C148.488 45.1881 148.568 45.1559 148.648 45.1236C150.119 44.5049 152.144 43.6356 153.839 43.829C154.482 43.8935 155.077 44.118 155.583 44.5607C156.635 45.4771 157.142 46.9403 157.543 48.2349C157.68 48.685 157.792 49.1352 157.897 49.594C157.952 49.8594 158.009 50.1322 158.058 50.3975C158.251 51.4032 158.387 52.4238 158.556 53.4295C158.724 54.4984 158.934 55.5598 159.264 56.5978C159.296 56.6945 159.328 56.7987 159.36 56.8954C159.762 58.1416 160.212 59.3717 160.647 60.6019C160.743 60.8672 160.84 61.1326 160.928 61.4054C161.201 62.178 161.458 62.9493 161.699 63.7293C162.114 65.1057 163.288 68.0012 162.275 69.3516Z" fill="#FFA608"/>
<path d="M67.7417 128.043C67.5632 128.043 67.3823 127.983 67.2336 127.861C66.8903 127.579 66.8407 127.072 67.1208 126.728L71.0717 121.903C71.3518 121.561 71.86 121.509 72.2032 121.791C72.5465 122.072 72.5961 122.578 72.316 122.921L68.3651 127.746C68.2064 127.942 67.9759 128.043 67.7417 128.043Z" fill="#FFA608"/>
<path d="M70.4546 130.767C70.2761 130.767 70.0952 130.708 69.9465 130.585C69.6032 130.303 69.5536 129.797 69.8337 129.453L73.7846 124.628C74.066 124.285 74.5716 124.233 74.9149 124.515C75.2582 124.796 75.3078 125.302 75.0277 125.646L71.0767 130.471C70.9181 130.667 70.6876 130.767 70.4546 130.767Z" fill="#FFA608"/>
<path d="M73.2866 133.18C73.1081 133.18 72.9272 133.121 72.7785 132.998C72.4352 132.717 72.3856 132.211 72.6657 131.866L76.6167 127.041C76.8968 126.699 77.4049 126.647 77.7482 126.928C78.0915 127.21 78.141 127.715 77.8609 128.059L73.91 132.884C73.7501 133.08 73.5196 133.18 73.2866 133.18Z" fill="#FFA608"/>
<path d="M160.828 112.974L159.357 113.56L158.554 113.882L154.109 115.659L152.1 116.462L148.645 117.845L147.842 118.166L141.382 120.748C141.382 120.748 140.65 119.035 139.573 116.462C139.469 116.204 139.356 115.931 139.244 115.659C138.834 114.694 138.392 113.624 137.926 112.49C137.669 111.863 137.396 111.219 137.123 110.561C136.44 108.904 135.725 107.168 135.034 105.454C134.93 105.189 134.817 104.916 134.713 104.651C133.869 102.56 133.073 100.534 132.398 98.7642C131.811 97.2278 131.176 95.7807 130.541 94.4377C130.405 94.1649 130.276 93.8995 130.147 93.6342C129.111 91.536 128.082 89.7429 127.214 88.3429C127.045 88.0614 126.877 87.8047 126.715 87.5555C126.715 87.548 126.715 87.548 126.715 87.548C126.611 87.3868 126.506 87.2268 126.411 87.0818C125.518 85.7227 124.939 84.9675 124.939 84.9675L126.411 84.0585L127.214 83.56L127.414 83.4311L128.716 82.6275L137.122 77.4094L137.925 76.9109L142.884 73.8393L144.491 77.3375L146.91 82.6288L147.279 83.4323L147.842 84.655L148.645 86.4084L151.964 93.6379L152.326 94.4414L157.011 104.653L157.38 105.457L158.554 108.014L159.357 109.767L160.828 112.974Z" fill="#FFA608"/>
<path d="M144.029 125.962C143.712 125.962 143.409 125.771 143.283 125.457L140.953 119.671C140.787 119.26 140.987 118.791 141.398 118.625C141.809 118.46 142.278 118.658 142.444 119.07L144.774 124.856C144.94 125.268 144.74 125.736 144.329 125.903C144.23 125.942 144.129 125.962 144.029 125.962Z" fill="#FFA608"/>
<path d="M147.719 124.891C147.401 124.891 147.1 124.7 146.973 124.386L144.644 118.6C144.478 118.188 144.678 117.72 145.089 117.553C145.501 117.388 145.969 117.586 146.135 117.999L148.464 123.785C148.63 124.196 148.431 124.665 148.019 124.831C147.921 124.872 147.82 124.891 147.719 124.891Z" fill="#FFA608"/>
<path d="M151.196 123.564C150.877 123.564 150.576 123.373 150.45 123.059L148.121 117.274C147.955 116.863 148.154 116.394 148.566 116.228C148.977 116.063 149.446 116.261 149.612 116.673L151.942 122.458C152.108 122.869 151.908 123.338 151.497 123.504C151.398 123.545 151.296 123.564 151.196 123.564Z" fill="#FFA608"/>
<path d="M154.92 122.344C154.609 122.344 154.312 122.161 154.182 121.856L151.725 116.124C151.551 115.716 151.739 115.243 152.147 115.068C152.554 114.893 153.027 115.082 153.203 115.49L155.659 121.223C155.834 121.631 155.645 122.104 155.238 122.278C155.134 122.323 155.027 122.344 154.92 122.344Z" fill="#FFA608"/>
<path d="M158.169 117.371L156.87 114.338C156.696 113.929 156.22 113.739 155.816 113.916C155.408 114.091 155.218 114.564 155.393 114.972L156.961 118.631C157.209 118.098 157.654 117.661 158.169 117.371Z" fill="#FFA608"/>
<path d="M160.644 60.6031H159.357V56.8966C159.325 56.7999 159.293 56.6957 159.261 56.599C158.931 55.5623 158.723 54.5009 158.553 53.4307V60.6031H148.645V50.3988H158.055C158.006 50.1334 157.951 49.8606 157.894 49.5953H148.643V45.1249C148.563 45.1571 148.482 45.1894 148.403 45.2216C148.218 45.3022 148.025 45.3741 147.84 45.4547V49.5953H139.386C138.63 49.9809 137.875 50.3827 137.119 50.777V60.6031H127.211V50.3988H128.014C127.338 50.1421 126.632 49.8681 125.917 49.5953H116.498V46.1541C116.225 46.0574 115.951 45.9694 115.695 45.8813V49.5965H106.679C106.591 49.8619 106.51 50.1272 106.437 50.4H115.695V60.6044H105.778V53.5125C105.536 54.8878 105.287 56.2543 104.975 57.4931V60.6044H103.833C103.672 60.902 103.496 61.1673 103.303 61.4079H104.975V70.6475C105.24 70.8161 105.512 70.9773 105.778 71.1385V61.4091H115.695V71.6209H106.589C106.677 71.6693 106.767 71.7176 106.855 71.7734C106.622 71.983 106.396 72.2 106.172 72.4244H115.695V82.6288H105.778V72.8188C105.504 73.0767 105.239 73.3421 104.975 73.6149V82.6288H97.5994C97.3986 82.8941 97.2053 83.1595 97.0045 83.4323H104.977V93.6366H95.0687V86.086C94.8035 86.4555 94.5383 86.8263 94.2656 87.1958V93.6366H89.7495C89.5649 93.902 89.3802 94.1748 89.1956 94.4402H94.2669V104.652H84.3585V101.548C84.0858 101.95 83.8206 102.352 83.5554 102.755V104.652H82.2863C82.1017 104.917 81.9244 105.19 81.7472 105.455H83.5554V115.66H75.0289C74.8442 115.933 74.6756 116.198 74.5059 116.463H83.5542V126.668H74.7921L75.6758 127.471H83.5517V129.128L84.3548 128.452V127.471H85.5197L86.4839 126.668H84.3548V116.463H94.2631V120.13L95.0662 119.454V116.463H98.6342L99.591 115.66H95.0662V105.455H104.975V111.132L105.778 110.465V105.455H110.928C111.129 105.206 111.346 104.933 111.588 104.652H105.778V94.4402H115.695V99.6905C115.96 99.3768 116.225 99.0631 116.498 98.7419V94.4402H120.243C120.483 94.1748 120.716 93.902 120.958 93.6366H116.498V83.4323H126.406V87.8543C126.51 87.7576 126.607 87.6534 126.711 87.5567C126.872 87.8059 127.041 88.0639 127.209 88.3441V83.4311H137.118V93.6354H130.142C130.27 93.9008 130.399 94.1661 130.536 94.4389H137.118V104.651H134.707C134.811 104.916 134.924 105.189 135.028 105.454H137.118V110.561C137.39 111.22 137.664 111.863 137.921 112.49V105.454H147.838V115.659H139.239C139.352 115.931 139.465 116.205 139.569 116.462H147.838V118.167L148.641 117.846V116.463H152.096L154.105 115.66H148.641V105.455H157.377L157.008 104.652H148.642V94.4402H152.323L151.961 93.6366H148.642V86.4072L147.839 84.6538V93.6354H137.922V83.4311H147.276L146.907 82.6275H137.922V72.4232H147.839V75.9697C148.104 75.8569 148.378 75.744 148.642 75.6399V72.4232H156.382C157.032 72.1417 157.643 71.8763 158.206 71.6197H148.642V61.4079H158.551V71.4597C158.832 71.3307 159.097 71.2104 159.354 71.0902V61.4091H160.92C160.837 61.1339 160.74 60.8685 160.644 60.6031ZM94.2644 115.66H84.356V105.455H94.2644V115.66ZM104.977 104.652H95.0687V94.4402H104.977V104.652ZM115.697 93.6354H105.78V83.4311H115.697V93.6354ZM137.121 61.4079V71.6197H127.213V61.4079H137.121ZM116.5 50.3988H126.409V60.6031H116.5V50.3988ZM116.5 61.4079H126.409V71.6197H116.5V61.4079ZM116.5 82.6275V72.4232H126.409V82.6275H116.5ZM147.843 94.4402V104.652H137.926V94.4402H147.843ZM137.121 82.6275H127.213V72.4232H137.121V82.6275ZM147.843 71.6197H137.926V61.4079H147.843V71.6197ZM147.843 60.6031H137.926V50.3988H147.843V60.6031ZM158.554 108.012V113.883L159.357 113.562V109.766L158.554 108.012Z" fill="white"/>
<path d="M142.137 78.5304C140.129 77.9327 138.139 80.1549 138.139 80.1549C138.139 80.1549 138.6 79.0277 137.64 77.3561C136.681 75.6845 134.639 75.0236 133.088 76.3777C131.537 77.7318 120.815 91.6699 118.742 93.4444C116.669 95.2189 115.633 93.2609 115.633 93.2609C115.224 91.81 118.274 87.7018 120.226 83.6592C122.177 79.6167 118.694 78.0456 116.594 79.0611C114.495 80.078 105.489 91.6823 102.304 98.0375C99.1174 104.393 102.338 109.761 102.338 109.761C102.338 109.761 107.224 124.814 107.542 125.031C107.861 125.249 112.324 132.534 118.374 127.135C128.406 118.185 144.969 99.4239 146.429 96.8372C147.888 94.2517 144.805 92.8368 144.805 92.8368C144.805 92.8368 147.155 89.5507 146.437 87.4314C145.706 85.2688 143.31 85.1014 143.31 85.1014C143.31 85.1014 144.332 83.3839 144.491 82.0124C144.651 80.6447 144.144 79.1281 142.137 78.5304Z" fill="#FFC6A8"/>
<path d="M126.849 95.0155C126.762 95.0155 126.674 94.9882 126.601 94.93C126.426 94.7923 126.396 94.5406 126.533 94.3657L137.424 80.4909C137.561 80.316 137.814 80.2863 137.988 80.4239C138.163 80.5616 138.192 80.8133 138.056 80.9882L127.165 94.863C127.085 94.9634 126.966 95.0155 126.849 95.0155Z" fill="#362E4D"/>
<path d="M130.856 99.1945C130.765 99.1945 130.673 99.1635 130.599 99.1002C130.429 98.9576 130.406 98.7034 130.549 98.5335L142.118 84.7579C142.261 84.5868 142.515 84.5657 142.684 84.7083C142.854 84.8509 142.876 85.1051 142.734 85.275L131.165 99.0506C131.084 99.1461 130.97 99.1945 130.856 99.1945Z" fill="#362E4D"/>
<path d="M135.634 103.582C135.541 103.582 135.448 103.55 135.372 103.484C135.204 103.339 135.185 103.086 135.33 102.917L143.726 93.1579C143.871 92.9893 144.126 92.9719 144.293 93.1158C144.461 93.2609 144.48 93.5138 144.335 93.6825L135.94 103.442C135.859 103.535 135.746 103.582 135.634 103.582Z" fill="#362E4D"/>
<path d="M119.3 126.299L114.788 131.464L107.234 140.105L89.4414 121.819L96.6828 114.172L102.396 108.15L118.019 117.3L119.3 126.299Z" fill="#FFBA95"/>
<path d="M114.788 131.464L107.233 140.105L89.4414 121.819L96.6815 114.172C99.6386 116.286 104.622 120.026 107.523 123.121C109.926 125.695 112.619 128.866 114.788 131.464Z" fill="white"/>
<path d="M71.2598 137.198C71.2598 137.198 87.3325 119.106 89.4419 117.899C91.5512 116.693 101.634 126.798 106.017 131.77C110.399 136.743 113.283 140.105 113.283 140.105L106.318 148.355C106.318 148.355 93.6605 149.662 93.259 149.662C92.8574 149.662 82.3096 147.853 81.2041 147.049C80.0999 146.244 71.2598 137.198 71.2598 137.198Z" fill="#EE5E4E"/>
<path d="M134.954 58.6749C136.991 58.1912 138.854 60.5225 138.854 60.5225C138.854 60.5225 138.457 59.3718 139.509 57.756C140.562 56.1402 142.638 55.5971 144.11 57.0355C145.582 58.474 155.503 72.9949 157.473 74.8835C159.444 76.772 160.588 74.876 160.588 74.876C161.077 73.4512 156.083 70.0659 154.362 65.9204C152.64 61.7737 156.207 60.4022 158.246 61.5344C160.284 62.6678 170.804 73.8728 173.628 80.3967C176.451 86.9218 172.934 92.1002 172.934 92.1002C172.934 92.1002 167.21 106.853 166.879 107.054C166.549 107.254 161.683 114.277 155.945 108.546C146.432 99.0432 130.952 79.3799 129.64 76.7162C128.327 74.0526 131.486 72.8138 131.486 72.8138C131.486 72.8138 129.326 69.4012 130.16 67.3254C131.013 65.2074 133.413 65.1752 133.413 65.1752C133.413 65.1752 132.49 63.4031 132.407 62.0242C132.324 60.6428 132.915 59.1572 134.954 58.6749Z" fill="#FFC6A8"/>
<path d="M150.291 76.054C150.169 76.054 150.05 75.9995 149.971 75.8953L138.899 61.3707C138.764 61.1946 138.799 60.9416 138.975 60.8077C139.15 60.6725 139.402 60.706 139.538 60.8834L150.611 75.408C150.746 75.5853 150.711 75.837 150.535 75.971C150.462 76.028 150.376 76.054 150.291 76.054Z" fill="#362E4D"/>
<path d="M145.555 80.6918C145.439 80.6918 145.324 80.641 145.244 80.543L133.491 66.0779C133.35 65.9055 133.376 65.6526 133.549 65.5125C133.72 65.3723 133.974 65.3984 134.114 65.5707L145.868 80.0358C146.008 80.2082 145.982 80.4612 145.809 80.6013C145.735 80.6633 145.645 80.6918 145.555 80.6918Z" fill="#362E4D"/>
<path d="M140.895 84.1044C140.782 84.1044 140.67 84.0573 140.59 83.9643L131.779 73.6893C131.634 73.5207 131.654 73.2664 131.822 73.1226C131.991 72.9788 132.243 72.9986 132.388 73.166L141.2 83.441C141.345 83.6096 141.325 83.8639 141.157 84.0077C141.081 84.0722 140.988 84.1044 140.895 84.1044Z" fill="#362E4D"/>
<path d="M145.593 97.6965C145.474 97.6965 145.356 97.6445 145.277 97.5428L130.994 79.334C130.857 79.1591 130.887 78.9062 131.062 78.7698C131.235 78.6334 131.488 78.6619 131.626 78.838L145.909 97.0455C146.045 97.2204 146.015 97.4733 145.841 97.6097C145.766 97.668 145.68 97.6965 145.593 97.6965Z" fill="#362E4D"/>
<path d="M172.712 91.0338L176.886 96.4763L183.868 105.587L162.452 119.447L156.382 110.84L150.771 102.869L163.642 90.5229L172.712 91.0338Z" fill="#FFBA95"/>
<path d="M176.885 96.4763L183.868 105.587L162.451 119.447L156.381 110.84C159.034 108.355 163.518 104.699 167.122 102.461C170.116 100.611 173.914 98.0946 176.885 96.4763Z" fill="white"/>
<path d="M183.493 99.6372C183.493 99.6372 172.931 105.978 165.497 111.941C158.063 117.903 158.209 116.501 159.318 119.453C160.426 122.406 165.365 131.118 165.865 131.235C166.363 131.351 189.76 119.857 190.593 118.979C191.426 118.101 195.039 115.205 194.668 114.287C194.296 113.371 183.493 99.6372 183.493 99.6372Z" fill="#EE5E4E"/>
<path d="M169.12 165.196C168.294 165.196 167.478 165.071 166.81 164.893C164.724 164.338 160.892 162.479 160.73 162.4C160.587 162.33 160.499 162.184 160.504 162.025C160.509 161.866 160.607 161.726 160.753 161.665C160.89 161.608 164.124 160.282 164.936 160.038C166.377 159.607 168.261 159.153 170.051 159.472C171.449 159.721 173.433 160.744 173.165 162.536C173.039 163.382 172.621 164.043 171.924 164.5C171.152 165.009 170.13 165.196 169.12 165.196ZM161.903 162.067C163.162 162.652 165.573 163.733 167.017 164.117C168.443 164.498 170.379 164.556 171.483 163.831C171.988 163.498 172.278 163.037 172.371 162.419C172.552 161.203 170.957 160.453 169.909 160.265C168.285 159.976 166.521 160.406 165.166 160.811C164.64 160.969 162.944 161.646 161.903 162.067Z" fill="white"/>
<path d="M161.215 162.743C161.067 162.743 160.928 162.66 160.86 162.526C160.777 162.366 158.817 158.581 158.207 156.509C157.774 155.036 157.582 152.809 158.464 151.383C158.904 150.674 159.552 150.24 160.394 150.091C162.173 149.771 163.25 151.731 163.536 153.124C163.903 154.905 163.499 156.802 163.105 158.257C162.883 159.075 161.644 162.345 161.591 162.484C161.534 162.631 161.396 162.733 161.239 162.742C161.23 162.743 161.223 162.743 161.215 162.743ZM160.753 150.863C160.681 150.863 160.607 150.87 160.531 150.883C159.916 150.992 159.463 151.295 159.146 151.807C158.449 152.931 158.558 154.865 158.976 156.282C159.398 157.716 160.541 160.099 161.159 161.343C161.552 160.29 162.184 158.578 162.328 158.046C162.697 156.678 163.079 154.901 162.747 153.286C162.547 152.309 161.839 150.863 160.753 150.863Z" fill="white"/>
<path d="M190.884 190.815L131.672 133.114L126.626 138.299L185.838 195.999L190.884 190.815Z" fill="#362E4D"/>
<path d="M160.995 161.684L155.951 166.871L156.527 167.431L161.57 162.244L160.995 161.684Z" fill="white"/>
<path d="M159.893 170.065H77.2402V195.997H159.893V170.065Z" fill="#362E4D"/>
<path d="M159.893 182.63H77.2402V183.433H159.893V182.63Z" fill="white"/>
<path d="M95.0668 170.065H94.2637V195.997H95.0668V170.065Z" fill="white"/>
<path d="M142.869 170.065H142.066V195.997H142.869V170.065Z" fill="white"/>
<path d="M67.7437 141.921C67.6507 141.921 67.5566 141.889 67.4797 141.822C67.3124 141.677 67.2951 141.423 67.4401 141.256L77.4649 129.7C77.6112 129.531 77.864 129.514 78.0325 129.66C78.1999 129.805 78.2172 130.059 78.0722 130.227L68.0473 141.783C67.968 141.876 67.8565 141.921 67.7437 141.921Z" fill="#362E4D"/>
<path d="M202.553 118.602C202.487 118.602 202.42 118.586 202.359 118.552L196.136 115.114C195.941 115.008 195.87 114.762 195.978 114.569C196.086 114.374 196.333 114.304 196.524 114.411L202.747 117.848C202.942 117.955 203.013 118.201 202.905 118.394C202.832 118.528 202.694 118.602 202.553 118.602Z" fill="#362E4D"/>
<path d="M91.6506 167.012C91.5515 167.012 91.4511 166.975 91.373 166.902C91.2119 166.75 91.2057 166.494 91.3594 166.334L113.328 143.233C114.044 142.494 114.058 141.327 113.361 140.575L110.223 137.187C110.072 137.025 110.083 136.769 110.245 136.619C110.409 136.468 110.662 136.476 110.813 136.64L113.951 140.028C114.938 141.094 114.919 142.747 113.908 143.79L91.9419 166.888C91.8626 166.97 91.7572 167.012 91.6506 167.012Z" fill="#362E4D"/>
<path d="M183.465 159.21C183.338 159.21 183.214 159.149 183.134 159.038L156.623 120.785C156.251 120.264 156.106 119.625 156.215 118.989C156.325 118.353 156.676 117.801 157.207 117.433L159.431 115.91C159.613 115.785 159.864 115.832 159.99 116.016C160.115 116.199 160.068 116.45 159.885 116.575L157.663 118.096C157.314 118.34 157.08 118.707 157.007 119.128C156.934 119.551 157.031 119.975 157.28 120.324L183.795 158.58C183.921 158.762 183.876 159.013 183.693 159.139C183.625 159.187 183.545 159.21 183.465 159.21Z" fill="#362E4D"/>
<path d="M207.794 131.639C207.668 131.639 207.543 131.579 207.465 131.469L185.393 100.162C185.023 99.6397 184.297 99.512 183.773 99.8753L181.555 101.301C181.367 101.42 181.12 101.367 180.999 101.18C180.879 100.994 180.934 100.745 181.121 100.624L183.327 99.2069C184.201 98.5993 185.428 98.8163 186.05 99.6992L208.123 131.005C208.251 131.186 208.207 131.438 208.027 131.566C207.955 131.614 207.874 131.639 207.794 131.639Z" fill="#362E4D"/>
<path d="M133.99 43.8949C136.444 42.1261 136.999 38.7022 135.232 36.2475C133.464 33.7927 130.042 33.2367 127.589 35.0055C125.135 36.7743 124.58 40.1982 126.347 42.653C128.115 45.1077 131.537 45.6638 133.99 43.8949Z" fill="#ED695B"/>
<path opacity="0.26" d="M128.006 35.6845C127.912 35.2951 129.663 34.3973 131.63 34.7631C133.596 35.1277 134.661 36.6864 134.979 37.9029C135.296 39.1194 134.26 39.6824 133.857 39.5844C133.454 39.4877 132.931 37.2271 131.137 37.2171C129.341 37.2072 128.314 37.4094 127.949 36.891C127.585 36.3727 128.006 35.6845 128.006 35.6845Z" fill="white"/>
<path d="M137.321 1.97888C137.321 1.97888 138.159 2.76507 138.625 3.89227C139.091 5.01947 140.647 11.9662 130.337 21.0507C120.027 30.1353 104.394 30.5445 100.765 29.7608C97.1364 28.9759 96.5898 26.0667 96.5898 26.0667L137.321 1.97888Z" fill="#7F522D"/>
<path d="M126.498 6.09333C126.498 6.09333 133.898 0.906231 136.564 1.40721C139.228 1.90819 139.327 14.6558 124.208 22.8848C109.088 31.1137 99.4609 29.3541 97.007 26.9273C94.5544 24.5005 103.666 18.7591 103.666 18.7591L126.498 6.09333Z" fill="#ED695B"/>
<path d="M102.841 15.8872C102.841 15.8872 99.8062 8.86483 108.67 2.46248C117.533 -3.93986 124.715 4.16506 124.715 4.16506C124.715 4.16506 128.307 9.56297 119.741 15.6218C111.175 21.6807 103.741 17.2525 103.741 17.2525L102.841 15.8872Z" fill="#ED695B"/>
<path d="M126.498 6.09334C126.498 6.09334 129.285 13.4555 119.278 18.5322C109.27 23.6089 103.667 18.7591 103.667 18.7591L102.842 15.8872C102.842 15.8872 108.14 21.0607 117.312 16.0335C126.484 11.0064 124.717 4.16507 124.717 4.16507L126.498 6.09334Z" fill="#362E4D"/>
</g>
<defs>
<clipPath id="clip0_202_946">
<rect width="268" height="196" fill="white"/>
</clipPath>
</defs>
</svg>
